G04 DipTrace 3.2.0.1*
G04 mBrane.GTP*
%MOIN*%
G04 #@! TF.FileFunction,Paste,Top*
G04 #@! TF.Part,Single*
%AMOUTLINE2*
4,1,4,
-0.023559,0.047181,
-0.023559,-0.047181,
0.023559,-0.047181,
0.023559,0.047181,
-0.023559,0.047181,
0*%
%AMOUTLINE5*
4,1,4,
0.015685,-0.017654,
-0.015685,-0.017654,
-0.015685,0.017654,
0.015685,0.017654,
0.015685,-0.017654,
0*%
%AMOUTLINE8*
4,1,4,
0.025528,-0.03537,
0.025528,0.03537,
-0.025528,0.03537,
-0.025528,-0.03537,
0.025528,-0.03537,
0*%
%AMOUTLINE11*
4,1,4,
0.017654,0.015685,
0.017654,-0.015685,
-0.017654,-0.015685,
-0.017654,0.015685,
0.017654,0.015685,
0*%
%AMOUTLINE14*
4,1,4,
-0.015685,0.017654,
0.015685,0.017654,
0.015685,-0.017654,
-0.015685,-0.017654,
-0.015685,0.017654,
0*%
%AMOUTLINE17*
4,1,4,
0.025528,0.019622,
-0.025528,0.019622,
-0.025528,-0.019622,
0.025528,-0.019622,
0.025528,0.019622,
0*%
%AMOUTLINE20*
4,1,4,
0.0255,0.0355,
-0.0255,0.0355,
-0.0255,-0.0355,
0.0255,-0.0355,
0.0255,0.0355,
0*%
%AMOUTLINE23*
4,1,4,
0.071,0.0355,
-0.071,0.0355,
-0.071,-0.0355,
0.071,-0.0355,
0.071,0.0355,
0*%
%AMOUTLINE26*
4,1,4,
0.009,0.036,
-0.009,0.036,
-0.009,-0.036,
0.009,-0.036,
0.009,0.036,
0*%
%AMOUTLINE29*
4,1,4,
-0.003,0.024,
-0.003,-0.024,
0.003,-0.024,
0.003,0.024,
-0.003,0.024,
0*%
%AMOUTLINE32*
4,1,4,
-0.039307,0.007811,
-0.039307,-0.007811,
0.039307,-0.007811,
0.039307,0.007811,
-0.039307,0.007811,
0*%
%AMOUTLINE35*
4,1,4,
-0.009,-0.036,
0.009,-0.036,
0.009,0.036,
-0.009,0.036,
-0.009,-0.036,
0*%
%AMOUTLINE38*
4,1,4,
0.007811,-0.017654,
-0.007811,-0.017654,
-0.007811,0.017654,
0.007811,0.017654,
0.007811,-0.017654,
0*%
%AMOUTLINE41*
4,1,4,
-0.007811,0.017654,
0.007811,0.017654,
0.007811,-0.017654,
-0.007811,-0.017654,
-0.007811,0.017654,
0*%
%AMOUTLINE56*
4,1,4,
-0.03537,-0.007811,
-0.03537,0.007811,
0.03537,0.007811,
0.03537,-0.007811,
-0.03537,-0.007811,
0*%
%AMOUTLINE59*
4,1,4,
0.015685,0.023559,
-0.015685,0.023559,
-0.015685,-0.023559,
0.015685,-0.023559,
0.015685,0.023559,
0*%
%AMOUTLINE62*
4,1,4,
-0.017654,-0.015685,
-0.017654,0.015685,
0.017654,0.015685,
0.017654,-0.015685,
-0.017654,-0.015685,
0*%
%AMOUTLINE68*
4,1,4,
0.015685,-0.001,
0.015685,0.001,
-0.015685,0.001,
-0.015685,-0.001,
0.015685,-0.001,
0*%
%AMOUTLINE71*
4,1,4,
0.001,-0.015685,
0.001,0.015685,
-0.001,0.015685,
-0.001,-0.015685,
0.001,-0.015685,
0*%
%ADD54R,0.07074X0.007748*%
%ADD60R,0.035307X0.03137*%
%ADD69R,0.033339X0.017591*%
%ADD73R,0.03137X0.078614*%
%ADD75R,0.03137X0.035307*%
%ADD79OUTLINE2*%
%ADD82OUTLINE5*%
%ADD85OUTLINE8*%
%ADD88OUTLINE11*%
%ADD91OUTLINE14*%
%ADD94OUTLINE17*%
%ADD97OUTLINE20*%
%ADD100OUTLINE23*%
%ADD103OUTLINE26*%
%ADD106OUTLINE29*%
%ADD109OUTLINE32*%
%ADD112OUTLINE35*%
%ADD115OUTLINE38*%
%ADD118OUTLINE41*%
%ADD133OUTLINE56*%
%ADD136OUTLINE59*%
%ADD139OUTLINE62*%
%ADD145OUTLINE68*%
%ADD148OUTLINE71*%
%FSLAX26Y26*%
G04*
G70*
G90*
G75*
G01*
G04 TopPaste*
%LPD*%
D79*
X1268958Y1387752D3*
Y1226334D3*
D82*
X1522994Y4327466D3*
Y4260536D3*
D85*
X625209Y669001D3*
Y771363D3*
D79*
X1018958Y1394001D3*
Y1232584D3*
D88*
X439529Y3494001D3*
X506458D3*
D91*
X443958Y4331501D3*
Y4398430D3*
D82*
X537709Y3144001D3*
Y3210930D3*
D75*
X912709Y3150252D3*
Y3217181D3*
D88*
X525208Y2744001D3*
X458279D3*
D85*
X618958Y1706501D3*
Y1808863D3*
D91*
X868958Y2737750D3*
Y2670821D3*
D82*
X712708Y1592181D3*
Y1525252D3*
D75*
X468958Y2379681D3*
Y2312752D3*
D82*
X700208Y994001D3*
Y1060930D3*
D88*
X523388Y2200250D3*
X456458D3*
D75*
X831458Y2319001D3*
Y2385930D3*
D82*
X625209Y1525252D3*
Y1592181D3*
Y1012752D3*
Y1079681D3*
D91*
X537709Y1520821D3*
Y1587750D3*
X543958Y995821D3*
Y1062750D3*
X1168958Y2112752D3*
Y2179681D3*
D88*
X1068958Y594001D3*
X1135888D3*
X975208Y2350250D3*
X908279D3*
D82*
X1446174Y1823036D3*
Y1889966D3*
D91*
X1437708Y2306501D3*
Y2373430D3*
D94*
X1187708Y500250D3*
X1073535D3*
D73*
X1081458Y2350252D3*
X1181458D3*
Y2575055D3*
X1081458D3*
D97*
X900208Y1656501D3*
X990208D3*
X1080208D3*
D100*
X989208Y1904501D3*
D103*
X512709Y4169001D3*
X562709D3*
X612709D3*
X662709D3*
X712709D3*
X762709D3*
X812709D3*
X862709D3*
Y4411001D3*
X812709D3*
X762709D3*
X712709D3*
X662709D3*
X612709D3*
X562709D3*
X512709D3*
X1106458Y4169001D3*
X1156458D3*
X1206458D3*
X1256458D3*
X1306458D3*
X1356458D3*
X1406458D3*
X1456458D3*
Y4411001D3*
X1406458D3*
X1356458D3*
X1306458D3*
X1256458D3*
X1206458D3*
X1156458D3*
X1106458D3*
D106*
X531458Y2312752D3*
X557458D3*
X583458D3*
X608458D3*
X634458D3*
X659458D3*
X685458D3*
X711458D3*
Y2536752D3*
X685458D3*
X659458D3*
X634458D3*
X608458D3*
X583458D3*
X557458D3*
X531458D3*
D109*
X1043958Y2100250D3*
Y2150250D3*
Y2200250D3*
Y2250250D3*
X839234D3*
Y2200250D3*
Y2150250D3*
Y2100250D3*
D112*
X777459Y1427501D3*
X727459D3*
X677459D3*
X627459D3*
X577459D3*
X527459D3*
X477459D3*
Y1185501D3*
X527459D3*
X577459D3*
X627459D3*
X677459D3*
X727459D3*
X777459D3*
D115*
X1343797Y2413093D3*
X1306395D3*
X1268994D3*
Y2306794D3*
X1343797D3*
D118*
X1323037Y2224032D3*
X1285636D3*
X1248234D3*
Y2117733D3*
X1323037D3*
D69*
X1158427Y1969001D3*
Y2043804D3*
X1067876Y2006403D3*
D115*
X1322536Y1917796D3*
X1285134D3*
X1247733D3*
Y1811497D3*
X1322536D3*
D118*
X1352722Y1733242D3*
X1315321D3*
X1277919D3*
Y1626943D3*
X1352722D3*
D133*
X1168958Y775250D3*
Y825250D3*
Y875250D3*
Y925250D3*
X956360D3*
Y875250D3*
Y825250D3*
Y775250D3*
D136*
X469155Y3782387D3*
X506557Y3869001D3*
X543958Y3782387D3*
X931655D3*
X969057Y3869001D3*
X1006458Y3782387D3*
D82*
X654243Y3858716D3*
Y3791787D3*
D91*
X506458Y4527072D3*
Y4594001D3*
D88*
X722994Y4510536D3*
X789923D3*
D91*
X918958Y4431501D3*
Y4498430D3*
X1006458Y4431501D3*
Y4498430D3*
D88*
X937709Y4325250D3*
X1004638D3*
X1156458Y4519001D3*
X1223388D3*
X1456458D3*
X1389529D3*
D82*
X831458Y3794001D3*
Y3860930D3*
X481458Y4060930D3*
Y3994001D3*
D139*
X572994Y4077466D3*
X639923D3*
D82*
X931458Y4148430D3*
Y4081501D3*
X1025208Y4148430D3*
Y4081501D3*
D139*
X1189923Y4077466D3*
X1122994D3*
X1272994D3*
X1339923D3*
D82*
X1481458Y4060930D3*
Y3994001D3*
D91*
X468958Y2881501D3*
Y2814572D3*
D82*
X543958Y1912752D3*
Y1979681D3*
Y2056501D3*
Y2123430D3*
X712708Y2069001D3*
Y2135930D3*
X718958Y1912752D3*
Y1979681D3*
D91*
X622994Y1948036D3*
Y2014966D3*
D139*
X700208Y2200250D3*
X633279D3*
D75*
X793958Y1700250D3*
Y1633321D3*
D82*
Y856501D3*
Y923430D3*
D75*
Y1789571D3*
Y1856500D3*
D82*
X700208Y856501D3*
Y923430D3*
D75*
X462708Y1827072D3*
Y1894001D3*
D82*
X556458Y856501D3*
Y923430D3*
D75*
X462708Y1677072D3*
Y1744001D3*
D82*
X481458Y856501D3*
Y923430D3*
X1518902Y2375043D3*
Y2308114D3*
D139*
X1379243Y2610536D3*
X1446172D3*
D82*
X1427213Y2150067D3*
Y2216996D3*
D88*
X962708Y494001D3*
X895779D3*
D82*
X1525208Y2219001D3*
Y2152072D3*
D88*
X1093958Y687752D3*
X1027029D3*
D91*
X1193936Y1543880D3*
Y1610809D3*
D139*
X850209Y687752D3*
X917138D3*
X750209Y444001D3*
X817138D3*
D82*
X1443958Y1762750D3*
Y1695821D3*
D91*
X1493958Y1262750D3*
Y1195821D3*
X1443910Y1343901D3*
Y1410830D3*
D60*
X1206458Y687752D3*
X1273388D3*
D54*
X456460Y2944000D3*
Y2991506D3*
Y3039013D3*
D145*
X556458Y3081501D3*
Y3061816D3*
Y3042131D3*
Y3022446D3*
Y3002761D3*
Y2983076D3*
Y2963391D3*
Y2943706D3*
Y2924021D3*
Y2904336D3*
Y2884651D3*
Y2864966D3*
D148*
X615514Y2805910D3*
X635199D3*
X654884D3*
X674569D3*
X694254D3*
X713939D3*
X733624D3*
X753309D3*
X772994D3*
X792679D3*
X812364D3*
X832049D3*
D145*
X891104Y2864966D3*
Y2884651D3*
Y2904336D3*
Y2924021D3*
Y2943706D3*
Y2963391D3*
Y2983076D3*
Y3002761D3*
Y3022446D3*
Y3042131D3*
Y3061816D3*
Y3081501D3*
D148*
X832049Y3140556D3*
X812364D3*
X792679D3*
X772994D3*
X753309D3*
X733624D3*
X713939D3*
X694254D3*
X674569D3*
X654884D3*
X635199D3*
X615514D3*
M02*
