M48
INCH
T01C0.0157
T02C0.024
T03C0.0315
T04C0.032
T05C0.038
T06C0.0394
T07C0.04
T08C0.052
T09C0.1102
%
T01
X+007815Y+030128
X+008127Y+030753
X+007752Y+030940
X+008627Y+031628
X+009502Y+030565
X+009877Y+030315
X+010440Y+030190
X+009627Y+029315
X+008127Y+029503
X+007690Y+029315
X+007190Y+029628
X+006752Y+029315
X+006190Y+029628
X+006190Y+030128
X+006190Y+030565
X+005565Y+031190
X+005940Y+031440
X+006565Y+032315
X+005565Y+033940
X+004377Y+035253
X+004690Y+037378
X+005315Y+038878
X+004315Y+039315
X+006377Y+040503
X+007315Y+040128
X+007627Y+041128
X+008627Y+041128
X+009002Y+040753
X+009815Y+040815
X+010815Y+040775
X+009815Y+042190
X+008690Y+042440
X+008127Y+042253
X+007940Y+043065
X+008502Y+043190
X+009002Y+043628
X+009565Y+044253
X+009877Y+045190
X+009065Y+045190
X+008252Y+045190
X+008127Y+044565
X+007127Y+043565
X+006627Y+043503
X+006002Y+043440
X+005127Y+043065
X+005127Y+042440
X+004627Y+041690
X+006940Y+042565
X+007127Y+042128
X+008315Y+039565
X+008252Y+039003
X+009127Y+038315
X+008377Y+037565
X+009065Y+037128
X+010315Y+038940
X+009315Y+039565
X+006440Y+037565
X+006690Y+035753
X+009002Y+033940
X+009252Y+033628
X+009440Y+032815
X+013315Y+031003
X+013502Y+030190
X+014127Y+030190
X+013502Y+029003
X+014752Y+027815
X+013627Y+025690
X+012459Y+025917
X+012412Y+023675
X+013619Y+023003
X+012841Y+021945
X+013619Y+021255
X+014972Y+022513
X+011190Y+022815
X+009690Y+023065
X+009690Y+021690
X+010877Y+020628
X+012361Y+018693
X+013619Y+018119
X+014815Y+017628
X+013619Y+016626
X+013064Y+016126
X+012698Y+016854
X+011252Y+016503
X+010252Y+016003
X+010502Y+014065
X+011752Y+014503
X+014064Y+014064
X+014064Y+013377
X+015315Y+012628
X+011752Y+011315
X+011565Y+009815
X+012627Y+008815
X+011127Y+008253
X+010565Y+008753
X+010065Y+007753
X+009815Y+006878
X+010315Y+005940
X+011190Y+005253
X+011252Y+006878
X+011690Y+006878
X+013127Y+006878
X+012877Y+004440
X+007475Y+008565
X+007002Y+009565
X+006252Y+008378
X+005212Y+008565
X+005502Y+009628
X+006440Y+011253
X+006690Y+012503
X+007377Y+012503
X+006752Y+013628
X+006065Y+013128
X+005690Y+013628
X+005877Y+012503
X+005190Y+012565
X+005502Y+014878
X+006315Y+014815
X+006690Y+016253
X+006877Y+016878
X+007940Y+017253
X+008190Y+018003
X+006815Y+018315
X+006815Y+018940
X+007565Y+019503
X+006502Y+020690
X+006377Y+021128
X+005752Y+020690
X+005627Y+021503
X+005565Y+022628
X+005127Y+022628
X+005815Y+024190
X+005627Y+024753
X+005002Y+026315
X+005877Y+027565
X+005127Y+028128
X+006440Y+028690
X+007002Y+027625
X+007377Y+027438
X+007713Y+027685
X+008124Y+027552
X+008127Y+028690
X+006690Y+026628
X+006877Y+026253
X+007127Y+025940
X+008377Y+025565
X+008815Y+025565
X+009315Y+025815
X+009627Y+025565
X+010440Y+024628
X+007627Y+024065
X+007440Y+022878
X+006877Y+022690
X+007440Y+021190
X+005127Y+019815
X+005002Y+018815
X+005627Y+018003
X+005815Y+017253
X+005690Y+016315
X+004877Y+016253
X+004502Y+016440
X+008315Y+016378
X+008127Y+014628
X+004315Y+029940
X+004315Y+044378
X+005127Y+044628
X+004627Y+045253
X+005815Y+045315
X+006315Y+046440
X+007315Y+046128
X+010315Y+046440
X+011065Y+044690
X+012565Y+044628
X+013065Y+043628
X+013127Y+042565
X+014065Y+042940
X+015252Y+042128
X+014502Y+041128
X+013752Y+040940
X+011065Y+042940
X+010627Y+043253
X+014065Y+044628
X+014815Y+045190
X+014565Y+046315
T02
X+011315Y+030753
X+010815Y+030753
X+010815Y+031253
X+011315Y+031253
X+011315Y+031753
X+010815Y+031753
X+010815Y+032253
X+011315Y+032253
X+011315Y+032753
X+010815Y+032753
T03
X+013815Y+039940
X+012815Y+039940
X+011815Y+039940
X+010815Y+039940
X+009815Y+039940
X+008815Y+039940
X+007815Y+039940
X+006815Y+039940
X+005815Y+039940
X+005815Y+045940
X+006815Y+045940
X+007815Y+045940
X+008815Y+045940
X+009815Y+045940
X+010815Y+045940
X+011815Y+045940
X+012815Y+045940
X+013815Y+045940
T04
X+014440Y+025440
X+014440Y+024440
X+014440Y+020690
X+014440Y+019690
X+014440Y+015940
X+014440Y+014940
X+014440Y+011190
X+014440Y+010190
T05
X+015002Y+004753
X+014002Y+004753
X+014002Y+007065
X+015002Y+007065
X+015002Y+009003
X+014002Y+009003
T06
X+010377Y+035940
X+010377Y+034956
X+010377Y+033972
X+012149Y+034610
X+012149Y+032834
X+012130Y+031007
X+012131Y+029231
X+014690Y+029231
X+014690Y+031003
X+014708Y+032834
X+014708Y+034605
X+014709Y+036455
X+014708Y+038230
X+012149Y+038230
X+012149Y+036459
X+004668Y+035940
X+004668Y+033972
T07
X+008810Y+024940
X+008819Y+024938
X+010252Y+027190
X+010252Y+028190
X+011252Y+028190
X+012252Y+028190
X+013252Y+028190
X+013252Y+027190
X+012252Y+027190
X+011252Y+027190
X+014252Y+027190
X+014252Y+028190
X+008819Y+020188
X+008810Y+020190
X+008810Y+015440
X+008819Y+015439
X+008810Y+010690
X+008819Y+010689
X+008810Y+005940
X+013872Y+005940
T08
X+007810Y+024940
X+009819Y+024938
X+013069Y+024938
X+013069Y+020188
X+009819Y+020188
X+007810Y+020190
X+004560Y+020190
X+004560Y+015440
X+007810Y+015440
X+009819Y+015439
X+013069Y+015439
X+013069Y+010689
X+009819Y+010689
X+007810Y+010690
X+004560Y+010690
X+004560Y+005940
X+007810Y+005940
X+009622Y+005940
X+012872Y+005940
X+004560Y+024940
T09
X+007424Y+036885
X+007424Y+033027
T00
M30
