G04 DipTrace 3.2.0.1*
G04 mBrane.GBO*
%MOIN*%
G04 #@! TF.FileFunction,Legend,Bot*
G04 #@! TF.Part,Single*
%ADD10C,0.009843*%
%ADD12C,0.001*%
%ADD14C,0.01*%
%ADD19C,0.006*%
%ADD22C,0.000013*%
%ADD26C,0.008*%
%ADD32C,0.005984*%
%ADD37C,0.005*%
%ADD76C,0.004632*%
%FSLAX26Y26*%
G04*
G70*
G90*
G75*
G01*
G04 BotSilk*
%LPD*%
X1001592Y4041126D2*
D22*
G02X1001592Y4041126I33077J0D01*
G01*
X504508D2*
G02X504508Y4041126I33077J0D01*
G01*
X1470632Y4664080D2*
D26*
X493466D1*
Y3923922D1*
X1470632D1*
Y4664080D1*
X644079Y2458966D2*
D19*
Y2529001D1*
X609132Y2494001D2*
X679076D1*
X818963Y2544016D2*
Y2669001D1*
Y2443986D2*
Y2319001D1*
X418953Y2443986D2*
Y2319001D1*
Y2544016D2*
Y2669001D1*
X818963D1*
Y2319001D2*
X418953D1*
X818963Y2443986D2*
D32*
X831437D1*
Y2544016D1*
X818963D1*
X1118823Y1103965D2*
D19*
Y1033930D1*
X1153770Y1068930D2*
X1083827D1*
X943940Y1018915D2*
Y893930D1*
Y1118945D2*
Y1243930D1*
X1343949Y1118945D2*
Y1243930D1*
Y1018915D2*
Y893930D1*
X943940D1*
Y1243930D2*
X1343949D1*
X943940Y1118945D2*
D32*
X931466D1*
Y1018915D1*
X943940D1*
X644079Y1983966D2*
D19*
Y2054001D1*
X609132Y2019001D2*
X679076D1*
X818963Y2069016D2*
Y2194001D1*
Y1968986D2*
Y1844001D1*
X418953Y1968986D2*
Y1844001D1*
Y2069016D2*
Y2194001D1*
X818963D1*
Y1844001D2*
X418953D1*
X818963Y1968986D2*
D32*
X831437D1*
Y2069016D1*
X818963D1*
X1118823Y1578915D2*
D19*
Y1508880D1*
X1153770Y1543880D2*
X1083827D1*
X943940Y1493865D2*
Y1368880D1*
Y1593895D2*
Y1718880D1*
X1343949Y1593895D2*
Y1718880D1*
Y1493865D2*
Y1368880D1*
X943940D1*
Y1718880D2*
X1343949D1*
X943940Y1593895D2*
D32*
X931466D1*
Y1493865D1*
X943940D1*
X644079Y1508966D2*
D19*
Y1579001D1*
X609132Y1544001D2*
X679076D1*
X818963Y1594016D2*
Y1719001D1*
Y1493986D2*
Y1369001D1*
X418953Y1493986D2*
Y1369001D1*
Y1594016D2*
Y1719001D1*
X818963D1*
Y1369001D2*
X418953D1*
X818963Y1493986D2*
D32*
X831437D1*
Y1594016D1*
X818963D1*
X1118823Y2053865D2*
D19*
Y1983830D1*
X1153770Y2018830D2*
X1083827D1*
X943940Y1968815D2*
Y1843830D1*
Y2068845D2*
Y2193830D1*
X1343949Y2068845D2*
Y2193830D1*
Y1968815D2*
Y1843830D1*
X943940D1*
Y2193830D2*
X1343949D1*
X943940Y2068845D2*
D32*
X931466D1*
Y1968815D1*
X943940D1*
X644079Y1033966D2*
D19*
Y1104001D1*
X609132Y1069001D2*
X679076D1*
X818963Y1119016D2*
Y1244001D1*
Y1018986D2*
Y894001D1*
X418953Y1018986D2*
Y894001D1*
Y1119016D2*
Y1244001D1*
X818963D1*
Y894001D2*
X418953D1*
X818963Y1018986D2*
D32*
X831437D1*
Y1119016D1*
X818963D1*
X1118823Y2528816D2*
D19*
Y2458781D1*
X1153770Y2493781D2*
X1083827D1*
X943940Y2443766D2*
Y2318781D1*
Y2543796D2*
Y2668781D1*
X1343949Y2543796D2*
Y2668781D1*
Y2443766D2*
Y2318781D1*
X943940D1*
Y2668781D2*
X1343949D1*
X943940Y2543796D2*
D32*
X931466D1*
Y2443766D1*
X943940D1*
X1150329Y558966D2*
D19*
Y629001D1*
X1115382Y594001D2*
X1185325D1*
X1325212Y644016D2*
Y769001D1*
Y543986D2*
Y419001D1*
X925203Y543986D2*
Y419001D1*
Y644016D2*
Y769001D1*
X1325212D1*
Y419001D2*
X925203D1*
X1325212Y543986D2*
D32*
X1337686D1*
Y644016D1*
X1325212D1*
X644079Y558966D2*
D19*
Y629001D1*
X609132Y594001D2*
X679076D1*
X818963Y644016D2*
Y769001D1*
Y543986D2*
Y419001D1*
X418953Y543986D2*
Y419001D1*
Y644016D2*
Y769001D1*
X818963D1*
Y419001D2*
X418953D1*
X818963Y543986D2*
D32*
X831437D1*
Y644016D1*
X818963D1*
X1383958Y2494002D2*
D19*
G03X1409078Y2445178I60036J14D01*
G01*
X1407958Y2541995D2*
G03X1383958Y2494002I35985J-47993D01*
G01*
X1503958D2*
G02X1480790Y2446641I-60007J7D01*
G01*
Y2541364D2*
G02X1503958Y2494002I-36839J-47368D01*
G01*
X1363958D2*
D14*
G03X1392742Y2432548I79941J-25D01*
G01*
X1406310Y2564590D2*
G03X1363958Y2494002I37693J-70615D01*
G01*
X1523958D2*
G02X1495638Y2432933I-80067J29D01*
G01*
X1483654Y2563466D2*
G02X1523958Y2494002I-39716J-69468D01*
G01*
X1383958Y2019002D2*
D19*
G03X1409078Y1970178I60036J14D01*
G01*
X1407958Y2066995D2*
G03X1383958Y2019002I35985J-47993D01*
G01*
X1503958D2*
G02X1480790Y1971641I-60007J7D01*
G01*
Y2066364D2*
G02X1503958Y2019002I-36839J-47368D01*
G01*
X1363958D2*
D14*
G03X1392742Y1957548I79941J-25D01*
G01*
X1406310Y2089590D2*
G03X1363958Y2019002I37693J-70615D01*
G01*
X1523958D2*
G02X1495638Y1957933I-80067J29D01*
G01*
X1483654Y2088466D2*
G02X1523958Y2019002I-39716J-69468D01*
G01*
X1383958Y1544002D2*
D19*
G03X1409078Y1495178I60036J14D01*
G01*
X1407958Y1591995D2*
G03X1383958Y1544002I35985J-47993D01*
G01*
X1503958D2*
G02X1480790Y1496641I-60007J7D01*
G01*
Y1591364D2*
G02X1503958Y1544002I-36839J-47368D01*
G01*
X1363958D2*
D14*
G03X1392742Y1482548I79941J-25D01*
G01*
X1406310Y1614590D2*
G03X1363958Y1544002I37693J-70615D01*
G01*
X1523958D2*
G02X1495638Y1482933I-80067J29D01*
G01*
X1483654Y1613466D2*
G02X1523958Y1544002I-39716J-69468D01*
G01*
X1383958Y1069002D2*
D19*
G03X1409078Y1020178I60036J14D01*
G01*
X1407958Y1116995D2*
G03X1383958Y1069002I35985J-47993D01*
G01*
X1503958D2*
G02X1480790Y1021641I-60007J7D01*
G01*
Y1116364D2*
G02X1503958Y1069002I-36839J-47368D01*
G01*
X1363958D2*
D14*
G03X1392742Y1007548I79941J-25D01*
G01*
X1406310Y1139590D2*
G03X1363958Y1069002I37693J-70615D01*
G01*
X1523958D2*
G02X1495638Y1007933I-80067J29D01*
G01*
X1483654Y1138466D2*
G02X1523958Y1069002I-39716J-69468D01*
G01*
X624337Y3495576D2*
D22*
G02X624337Y3495576I118106J0D01*
G01*
X1002289Y3689688D2*
D37*
Y3301464D1*
X482597D1*
Y3689688D1*
X1002289D1*
X683390Y3597931D2*
Y3393221D1*
X1222894Y3129768D2*
D10*
X1459102D1*
Y2893566D1*
X1222894D1*
Y3129768D1*
X1224764Y3490054D2*
X1460973D1*
Y3253852D1*
X1224764D1*
Y3490054D1*
X1460987Y3616354D2*
X1224779D1*
Y3852555D1*
X1460987D1*
Y3616354D1*
X1012728Y2994602D2*
D12*
X1019728D1*
X1080728D2*
X1087728D1*
X454728Y2993602D2*
X478728D1*
X561728D2*
X588728D1*
X668728D2*
X676728D1*
X738728D2*
X759728D1*
X814728D2*
X822728D1*
X870728D2*
X878728D1*
X909728D2*
X944728D1*
X1000728D2*
X1023916D1*
X1068728D2*
X1091916D1*
X451159Y2992602D2*
X482296D1*
X559082D2*
X593977D1*
X668382D2*
X677107D1*
X730665D2*
X762185D1*
X815111D2*
X823569D1*
X870107D2*
X878348D1*
X906043D2*
X944728D1*
X994665D2*
X1027358D1*
X1062665D2*
X1095358D1*
X448291Y2991602D2*
X485168D1*
X556785D2*
X597972D1*
X668049D2*
X677533D1*
X722728D2*
X764429D1*
X815572D2*
X824286D1*
X869537D2*
X877918D1*
X903051D2*
X944728D1*
X988728D2*
X1030090D1*
X1056728D2*
X1098090D1*
X446126Y2990602D2*
X487368D1*
X554879D2*
X600910D1*
X667732D2*
X677966D1*
X722728D2*
X766373D1*
X816133D2*
X824896D1*
X869002D2*
X877453D1*
X900831D2*
X944728D1*
X988728D2*
X1032279D1*
X1056728D2*
X1100279D1*
X444543Y2989602D2*
X489078D1*
X553333D2*
X602026D1*
X667391D2*
X678356D1*
X722728D2*
X767904D1*
X816762D2*
X825446D1*
X868487D2*
X876968D1*
X899203D2*
X944728D1*
X988728D2*
X1034018D1*
X1056728D2*
X1102018D1*
X443419Y2988602D2*
X490442D1*
X552145D2*
X602405D1*
X667055D2*
X678702D1*
X722728D2*
X769024D1*
X817368D2*
X825965D1*
X867981D2*
X876474D1*
X897921D2*
X944728D1*
X988728D2*
X1035378D1*
X1056728D2*
X1103378D1*
X442543Y2987602D2*
X491575D1*
X551240D2*
X602598D1*
X666735D2*
X679056D1*
X722728D2*
X769906D1*
X817928D2*
X826474D1*
X867479D2*
X875976D1*
X896838D2*
X944728D1*
X988728D2*
X1036435D1*
X1056728D2*
X1104435D1*
X441778Y2986602D2*
X492514D1*
X550468D2*
X602682D1*
X666392D2*
X679397D1*
X722728D2*
X770674D1*
X818458D2*
X826980D1*
X866978D2*
X875477D1*
X895923D2*
X944728D1*
X988728D2*
X1037270D1*
X1056728D2*
X1105270D1*
X441118Y2985602D2*
X493267D1*
X549749D2*
X602728D1*
X666055D2*
X679719D1*
X722728D2*
X745728D1*
X756292D2*
X771332D1*
X818970D2*
X827513D1*
X866478D2*
X874977D1*
X895181D2*
X944728D1*
X988728D2*
X1001728D1*
X1022292D2*
X1038009D1*
X1056728D2*
X1069728D1*
X1090292D2*
X1106009D1*
X440538Y2984602D2*
X452773D1*
X480451D2*
X493889D1*
X549111D2*
X561769D1*
X665735D2*
X680063D1*
X759291D2*
X771878D1*
X819475D2*
X828108D1*
X865977D2*
X874478D1*
X894563D2*
X907966D1*
X936728D2*
X944728D1*
X1025295D2*
X1038714D1*
X1093295D2*
X1106714D1*
X440005Y2983602D2*
X450976D1*
X482740D2*
X494440D1*
X548569D2*
X559941D1*
X665392D2*
X680399D1*
X761519D2*
X772288D1*
X819976D2*
X828753D1*
X865478D2*
X873981D1*
X894010D2*
X905552D1*
X936728D2*
X944728D1*
X1027558D2*
X1039347D1*
X1095558D2*
X1107347D1*
X439526Y2982602D2*
X449513D1*
X484425D2*
X494925D1*
X548131D2*
X558382D1*
X665055D2*
X680724D1*
X763050D2*
X772562D1*
X820478D2*
X829365D1*
X864977D2*
X873513D1*
X893490D2*
X903659D1*
X936728D2*
X944728D1*
X1029217D2*
X1039887D1*
X1097217D2*
X1107887D1*
X439151Y2981602D2*
X448454D1*
X485630D2*
X495303D1*
X547765D2*
X557176D1*
X664735D2*
X681098D1*
X764076D2*
X772808D1*
X820977D2*
X829927D1*
X864478D2*
X873108D1*
X892985D2*
X902290D1*
X936728D2*
X944728D1*
X1030485D2*
X1040325D1*
X1098485D2*
X1108325D1*
X438924Y2980602D2*
X447710D1*
X486526D2*
X495534D1*
X547407D2*
X556291D1*
X664392D2*
X681527D1*
X764779D2*
X773100D1*
X821478D2*
X830458D1*
X863977D2*
X872753D1*
X892515D2*
X901331D1*
X936728D2*
X944728D1*
X1031481D2*
X1040690D1*
X1099481D2*
X1108690D1*
X438810Y2979602D2*
X447185D1*
X487161D2*
X495684D1*
X547098D2*
X555644D1*
X664055D2*
X671689D1*
X673882D2*
X681963D1*
X765248D2*
X773378D1*
X821981D2*
X830969D1*
X863478D2*
X872365D1*
X892109D2*
X900621D1*
X936728D2*
X944728D1*
X1032255D2*
X1041052D1*
X1100255D2*
X1109052D1*
X438760Y2978602D2*
X446785D1*
X487622D2*
X495862D1*
X546903D2*
X555196D1*
X663731D2*
X671561D1*
X674134D2*
X682355D1*
X765511D2*
X773560D1*
X822513D2*
X831475D1*
X862977D2*
X871927D1*
X891757D2*
X900035D1*
X936728D2*
X944728D1*
X1032885D2*
X1041396D1*
X1100885D2*
X1109396D1*
X438739Y2977602D2*
X446414D1*
X488022D2*
X496122D1*
X546802D2*
X554941D1*
X663357D2*
X671318D1*
X674428D2*
X682701D1*
X765638D2*
X773656D1*
X823108D2*
X831976D1*
X862478D2*
X871458D1*
X891404D2*
X899537D1*
X936728D2*
X944728D1*
X1033439D2*
X1041719D1*
X1101439D2*
X1109719D1*
X438732Y2976602D2*
X446101D1*
X488347D2*
X496386D1*
X546757D2*
X554816D1*
X662928D2*
X671026D1*
X674731D2*
X683056D1*
X765693D2*
X773699D1*
X823753D2*
X832478D1*
X861977D2*
X870969D1*
X891097D2*
X899154D1*
X936728D2*
X944728D1*
X1033929D2*
X1042059D1*
X1101929D2*
X1110059D1*
X438729Y2975602D2*
X445904D1*
X488549D2*
X496563D1*
X546738D2*
X554762D1*
X662492D2*
X670724D1*
X675067D2*
X683397D1*
X765715D2*
X773717D1*
X824365D2*
X832977D1*
X861478D2*
X870475D1*
X890903D2*
X898925D1*
X936728D2*
X944728D1*
X1034342D2*
X1042364D1*
X1102342D2*
X1110364D1*
X438728Y2974602D2*
X445803D1*
X488652D2*
X496657D1*
X546731D2*
X554740D1*
X662100D2*
X670388D1*
X675401D2*
X683723D1*
X765723D2*
X773724D1*
X824927D2*
X833478D1*
X860977D2*
X869976D1*
X890802D2*
X898811D1*
X936728D2*
X944728D1*
X1034697D2*
X1042592D1*
X1102697D2*
X1110592D1*
X438728Y2973602D2*
X445757D1*
X488698D2*
X496699D1*
X546729D2*
X554732D1*
X661754D2*
X670054D1*
X675724D2*
X684098D1*
X765726D2*
X773726D1*
X825458D2*
X833981D1*
X860478D2*
X869478D1*
X890757D2*
X898760D1*
X936728D2*
X944728D1*
X1035051D2*
X1042820D1*
X1103051D2*
X1110820D1*
X438728Y2972602D2*
X445739D1*
X488716D2*
X496717D1*
X546728D2*
X554729D1*
X661399D2*
X669735D1*
X676098D2*
X684527D1*
X765727D2*
X773727D1*
X825969D2*
X834513D1*
X859977D2*
X868977D1*
X890738D2*
X898740D1*
X936728D2*
X944728D1*
X1035357D2*
X1043104D1*
X1103357D2*
X1111104D1*
X438728Y2971602D2*
X445731D1*
X488724D2*
X496724D1*
X546728D2*
X554728D1*
X661058D2*
X669392D1*
X676527D2*
X684963D1*
X765727D2*
X773727D1*
X826475D2*
X835108D1*
X859478D2*
X868478D1*
X890731D2*
X898732D1*
X936728D2*
X944728D1*
X1035556D2*
X1043379D1*
X1103556D2*
X1111379D1*
X438728Y2970602D2*
X445729D1*
X488726D2*
X496726D1*
X546728D2*
X554728D1*
X660736D2*
X669055D1*
X676963D2*
X685355D1*
X765727D2*
X773727D1*
X826976D2*
X835753D1*
X858977D2*
X867977D1*
X890729D2*
X898729D1*
X936728D2*
X944728D1*
X1035692D2*
X1043560D1*
X1103692D2*
X1111560D1*
X438728Y2969602D2*
X445728D1*
X488727D2*
X496727D1*
X546728D2*
X554728D1*
X660392D2*
X668735D1*
X677355D2*
X685701D1*
X765727D2*
X773727D1*
X827478D2*
X836365D1*
X858478D2*
X867478D1*
X890728D2*
X898732D1*
X936728D2*
X944728D1*
X1035865D2*
X1043660D1*
X1103865D2*
X1111660D1*
X438728Y2968602D2*
X445728D1*
X488727D2*
X496727D1*
X546728D2*
X554728D1*
X660056D2*
X668392D1*
X677701D2*
X686056D1*
X765727D2*
X773727D1*
X827977D2*
X836927D1*
X857977D2*
X866977D1*
X890732D2*
X898767D1*
X936728D2*
X944728D1*
X1036123D2*
X1043738D1*
X1104123D2*
X1111738D1*
X438728Y2967602D2*
X445728D1*
X488727D2*
X496727D1*
X546728D2*
X554728D1*
X659735D2*
X668055D1*
X678056D2*
X686397D1*
X765728D2*
X773728D1*
X828478D2*
X837458D1*
X857478D2*
X866478D1*
X890767D2*
X898894D1*
X936728D2*
X944728D1*
X1036386D2*
X1043883D1*
X1104386D2*
X1111883D1*
X438728Y2966602D2*
X445728D1*
X488727D2*
X496727D1*
X546728D2*
X554728D1*
X659392D2*
X667735D1*
X678397D2*
X686719D1*
X765728D2*
X773728D1*
X828977D2*
X837969D1*
X856981D2*
X865977D1*
X890894D2*
X899137D1*
X936728D2*
X944728D1*
X1036563D2*
X1044130D1*
X1104563D2*
X1112130D1*
X438728Y2965602D2*
X445728D1*
X488727D2*
X496727D1*
X546728D2*
X554731D1*
X659055D2*
X667392D1*
X678719D2*
X687063D1*
X765728D2*
X773728D1*
X829478D2*
X838475D1*
X856513D2*
X865478D1*
X891137D2*
X899433D1*
X936728D2*
X944728D1*
X1036657D2*
X1044389D1*
X1104657D2*
X1112389D1*
X438728Y2964602D2*
X445728D1*
X488728D2*
X496728D1*
X546728D2*
X554767D1*
X658735D2*
X667055D1*
X679063D2*
X687399D1*
X765728D2*
X773728D1*
X829981D2*
X838976D1*
X856108D2*
X864977D1*
X891429D2*
X899770D1*
X936728D2*
X944728D1*
X1036699D2*
X1044564D1*
X1104699D2*
X1112564D1*
X438728Y2963602D2*
X445728D1*
X488728D2*
X496728D1*
X546731D2*
X554898D1*
X658392D2*
X666735D1*
X679399D2*
X687724D1*
X765724D2*
X773728D1*
X830513D2*
X839478D1*
X855753D2*
X864478D1*
X891731D2*
X900237D1*
X936728D2*
X944728D1*
X1036717D2*
X1044657D1*
X1104717D2*
X1112657D1*
X438728Y2962602D2*
X445728D1*
X488728D2*
X496728D1*
X546767D2*
X555173D1*
X658055D2*
X666392D1*
X679720D2*
X688098D1*
X765688D2*
X773724D1*
X831108D2*
X839981D1*
X855365D2*
X863977D1*
X892067D2*
X900850D1*
X936728D2*
X944728D1*
X1036724D2*
X1044699D1*
X1104724D2*
X1112699D1*
X438728Y2961602D2*
X445728D1*
X488728D2*
X496728D1*
X546894D2*
X555560D1*
X657731D2*
X666055D1*
X680063D2*
X688527D1*
X765557D2*
X773688D1*
X831753D2*
X840513D1*
X854927D2*
X863478D1*
X892405D2*
X901604D1*
X936728D2*
X944728D1*
X1036726D2*
X1044717D1*
X1104726D2*
X1112717D1*
X438728Y2960602D2*
X445728D1*
X488728D2*
X496728D1*
X547137D2*
X556017D1*
X657357D2*
X665735D1*
X680400D2*
X688963D1*
X765282D2*
X773561D1*
X832365D2*
X841108D1*
X854458D2*
X862977D1*
X892759D2*
X902640D1*
X936728D2*
X944728D1*
X1036727D2*
X1044724D1*
X1104727D2*
X1112724D1*
X438728Y2959602D2*
X445728D1*
X488728D2*
X496728D1*
X547429D2*
X556576D1*
X656928D2*
X665392D1*
X680720D2*
X689355D1*
X764891D2*
X773321D1*
X832927D2*
X841753D1*
X853969D2*
X862478D1*
X893230D2*
X904196D1*
X936728D2*
X944728D1*
X1036727D2*
X1044726D1*
X1104727D2*
X1112726D1*
X438728Y2958602D2*
X445728D1*
X488728D2*
X496728D1*
X547735D2*
X557404D1*
X656492D2*
X665055D1*
X681063D2*
X689701D1*
X764387D2*
X773061D1*
X833458D2*
X842365D1*
X853475D2*
X861977D1*
X893813D2*
X906476D1*
X936728D2*
X944728D1*
X1036727D2*
X1044727D1*
X1104727D2*
X1112727D1*
X438728Y2957602D2*
X445728D1*
X488728D2*
X496728D1*
X548102D2*
X558749D1*
X656100D2*
X664731D1*
X681400D2*
X690056D1*
X763770D2*
X772852D1*
X833969D2*
X842927D1*
X852976D2*
X861478D1*
X894464D2*
X909444D1*
X936728D2*
X944728D1*
X1036727D2*
X1044727D1*
X1104727D2*
X1112727D1*
X438728Y2956602D2*
X445728D1*
X488728D2*
X496728D1*
X548532D2*
X560699D1*
X655754D2*
X664357D1*
X681724D2*
X690397D1*
X762106D2*
X772628D1*
X834475D2*
X843458D1*
X852478D2*
X860977D1*
X895276D2*
X944728D1*
X1036727D2*
X1044727D1*
X1104727D2*
X1112727D1*
X438728Y2955602D2*
X445728D1*
X488728D2*
X496728D1*
X549007D2*
X563115D1*
X655399D2*
X663928D1*
X682098D2*
X690723D1*
X759431D2*
X772307D1*
X834976D2*
X843969D1*
X851977D2*
X860478D1*
X896354D2*
X944728D1*
X1036728D2*
X1044727D1*
X1104728D2*
X1112727D1*
X438728Y2954602D2*
X445728D1*
X488728D2*
X496728D1*
X549564D2*
X576728D1*
X655058D2*
X663492D1*
X682527D2*
X691098D1*
X755795D2*
X771866D1*
X835478D2*
X844475D1*
X851478D2*
X859977D1*
X897665D2*
X944728D1*
X1036728D2*
X1044727D1*
X1104728D2*
X1112727D1*
X438728Y2953602D2*
X445728D1*
X488728D2*
X496728D1*
X550318D2*
X594728D1*
X654736D2*
X663100D1*
X682963D2*
X691527D1*
X730728D2*
X771279D1*
X835977D2*
X844976D1*
X850977D2*
X859478D1*
X899148D2*
X944728D1*
X1036728D2*
X1044728D1*
X1104728D2*
X1112728D1*
X438728Y2952602D2*
X445728D1*
X488728D2*
X496728D1*
X551338D2*
X594728D1*
X654392D2*
X662754D1*
X683355D2*
X691963D1*
X728650D2*
X770521D1*
X836478D2*
X845478D1*
X850470D2*
X858977D1*
X900728D2*
X944728D1*
X1036728D2*
X1044728D1*
X1104728D2*
X1112728D1*
X438728Y2951602D2*
X445728D1*
X488728D2*
X496728D1*
X552516D2*
X594728D1*
X654056D2*
X662399D1*
X683701D2*
X692355D1*
X726831D2*
X769637D1*
X836981D2*
X845980D1*
X849896D2*
X858478D1*
X899266D2*
X944728D1*
X1036728D2*
X1044728D1*
X1104728D2*
X1112728D1*
X438728Y2950602D2*
X445728D1*
X488728D2*
X496728D1*
X553728D2*
X594728D1*
X653735D2*
X662058D1*
X684056D2*
X692701D1*
X725317D2*
X768647D1*
X837513D2*
X846507D1*
X849114D2*
X857977D1*
X897979D2*
X944728D1*
X1036728D2*
X1044728D1*
X1104728D2*
X1112728D1*
X438728Y2949602D2*
X445728D1*
X488728D2*
X496728D1*
X552731D2*
X594728D1*
X653392D2*
X661736D1*
X684397D2*
X693056D1*
X724144D2*
X767464D1*
X838108D2*
X847090D1*
X848014D2*
X857478D1*
X896833D2*
X944728D1*
X1036728D2*
X1044728D1*
X1104728D2*
X1112728D1*
X438728Y2948602D2*
X445728D1*
X488728D2*
X496728D1*
X551767D2*
X594728D1*
X653055D2*
X661392D1*
X684719D2*
X693397D1*
X723274D2*
X765915D1*
X838753D2*
X856977D1*
X895773D2*
X944728D1*
X1036728D2*
X1044728D1*
X1104728D2*
X1112728D1*
X438728Y2947602D2*
X445728D1*
X488728D2*
X496728D1*
X550898D2*
X594728D1*
X652735D2*
X661056D1*
X685063D2*
X693719D1*
X722599D2*
X763936D1*
X839365D2*
X856478D1*
X894786D2*
X906773D1*
X936728D2*
X944728D1*
X1036728D2*
X1044728D1*
X1104728D2*
X1112728D1*
X438728Y2946602D2*
X445728D1*
X488728D2*
X496728D1*
X550173D2*
X578728D1*
X652392D2*
X660735D1*
X685399D2*
X694063D1*
X722027D2*
X761728D1*
X839927D2*
X855977D1*
X893938D2*
X904976D1*
X936728D2*
X944728D1*
X1036728D2*
X1044728D1*
X1104728D2*
X1112728D1*
X438728Y2945602D2*
X445728D1*
X488728D2*
X496728D1*
X549560D2*
X563121D1*
X652055D2*
X660392D1*
X685720D2*
X694399D1*
X721530D2*
X735321D1*
X840458D2*
X855478D1*
X893306D2*
X903509D1*
X936728D2*
X944728D1*
X1036728D2*
X1044728D1*
X1104728D2*
X1112728D1*
X438728Y2944602D2*
X445728D1*
X488728D2*
X496728D1*
X549013D2*
X560951D1*
X651735D2*
X660052D1*
X686059D2*
X694724D1*
X721114D2*
X732602D1*
X840969D2*
X854977D1*
X892839D2*
X902415D1*
X936728D2*
X944728D1*
X1036728D2*
X1044728D1*
X1104728D2*
X1112728D1*
X438728Y2943602D2*
X445728D1*
X488728D2*
X496728D1*
X548525D2*
X559285D1*
X651392D2*
X659692D1*
X686361D2*
X695098D1*
X720758D2*
X730728D1*
X841475D2*
X854478D1*
X892432D2*
X901548D1*
X936728D2*
X944728D1*
X1036728D2*
X1044728D1*
X1104728D2*
X1112728D1*
X438728Y2942602D2*
X445728D1*
X488728D2*
X496728D1*
X548113D2*
X557999D1*
X651055D2*
X659190D1*
X686554D2*
X695527D1*
X720405D2*
X729520D1*
X841976D2*
X853977D1*
X892070D2*
X900814D1*
X936728D2*
X944728D1*
X1036728D2*
X1044728D1*
X1104728D2*
X1112728D1*
X438728Y2941602D2*
X445728D1*
X488728D2*
X496728D1*
X547758D2*
X557021D1*
X650731D2*
X658504D1*
X686659D2*
X695963D1*
X720098D2*
X728732D1*
X842474D2*
X853478D1*
X891740D2*
X900250D1*
X936728D2*
X944728D1*
X1036728D2*
X1044724D1*
X1104728D2*
X1112724D1*
X438728Y2940602D2*
X445728D1*
X488728D2*
X496728D1*
X547404D2*
X556336D1*
X650357D2*
X696355D1*
X719903D2*
X728224D1*
X842938D2*
X852981D1*
X891398D2*
X899817D1*
X936728D2*
X944728D1*
X1036724D2*
X1044688D1*
X1104724D2*
X1112688D1*
X438728Y2939602D2*
X445728D1*
X488728D2*
X496728D1*
X547098D2*
X555850D1*
X649928D2*
X696701D1*
X719802D2*
X727913D1*
X843307D2*
X852517D1*
X891095D2*
X899428D1*
X936728D2*
X944728D1*
X1036688D2*
X1044561D1*
X1104688D2*
X1112561D1*
X438728Y2938602D2*
X445728D1*
X488728D2*
X496728D1*
X546903D2*
X555440D1*
X649492D2*
X697056D1*
X719757D2*
X727653D1*
X843532D2*
X852148D1*
X890902D2*
X899102D1*
X936728D2*
X944728D1*
X1036561D2*
X1044321D1*
X1104561D2*
X1112321D1*
X438728Y2937602D2*
X445728D1*
X488728D2*
X496728D1*
X546802D2*
X555111D1*
X649100D2*
X697397D1*
X719738D2*
X727357D1*
X843645D2*
X851923D1*
X890802D2*
X898867D1*
X936728D2*
X944728D1*
X1036321D2*
X1044065D1*
X1104321D2*
X1112065D1*
X438728Y2936602D2*
X445728D1*
X488728D2*
X496728D1*
X546757D2*
X554907D1*
X648754D2*
X697719D1*
X719731D2*
X727078D1*
X843695D2*
X851810D1*
X890757D2*
X898637D1*
X936728D2*
X944728D1*
X1036065D2*
X1043891D1*
X1104065D2*
X1111891D1*
X438728Y2935602D2*
X445728D1*
X488728D2*
X496728D1*
X546738D2*
X554804D1*
X648399D2*
X698063D1*
X719729D2*
X726895D1*
X843716D2*
X851760D1*
X890738D2*
X898351D1*
X936728D2*
X944728D1*
X1035887D2*
X1043794D1*
X1103887D2*
X1111794D1*
X438728Y2934602D2*
X445728D1*
X488728D2*
X496728D1*
X546731D2*
X554758D1*
X648058D2*
X698399D1*
X719728D2*
X726800D1*
X843723D2*
X851739D1*
X890731D2*
X898076D1*
X936728D2*
X944728D1*
X1035759D2*
X1043716D1*
X1103759D2*
X1111716D1*
X438728Y2933602D2*
X445728D1*
X488728D2*
X496728D1*
X546729D2*
X554739D1*
X647736D2*
X698724D1*
X719728D2*
X726756D1*
X843726D2*
X851732D1*
X890729D2*
X897895D1*
X936728D2*
X944728D1*
X1035589D2*
X1043572D1*
X1103589D2*
X1111572D1*
X438728Y2932602D2*
X445728D1*
X488728D2*
X496728D1*
X546728D2*
X554731D1*
X647392D2*
X699098D1*
X719728D2*
X726738D1*
X843727D2*
X851729D1*
X890728D2*
X897803D1*
X936728D2*
X944728D1*
X1035328D2*
X1043325D1*
X1103328D2*
X1111325D1*
X438728Y2931602D2*
X445728D1*
X488728D2*
X496728D1*
X546728D2*
X554729D1*
X647056D2*
X655573D1*
X690882D2*
X699527D1*
X719728D2*
X726731D1*
X843727D2*
X851728D1*
X890728D2*
X897795D1*
X936728D2*
X944728D1*
X1035030D2*
X1043062D1*
X1103030D2*
X1111062D1*
X438728Y2930602D2*
X445728D1*
X488728D2*
X496728D1*
X546728D2*
X554728D1*
X646735D2*
X655321D1*
X691134D2*
X699963D1*
X719728D2*
X726729D1*
X843727D2*
X851728D1*
X890728D2*
X897905D1*
X936728D2*
X944728D1*
X1034722D2*
X1042852D1*
X1102722D2*
X1110852D1*
X438728Y2929602D2*
X445728D1*
X488728D2*
X496728D1*
X546728D2*
X554728D1*
X646392D2*
X655027D1*
X691428D2*
X700355D1*
X719728D2*
X726728D1*
X843727D2*
X851728D1*
X890728D2*
X898137D1*
X936728D2*
X944728D1*
X1034353D2*
X1042632D1*
X1102353D2*
X1110632D1*
X438728Y2928602D2*
X445731D1*
X488728D2*
X496724D1*
X546728D2*
X554728D1*
X646055D2*
X654724D1*
X691731D2*
X700701D1*
X719728D2*
X726728D1*
X843727D2*
X851728D1*
X890728D2*
X898395D1*
X936728D2*
X944728D1*
X1033923D2*
X1042346D1*
X1101923D2*
X1110346D1*
X438728Y2927602D2*
X445767D1*
X488724D2*
X496688D1*
X546728D2*
X554728D1*
X645735D2*
X654388D1*
X692067D2*
X701056D1*
X719728D2*
X726731D1*
X843728D2*
X851728D1*
X890728D2*
X898604D1*
X936728D2*
X944728D1*
X1033456D2*
X1042037D1*
X1101456D2*
X1110037D1*
X438728Y2926602D2*
X445894D1*
X488688D2*
X496561D1*
X546728D2*
X554728D1*
X645392D2*
X654054D1*
X692401D2*
X701397D1*
X719728D2*
X726767D1*
X843728D2*
X851728D1*
X890731D2*
X898824D1*
X936728D2*
X944728D1*
X1032969D2*
X1041728D1*
X1100969D2*
X1109728D1*
X438728Y2925602D2*
X446134D1*
X488561D2*
X496321D1*
X546728D2*
X554731D1*
X645055D2*
X653735D1*
X692720D2*
X701723D1*
X719728D2*
X726894D1*
X843728D2*
X851728D1*
X890767D2*
X899109D1*
X936728D2*
X944728D1*
X1032471D2*
X1041389D1*
X1100471D2*
X1109389D1*
X438728Y2924602D2*
X446394D1*
X488318D2*
X496065D1*
X546731D2*
X554767D1*
X644735D2*
X653392D1*
X693063D2*
X702098D1*
X719728D2*
X727137D1*
X843728D2*
X851728D1*
X890894D2*
X899422D1*
X936728D2*
X944728D1*
X1031937D2*
X1041055D1*
X1099937D2*
X1109055D1*
X438728Y2923602D2*
X446607D1*
X488022D2*
X495891D1*
X546767D2*
X554898D1*
X644392D2*
X653055D1*
X693400D2*
X702527D1*
X719728D2*
X727433D1*
X843728D2*
X851728D1*
X891137D2*
X899770D1*
X936728D2*
X944728D1*
X1031307D2*
X1040731D1*
X1099307D2*
X1108731D1*
X438731Y2922602D2*
X446867D1*
X487677D2*
X495794D1*
X546894D2*
X555176D1*
X644055D2*
X652735D1*
X693720D2*
X702963D1*
X719731D2*
X727774D1*
X843728D2*
X851728D1*
X891429D2*
X900271D1*
X936728D2*
X944728D1*
X1030532D2*
X1040353D1*
X1098532D2*
X1108353D1*
X438767Y2921602D2*
X447319D1*
X487140D2*
X495716D1*
X547134D2*
X555599D1*
X643731D2*
X652396D1*
X694063D2*
X703355D1*
X719767D2*
X728276D1*
X843728D2*
X851728D1*
X891735D2*
X900985D1*
X936728D2*
X944728D1*
X1029641D2*
X1039889D1*
X1097641D2*
X1107889D1*
X438898Y2920602D2*
X448038D1*
X486268D2*
X495568D1*
X547394D2*
X556188D1*
X643357D2*
X652091D1*
X694400D2*
X703701D1*
X719894D2*
X729020D1*
X843728D2*
X851728D1*
X892102D2*
X901917D1*
X936728D2*
X944728D1*
X1028648D2*
X1039325D1*
X1096648D2*
X1107325D1*
X439173Y2919602D2*
X449048D1*
X485008D2*
X495286D1*
X515728D2*
X525728D1*
X547603D2*
X557021D1*
X642928D2*
X651863D1*
X694720D2*
X704056D1*
X720137D2*
X730041D1*
X843728D2*
X851728D1*
X892532D2*
X903186D1*
X936728D2*
X944728D1*
X1027463D2*
X1038690D1*
X1095463D2*
X1106690D1*
X439560Y2918602D2*
X450382D1*
X483410D2*
X494896D1*
X515728D2*
X526189D1*
X547827D2*
X558233D1*
X642492D2*
X651635D1*
X695063D2*
X704397D1*
X720433D2*
X731383D1*
X843728D2*
X851728D1*
X893003D2*
X904966D1*
X936728D2*
X944728D1*
X1025899D2*
X1038048D1*
X1093899D2*
X1106048D1*
X440013Y2917602D2*
X451994D1*
X481608D2*
X494442D1*
X515728D2*
X526476D1*
X548148D2*
X559985D1*
X642100D2*
X651347D1*
X695400D2*
X704719D1*
X720770D2*
X733019D1*
X843728D2*
X851728D1*
X893525D2*
X907235D1*
X936728D2*
X944728D1*
X1023838D2*
X1037357D1*
X1091838D2*
X1105357D1*
X440529Y2916602D2*
X493926D1*
X515728D2*
X526622D1*
X548589D2*
X562242D1*
X641754D2*
X651037D1*
X695720D2*
X705063D1*
X721233D2*
X734838D1*
X765728D2*
X771728D1*
X843728D2*
X851728D1*
X894150D2*
X944728D1*
X988728D2*
X997728D1*
X1021370D2*
X1036552D1*
X1056728D2*
X1065728D1*
X1089370D2*
X1104552D1*
X441152Y2915602D2*
X493299D1*
X515728D2*
X526686D1*
X549176D2*
X601728D1*
X641399D2*
X650728D1*
X696063D2*
X705399D1*
X721811D2*
X771728D1*
X843728D2*
X851728D1*
X894924D2*
X944728D1*
X988728D2*
X1035653D1*
X1056728D2*
X1103653D1*
X441924Y2914602D2*
X492492D1*
X515728D2*
X526712D1*
X549934D2*
X601769D1*
X641058D2*
X650389D1*
X696400D2*
X705724D1*
X722430D2*
X771728D1*
X843728D2*
X851728D1*
X895814D2*
X944728D1*
X988728D2*
X1034694D1*
X1056728D2*
X1102694D1*
X442818Y2913602D2*
X491474D1*
X515728D2*
X526722D1*
X550818D2*
X601924D1*
X640736D2*
X650055D1*
X696720D2*
X706098D1*
X723149D2*
X771716D1*
X843728D2*
X851728D1*
X896803D2*
X944728D1*
X988735D2*
X1033674D1*
X1056735D2*
X1101674D1*
X443846Y2912602D2*
X490238D1*
X515731D2*
X526722D1*
X551804D2*
X602266D1*
X640392D2*
X649735D1*
X697063D2*
X706527D1*
X724115D2*
X771681D1*
X843728D2*
X851728D1*
X897957D2*
X944728D1*
X988833D2*
X1032514D1*
X1056833D2*
X1100514D1*
X445158Y2911602D2*
X488760D1*
X515769D2*
X526685D1*
X552961D2*
X602728D1*
X640053D2*
X649396D1*
X697403D2*
X706960D1*
X725430D2*
X771239D1*
X843728D2*
X851728D1*
X899431D2*
X944728D1*
X989079D2*
X1031099D1*
X1057079D2*
X1099099D1*
X446955Y2910602D2*
X486881D1*
X515924D2*
X526531D1*
X554473D2*
X600477D1*
X639704D2*
X649092D1*
X697751D2*
X707318D1*
X727161D2*
X768801D1*
X843728D2*
X851728D1*
X901399D2*
X944728D1*
X990517D2*
X1029323D1*
X1058517D2*
X1097323D1*
X449231Y2909602D2*
X484463D1*
X516266D2*
X526189D1*
X556595D2*
X597065D1*
X639257D2*
X648883D1*
X698198D2*
X707555D1*
X729443D2*
X764272D1*
X843728D2*
X851728D1*
X903911D2*
X944728D1*
X994962D2*
X1027023D1*
X1062962D2*
X1095023D1*
X451728Y2908602D2*
X481728D1*
X516728D2*
X525728D1*
X559449D2*
X592265D1*
X638728D2*
X648728D1*
X698728D2*
X707728D1*
X732388D2*
X757545D1*
X843728D2*
X851728D1*
X906728D2*
X944728D1*
X1001308D2*
X1024071D1*
X1069308D2*
X1092071D1*
X562728Y2907602D2*
X586728D1*
X735728D2*
X749728D1*
X1008728D2*
X1020728D1*
X1076728D2*
X1088728D1*
X1012728Y2994602D2*
Y2993602D1*
X1019728Y2994602D2*
X1023916Y2993602D1*
X1027358Y2992602D1*
X1030090Y2991602D1*
X1032279Y2990602D1*
X1034018Y2989602D1*
X1035378Y2988602D1*
X1036435Y2987602D1*
X1037270Y2986602D1*
X1038009Y2985602D1*
X1038714Y2984602D1*
X1039347Y2983602D1*
X1039887Y2982602D1*
X1040325Y2981602D1*
X1040690Y2980602D1*
X1041052Y2979602D1*
X1041396Y2978602D1*
X1041719Y2977602D1*
X1042059Y2976602D1*
X1042364Y2975602D1*
X1042592Y2974602D1*
X1042820Y2973602D1*
X1043104Y2972602D1*
X1043379Y2971602D1*
X1043560Y2970602D1*
X1043660Y2969602D1*
X1043738Y2968602D1*
X1043883Y2967602D1*
X1044130Y2966602D1*
X1044389Y2965602D1*
X1044564Y2964602D1*
X1044657Y2963602D1*
X1044699Y2962602D1*
X1044717Y2961602D1*
X1044724Y2960602D1*
X1044726Y2959602D1*
X1044727Y2958602D1*
Y2957602D1*
Y2956602D1*
Y2955602D1*
Y2954602D1*
X1044728Y2953602D1*
Y2952602D1*
Y2951602D1*
Y2950602D1*
Y2949602D1*
Y2948602D1*
Y2947602D1*
Y2946602D1*
Y2945602D1*
Y2944602D1*
Y2943602D1*
Y2942602D1*
X1044724Y2941602D1*
X1044688Y2940602D1*
X1044561Y2939602D1*
X1044321Y2938602D1*
X1044065Y2937602D1*
X1043891Y2936602D1*
X1043794Y2935602D1*
X1043716Y2934602D1*
X1043572Y2933602D1*
X1043325Y2932602D1*
X1043062Y2931602D1*
X1042852Y2930602D1*
X1042632Y2929602D1*
X1042346Y2928602D1*
X1042037Y2927602D1*
X1041728Y2926602D1*
X1041389Y2925602D1*
X1041055Y2924602D1*
X1040731Y2923602D1*
X1040353Y2922602D1*
X1039889Y2921602D1*
X1039325Y2920602D1*
X1038690Y2919602D1*
X1038048Y2918602D1*
X1037357Y2917602D1*
X1036552Y2916602D1*
X1035653Y2915602D1*
X1034694Y2914602D1*
X1033674Y2913602D1*
X1032514Y2912602D1*
X1031099Y2911602D1*
X1029323Y2910602D1*
X1027023Y2909602D1*
X1024071Y2908602D1*
X1020728Y2907602D1*
X1080728Y2994602D2*
Y2993602D1*
X1087728Y2994602D2*
X1091916Y2993602D1*
X1095358Y2992602D1*
X1098090Y2991602D1*
X1100279Y2990602D1*
X1102018Y2989602D1*
X1103378Y2988602D1*
X1104435Y2987602D1*
X1105270Y2986602D1*
X1106009Y2985602D1*
X1106714Y2984602D1*
X1107347Y2983602D1*
X1107887Y2982602D1*
X1108325Y2981602D1*
X1108690Y2980602D1*
X1109052Y2979602D1*
X1109396Y2978602D1*
X1109719Y2977602D1*
X1110059Y2976602D1*
X1110364Y2975602D1*
X1110592Y2974602D1*
X1110820Y2973602D1*
X1111104Y2972602D1*
X1111379Y2971602D1*
X1111560Y2970602D1*
X1111660Y2969602D1*
X1111738Y2968602D1*
X1111883Y2967602D1*
X1112130Y2966602D1*
X1112389Y2965602D1*
X1112564Y2964602D1*
X1112657Y2963602D1*
X1112699Y2962602D1*
X1112717Y2961602D1*
X1112724Y2960602D1*
X1112726Y2959602D1*
X1112727Y2958602D1*
Y2957602D1*
Y2956602D1*
Y2955602D1*
Y2954602D1*
X1112728Y2953602D1*
Y2952602D1*
Y2951602D1*
Y2950602D1*
Y2949602D1*
Y2948602D1*
Y2947602D1*
Y2946602D1*
Y2945602D1*
Y2944602D1*
Y2943602D1*
Y2942602D1*
X1112724Y2941602D1*
X1112688Y2940602D1*
X1112561Y2939602D1*
X1112321Y2938602D1*
X1112065Y2937602D1*
X1111891Y2936602D1*
X1111794Y2935602D1*
X1111716Y2934602D1*
X1111572Y2933602D1*
X1111325Y2932602D1*
X1111062Y2931602D1*
X1110852Y2930602D1*
X1110632Y2929602D1*
X1110346Y2928602D1*
X1110037Y2927602D1*
X1109728Y2926602D1*
X1109389Y2925602D1*
X1109055Y2924602D1*
X1108731Y2923602D1*
X1108353Y2922602D1*
X1107889Y2921602D1*
X1107325Y2920602D1*
X1106690Y2919602D1*
X1106048Y2918602D1*
X1105357Y2917602D1*
X1104552Y2916602D1*
X1103653Y2915602D1*
X1102694Y2914602D1*
X1101674Y2913602D1*
X1100514Y2912602D1*
X1099099Y2911602D1*
X1097323Y2910602D1*
X1095023Y2909602D1*
X1092071Y2908602D1*
X1088728Y2907602D1*
X454728Y2993602D2*
X451159Y2992602D1*
X448291Y2991602D1*
X446126Y2990602D1*
X444543Y2989602D1*
X443419Y2988602D1*
X442543Y2987602D1*
X441778Y2986602D1*
X441118Y2985602D1*
X440538Y2984602D1*
X440005Y2983602D1*
X439526Y2982602D1*
X439151Y2981602D1*
X438924Y2980602D1*
X438810Y2979602D1*
X438760Y2978602D1*
X438739Y2977602D1*
X438732Y2976602D1*
X438729Y2975602D1*
X438728Y2974602D1*
Y2973602D1*
Y2972602D1*
Y2971602D1*
Y2970602D1*
Y2969602D1*
Y2968602D1*
Y2967602D1*
Y2966602D1*
Y2965602D1*
Y2964602D1*
Y2963602D1*
Y2962602D1*
Y2961602D1*
Y2960602D1*
Y2959602D1*
Y2958602D1*
Y2957602D1*
Y2956602D1*
Y2955602D1*
Y2954602D1*
Y2953602D1*
Y2952602D1*
Y2951602D1*
Y2950602D1*
Y2949602D1*
Y2948602D1*
Y2947602D1*
Y2946602D1*
Y2945602D1*
Y2944602D1*
Y2943602D1*
Y2942602D1*
Y2941602D1*
Y2940602D1*
Y2939602D1*
Y2938602D1*
Y2937602D1*
Y2936602D1*
Y2935602D1*
Y2934602D1*
Y2933602D1*
Y2932602D1*
Y2931602D1*
Y2930602D1*
Y2929602D1*
Y2928602D1*
Y2927602D1*
Y2926602D1*
Y2925602D1*
Y2924602D1*
Y2923602D1*
X438731Y2922602D1*
X438767Y2921602D1*
X438898Y2920602D1*
X439173Y2919602D1*
X439560Y2918602D1*
X440013Y2917602D1*
X440529Y2916602D1*
X441152Y2915602D1*
X441924Y2914602D1*
X442818Y2913602D1*
X443846Y2912602D1*
X445158Y2911602D1*
X446955Y2910602D1*
X449231Y2909602D1*
X451728Y2908602D1*
X478728Y2993602D2*
X482296Y2992602D1*
X485168Y2991602D1*
X487368Y2990602D1*
X489078Y2989602D1*
X490442Y2988602D1*
X491575Y2987602D1*
X492514Y2986602D1*
X493267Y2985602D1*
X493889Y2984602D1*
X494440Y2983602D1*
X494925Y2982602D1*
X495303Y2981602D1*
X495534Y2980602D1*
X495684Y2979602D1*
X495862Y2978602D1*
X496122Y2977602D1*
X496386Y2976602D1*
X496563Y2975602D1*
X496657Y2974602D1*
X496699Y2973602D1*
X496717Y2972602D1*
X496724Y2971602D1*
X496726Y2970602D1*
X496727Y2969602D1*
Y2968602D1*
Y2967602D1*
Y2966602D1*
Y2965602D1*
X496728Y2964602D1*
Y2963602D1*
Y2962602D1*
Y2961602D1*
Y2960602D1*
Y2959602D1*
Y2958602D1*
Y2957602D1*
Y2956602D1*
Y2955602D1*
Y2954602D1*
Y2953602D1*
Y2952602D1*
Y2951602D1*
Y2950602D1*
Y2949602D1*
Y2948602D1*
Y2947602D1*
Y2946602D1*
Y2945602D1*
Y2944602D1*
Y2943602D1*
Y2942602D1*
Y2941602D1*
Y2940602D1*
Y2939602D1*
Y2938602D1*
Y2937602D1*
Y2936602D1*
Y2935602D1*
Y2934602D1*
Y2933602D1*
Y2932602D1*
Y2931602D1*
Y2930602D1*
Y2929602D1*
X496724Y2928602D1*
X496688Y2927602D1*
X496561Y2926602D1*
X496321Y2925602D1*
X496065Y2924602D1*
X495891Y2923602D1*
X495794Y2922602D1*
X495716Y2921602D1*
X495568Y2920602D1*
X495286Y2919602D1*
X494896Y2918602D1*
X494442Y2917602D1*
X493926Y2916602D1*
X493299Y2915602D1*
X492492Y2914602D1*
X491474Y2913602D1*
X490238Y2912602D1*
X488760Y2911602D1*
X486881Y2910602D1*
X484463Y2909602D1*
X481728Y2908602D1*
X561728Y2993602D2*
X559082Y2992602D1*
X556785Y2991602D1*
X554879Y2990602D1*
X553333Y2989602D1*
X552145Y2988602D1*
X551240Y2987602D1*
X550468Y2986602D1*
X549749Y2985602D1*
X549111Y2984602D1*
X548569Y2983602D1*
X548131Y2982602D1*
X547765Y2981602D1*
X547407Y2980602D1*
X547098Y2979602D1*
X546903Y2978602D1*
X546802Y2977602D1*
X546757Y2976602D1*
X546738Y2975602D1*
X546731Y2974602D1*
X546729Y2973602D1*
X546728Y2972602D1*
Y2971602D1*
Y2970602D1*
Y2969602D1*
Y2968602D1*
Y2967602D1*
Y2966602D1*
Y2965602D1*
Y2964602D1*
X546731Y2963602D1*
X546767Y2962602D1*
X546894Y2961602D1*
X547137Y2960602D1*
X547429Y2959602D1*
X547735Y2958602D1*
X548102Y2957602D1*
X548532Y2956602D1*
X549007Y2955602D1*
X549564Y2954602D1*
X550318Y2953602D1*
X551338Y2952602D1*
X552516Y2951602D1*
X553728Y2950602D1*
X552731Y2949602D1*
X551767Y2948602D1*
X550898Y2947602D1*
X550173Y2946602D1*
X549560Y2945602D1*
X549013Y2944602D1*
X548525Y2943602D1*
X548113Y2942602D1*
X547758Y2941602D1*
X547404Y2940602D1*
X547098Y2939602D1*
X546903Y2938602D1*
X546802Y2937602D1*
X546757Y2936602D1*
X546738Y2935602D1*
X546731Y2934602D1*
X546729Y2933602D1*
X546728Y2932602D1*
Y2931602D1*
Y2930602D1*
Y2929602D1*
Y2928602D1*
Y2927602D1*
Y2926602D1*
Y2925602D1*
X546731Y2924602D1*
X546767Y2923602D1*
X546894Y2922602D1*
X547134Y2921602D1*
X547394Y2920602D1*
X547603Y2919602D1*
X547827Y2918602D1*
X548148Y2917602D1*
X548589Y2916602D1*
X549176Y2915602D1*
X549934Y2914602D1*
X550818Y2913602D1*
X551804Y2912602D1*
X552961Y2911602D1*
X554473Y2910602D1*
X556595Y2909602D1*
X559449Y2908602D1*
X562728Y2907602D1*
X588728Y2993602D2*
X593977Y2992602D1*
X597972Y2991602D1*
X600910Y2990602D1*
X602026Y2989602D1*
X602405Y2988602D1*
X602598Y2987602D1*
X602682Y2986602D1*
X602728Y2985602D1*
X668728Y2993602D2*
X668382Y2992602D1*
X668049Y2991602D1*
X667732Y2990602D1*
X667391Y2989602D1*
X667055Y2988602D1*
X666735Y2987602D1*
X666392Y2986602D1*
X666055Y2985602D1*
X665735Y2984602D1*
X665392Y2983602D1*
X665055Y2982602D1*
X664735Y2981602D1*
X664392Y2980602D1*
X664055Y2979602D1*
X663731Y2978602D1*
X663357Y2977602D1*
X662928Y2976602D1*
X662492Y2975602D1*
X662100Y2974602D1*
X661754Y2973602D1*
X661399Y2972602D1*
X661058Y2971602D1*
X660736Y2970602D1*
X660392Y2969602D1*
X660056Y2968602D1*
X659735Y2967602D1*
X659392Y2966602D1*
X659055Y2965602D1*
X658735Y2964602D1*
X658392Y2963602D1*
X658055Y2962602D1*
X657731Y2961602D1*
X657357Y2960602D1*
X656928Y2959602D1*
X656492Y2958602D1*
X656100Y2957602D1*
X655754Y2956602D1*
X655399Y2955602D1*
X655058Y2954602D1*
X654736Y2953602D1*
X654392Y2952602D1*
X654056Y2951602D1*
X653735Y2950602D1*
X653392Y2949602D1*
X653055Y2948602D1*
X652735Y2947602D1*
X652392Y2946602D1*
X652055Y2945602D1*
X651735Y2944602D1*
X651392Y2943602D1*
X651055Y2942602D1*
X650731Y2941602D1*
X650357Y2940602D1*
X649928Y2939602D1*
X649492Y2938602D1*
X649100Y2937602D1*
X648754Y2936602D1*
X648399Y2935602D1*
X648058Y2934602D1*
X647736Y2933602D1*
X647392Y2932602D1*
X647056Y2931602D1*
X646735Y2930602D1*
X646392Y2929602D1*
X646055Y2928602D1*
X645735Y2927602D1*
X645392Y2926602D1*
X645055Y2925602D1*
X644735Y2924602D1*
X644392Y2923602D1*
X644055Y2922602D1*
X643731Y2921602D1*
X643357Y2920602D1*
X642928Y2919602D1*
X642492Y2918602D1*
X642100Y2917602D1*
X641754Y2916602D1*
X641399Y2915602D1*
X641058Y2914602D1*
X640736Y2913602D1*
X640392Y2912602D1*
X640053Y2911602D1*
X639704Y2910602D1*
X639257Y2909602D1*
X638728Y2908602D1*
X676728Y2993602D2*
X677107Y2992602D1*
X677533Y2991602D1*
X677966Y2990602D1*
X678356Y2989602D1*
X678702Y2988602D1*
X679056Y2987602D1*
X679397Y2986602D1*
X679719Y2985602D1*
X680063Y2984602D1*
X680399Y2983602D1*
X680724Y2982602D1*
X681098Y2981602D1*
X681527Y2980602D1*
X681963Y2979602D1*
X682355Y2978602D1*
X682701Y2977602D1*
X683056Y2976602D1*
X683397Y2975602D1*
X683723Y2974602D1*
X684098Y2973602D1*
X684527Y2972602D1*
X684963Y2971602D1*
X685355Y2970602D1*
X685701Y2969602D1*
X686056Y2968602D1*
X686397Y2967602D1*
X686719Y2966602D1*
X687063Y2965602D1*
X687399Y2964602D1*
X687724Y2963602D1*
X688098Y2962602D1*
X688527Y2961602D1*
X688963Y2960602D1*
X689355Y2959602D1*
X689701Y2958602D1*
X690056Y2957602D1*
X690397Y2956602D1*
X690723Y2955602D1*
X691098Y2954602D1*
X691527Y2953602D1*
X691963Y2952602D1*
X692355Y2951602D1*
X692701Y2950602D1*
X693056Y2949602D1*
X693397Y2948602D1*
X693719Y2947602D1*
X694063Y2946602D1*
X694399Y2945602D1*
X694724Y2944602D1*
X695098Y2943602D1*
X695527Y2942602D1*
X695963Y2941602D1*
X696355Y2940602D1*
X696701Y2939602D1*
X697056Y2938602D1*
X697397Y2937602D1*
X697719Y2936602D1*
X698063Y2935602D1*
X698399Y2934602D1*
X698724Y2933602D1*
X699098Y2932602D1*
X699527Y2931602D1*
X699963Y2930602D1*
X700355Y2929602D1*
X700701Y2928602D1*
X701056Y2927602D1*
X701397Y2926602D1*
X701723Y2925602D1*
X702098Y2924602D1*
X702527Y2923602D1*
X702963Y2922602D1*
X703355Y2921602D1*
X703701Y2920602D1*
X704056Y2919602D1*
X704397Y2918602D1*
X704719Y2917602D1*
X705063Y2916602D1*
X705399Y2915602D1*
X705724Y2914602D1*
X706098Y2913602D1*
X706527Y2912602D1*
X706960Y2911602D1*
X707318Y2910602D1*
X707555Y2909602D1*
X707728Y2908602D1*
X738728Y2993602D2*
X730665Y2992602D1*
X722728Y2991602D1*
Y2990602D1*
Y2989602D1*
Y2988602D1*
Y2987602D1*
Y2986602D1*
Y2985602D1*
X759728Y2993602D2*
X762185Y2992602D1*
X764429Y2991602D1*
X766373Y2990602D1*
X767904Y2989602D1*
X769024Y2988602D1*
X769906Y2987602D1*
X770674Y2986602D1*
X771332Y2985602D1*
X771878Y2984602D1*
X772288Y2983602D1*
X772562Y2982602D1*
X772808Y2981602D1*
X773100Y2980602D1*
X773378Y2979602D1*
X773560Y2978602D1*
X773656Y2977602D1*
X773699Y2976602D1*
X773717Y2975602D1*
X773724Y2974602D1*
X773726Y2973602D1*
X773727Y2972602D1*
Y2971602D1*
Y2970602D1*
Y2969602D1*
Y2968602D1*
X773728Y2967602D1*
Y2966602D1*
Y2965602D1*
Y2964602D1*
Y2963602D1*
X773724Y2962602D1*
X773688Y2961602D1*
X773561Y2960602D1*
X773321Y2959602D1*
X773061Y2958602D1*
X772852Y2957602D1*
X772628Y2956602D1*
X772307Y2955602D1*
X771866Y2954602D1*
X771279Y2953602D1*
X770521Y2952602D1*
X769637Y2951602D1*
X768647Y2950602D1*
X767464Y2949602D1*
X765915Y2948602D1*
X763936Y2947602D1*
X761728Y2946602D1*
X814728Y2993602D2*
X815111Y2992602D1*
X815572Y2991602D1*
X816133Y2990602D1*
X816762Y2989602D1*
X817368Y2988602D1*
X817928Y2987602D1*
X818458Y2986602D1*
X818970Y2985602D1*
X819475Y2984602D1*
X819976Y2983602D1*
X820478Y2982602D1*
X820977Y2981602D1*
X821478Y2980602D1*
X821981Y2979602D1*
X822513Y2978602D1*
X823108Y2977602D1*
X823753Y2976602D1*
X824365Y2975602D1*
X824927Y2974602D1*
X825458Y2973602D1*
X825969Y2972602D1*
X826475Y2971602D1*
X826976Y2970602D1*
X827478Y2969602D1*
X827977Y2968602D1*
X828478Y2967602D1*
X828977Y2966602D1*
X829478Y2965602D1*
X829981Y2964602D1*
X830513Y2963602D1*
X831108Y2962602D1*
X831753Y2961602D1*
X832365Y2960602D1*
X832927Y2959602D1*
X833458Y2958602D1*
X833969Y2957602D1*
X834475Y2956602D1*
X834976Y2955602D1*
X835478Y2954602D1*
X835977Y2953602D1*
X836478Y2952602D1*
X836981Y2951602D1*
X837513Y2950602D1*
X838108Y2949602D1*
X838753Y2948602D1*
X839365Y2947602D1*
X839927Y2946602D1*
X840458Y2945602D1*
X840969Y2944602D1*
X841475Y2943602D1*
X841976Y2942602D1*
X842474Y2941602D1*
X842938Y2940602D1*
X843307Y2939602D1*
X843532Y2938602D1*
X843645Y2937602D1*
X843695Y2936602D1*
X843716Y2935602D1*
X843723Y2934602D1*
X843726Y2933602D1*
X843727Y2932602D1*
Y2931602D1*
Y2930602D1*
Y2929602D1*
Y2928602D1*
X843728Y2927602D1*
Y2926602D1*
Y2925602D1*
Y2924602D1*
Y2923602D1*
Y2922602D1*
Y2921602D1*
Y2920602D1*
Y2919602D1*
Y2918602D1*
Y2917602D1*
Y2916602D1*
Y2915602D1*
Y2914602D1*
Y2913602D1*
Y2912602D1*
Y2911602D1*
Y2910602D1*
Y2909602D1*
Y2908602D1*
X822728Y2993602D2*
X823569Y2992602D1*
X824286Y2991602D1*
X824896Y2990602D1*
X825446Y2989602D1*
X825965Y2988602D1*
X826474Y2987602D1*
X826980Y2986602D1*
X827513Y2985602D1*
X828108Y2984602D1*
X828753Y2983602D1*
X829365Y2982602D1*
X829927Y2981602D1*
X830458Y2980602D1*
X830969Y2979602D1*
X831475Y2978602D1*
X831976Y2977602D1*
X832478Y2976602D1*
X832977Y2975602D1*
X833478Y2974602D1*
X833981Y2973602D1*
X834513Y2972602D1*
X835108Y2971602D1*
X835753Y2970602D1*
X836365Y2969602D1*
X836927Y2968602D1*
X837458Y2967602D1*
X837969Y2966602D1*
X838475Y2965602D1*
X838976Y2964602D1*
X839478Y2963602D1*
X839981Y2962602D1*
X840513Y2961602D1*
X841108Y2960602D1*
X841753Y2959602D1*
X842365Y2958602D1*
X842927Y2957602D1*
X843458Y2956602D1*
X843969Y2955602D1*
X844475Y2954602D1*
X844976Y2953602D1*
X845478Y2952602D1*
X845980Y2951602D1*
X846507Y2950602D1*
X847090Y2949602D1*
X847728Y2948602D1*
X870728Y2993602D2*
X870107Y2992602D1*
X869537Y2991602D1*
X869002Y2990602D1*
X868487Y2989602D1*
X867981Y2988602D1*
X867479Y2987602D1*
X866978Y2986602D1*
X866478Y2985602D1*
X865977Y2984602D1*
X865478Y2983602D1*
X864977Y2982602D1*
X864478Y2981602D1*
X863977Y2980602D1*
X863478Y2979602D1*
X862977Y2978602D1*
X862478Y2977602D1*
X861977Y2976602D1*
X861478Y2975602D1*
X860977Y2974602D1*
X860478Y2973602D1*
X859977Y2972602D1*
X859478Y2971602D1*
X858977Y2970602D1*
X858478Y2969602D1*
X857977Y2968602D1*
X857478Y2967602D1*
X856981Y2966602D1*
X856513Y2965602D1*
X856108Y2964602D1*
X855753Y2963602D1*
X855365Y2962602D1*
X854927Y2961602D1*
X854458Y2960602D1*
X853969Y2959602D1*
X853475Y2958602D1*
X852976Y2957602D1*
X852478Y2956602D1*
X851977Y2955602D1*
X851478Y2954602D1*
X850977Y2953602D1*
X850470Y2952602D1*
X849896Y2951602D1*
X849114Y2950602D1*
X848014Y2949602D1*
X846728Y2948602D1*
X878728Y2993602D2*
X878348Y2992602D1*
X877918Y2991602D1*
X877453Y2990602D1*
X876968Y2989602D1*
X876474Y2988602D1*
X875976Y2987602D1*
X875477Y2986602D1*
X874977Y2985602D1*
X874478Y2984602D1*
X873981Y2983602D1*
X873513Y2982602D1*
X873108Y2981602D1*
X872753Y2980602D1*
X872365Y2979602D1*
X871927Y2978602D1*
X871458Y2977602D1*
X870969Y2976602D1*
X870475Y2975602D1*
X869976Y2974602D1*
X869478Y2973602D1*
X868977Y2972602D1*
X868478Y2971602D1*
X867977Y2970602D1*
X867478Y2969602D1*
X866977Y2968602D1*
X866478Y2967602D1*
X865977Y2966602D1*
X865478Y2965602D1*
X864977Y2964602D1*
X864478Y2963602D1*
X863977Y2962602D1*
X863478Y2961602D1*
X862977Y2960602D1*
X862478Y2959602D1*
X861977Y2958602D1*
X861478Y2957602D1*
X860977Y2956602D1*
X860478Y2955602D1*
X859977Y2954602D1*
X859478Y2953602D1*
X858977Y2952602D1*
X858478Y2951602D1*
X857977Y2950602D1*
X857478Y2949602D1*
X856977Y2948602D1*
X856478Y2947602D1*
X855977Y2946602D1*
X855478Y2945602D1*
X854977Y2944602D1*
X854478Y2943602D1*
X853977Y2942602D1*
X853478Y2941602D1*
X852981Y2940602D1*
X852517Y2939602D1*
X852148Y2938602D1*
X851923Y2937602D1*
X851810Y2936602D1*
X851760Y2935602D1*
X851739Y2934602D1*
X851732Y2933602D1*
X851729Y2932602D1*
X851728Y2931602D1*
Y2930602D1*
Y2929602D1*
Y2928602D1*
Y2927602D1*
Y2926602D1*
Y2925602D1*
Y2924602D1*
Y2923602D1*
Y2922602D1*
Y2921602D1*
Y2920602D1*
Y2919602D1*
Y2918602D1*
Y2917602D1*
Y2916602D1*
Y2915602D1*
Y2914602D1*
Y2913602D1*
Y2912602D1*
Y2911602D1*
Y2910602D1*
Y2909602D1*
Y2908602D1*
X909728Y2993602D2*
X906043Y2992602D1*
X903051Y2991602D1*
X900831Y2990602D1*
X899203Y2989602D1*
X897921Y2988602D1*
X896838Y2987602D1*
X895923Y2986602D1*
X895181Y2985602D1*
X894563Y2984602D1*
X894010Y2983602D1*
X893490Y2982602D1*
X892985Y2981602D1*
X892515Y2980602D1*
X892109Y2979602D1*
X891757Y2978602D1*
X891404Y2977602D1*
X891097Y2976602D1*
X890903Y2975602D1*
X890802Y2974602D1*
X890757Y2973602D1*
X890738Y2972602D1*
X890731Y2971602D1*
X890729Y2970602D1*
X890728Y2969602D1*
X890732Y2968602D1*
X890767Y2967602D1*
X890894Y2966602D1*
X891137Y2965602D1*
X891429Y2964602D1*
X891731Y2963602D1*
X892067Y2962602D1*
X892405Y2961602D1*
X892759Y2960602D1*
X893230Y2959602D1*
X893813Y2958602D1*
X894464Y2957602D1*
X895276Y2956602D1*
X896354Y2955602D1*
X897665Y2954602D1*
X899148Y2953602D1*
X900728Y2952602D1*
X899266Y2951602D1*
X897979Y2950602D1*
X896833Y2949602D1*
X895773Y2948602D1*
X894786Y2947602D1*
X893938Y2946602D1*
X893306Y2945602D1*
X892839Y2944602D1*
X892432Y2943602D1*
X892070Y2942602D1*
X891740Y2941602D1*
X891398Y2940602D1*
X891095Y2939602D1*
X890902Y2938602D1*
X890802Y2937602D1*
X890757Y2936602D1*
X890738Y2935602D1*
X890731Y2934602D1*
X890729Y2933602D1*
X890728Y2932602D1*
Y2931602D1*
Y2930602D1*
Y2929602D1*
Y2928602D1*
Y2927602D1*
X890731Y2926602D1*
X890767Y2925602D1*
X890894Y2924602D1*
X891137Y2923602D1*
X891429Y2922602D1*
X891735Y2921602D1*
X892102Y2920602D1*
X892532Y2919602D1*
X893003Y2918602D1*
X893525Y2917602D1*
X894150Y2916602D1*
X894924Y2915602D1*
X895814Y2914602D1*
X896803Y2913602D1*
X897957Y2912602D1*
X899431Y2911602D1*
X901399Y2910602D1*
X903911Y2909602D1*
X906728Y2908602D1*
X944728Y2993602D2*
Y2992602D1*
Y2991602D1*
Y2990602D1*
Y2989602D1*
Y2988602D1*
Y2987602D1*
Y2986602D1*
Y2985602D1*
Y2984602D1*
Y2983602D1*
Y2982602D1*
Y2981602D1*
Y2980602D1*
Y2979602D1*
Y2978602D1*
Y2977602D1*
Y2976602D1*
Y2975602D1*
Y2974602D1*
Y2973602D1*
Y2972602D1*
Y2971602D1*
Y2970602D1*
Y2969602D1*
Y2968602D1*
Y2967602D1*
Y2966602D1*
Y2965602D1*
Y2964602D1*
Y2963602D1*
Y2962602D1*
Y2961602D1*
Y2960602D1*
Y2959602D1*
Y2958602D1*
Y2957602D1*
Y2956602D1*
Y2955602D1*
Y2954602D1*
Y2953602D1*
Y2952602D1*
Y2951602D1*
Y2950602D1*
Y2949602D1*
Y2948602D1*
Y2947602D1*
Y2946602D1*
Y2945602D1*
Y2944602D1*
Y2943602D1*
Y2942602D1*
Y2941602D1*
Y2940602D1*
Y2939602D1*
Y2938602D1*
Y2937602D1*
Y2936602D1*
Y2935602D1*
Y2934602D1*
Y2933602D1*
Y2932602D1*
Y2931602D1*
Y2930602D1*
Y2929602D1*
Y2928602D1*
Y2927602D1*
Y2926602D1*
Y2925602D1*
Y2924602D1*
Y2923602D1*
Y2922602D1*
Y2921602D1*
Y2920602D1*
Y2919602D1*
Y2918602D1*
Y2917602D1*
Y2916602D1*
Y2915602D1*
Y2914602D1*
Y2913602D1*
Y2912602D1*
Y2911602D1*
Y2910602D1*
Y2909602D1*
Y2908602D1*
X1000728Y2993602D2*
X994665Y2992602D1*
X988728Y2991602D1*
Y2990602D1*
Y2989602D1*
Y2988602D1*
Y2987602D1*
Y2986602D1*
Y2985602D1*
X1068728Y2993602D2*
X1062665Y2992602D1*
X1056728Y2991602D1*
Y2990602D1*
Y2989602D1*
Y2988602D1*
Y2987602D1*
Y2986602D1*
Y2985602D1*
X746728Y2986602D2*
X745728Y2985602D1*
X752728Y2986602D2*
X756292Y2985602D1*
X759291Y2984602D1*
X761519Y2983602D1*
X763050Y2982602D1*
X764076Y2981602D1*
X764779Y2980602D1*
X765248Y2979602D1*
X765511Y2978602D1*
X765638Y2977602D1*
X765693Y2976602D1*
X765715Y2975602D1*
X765723Y2974602D1*
X765726Y2973602D1*
X765727Y2972602D1*
Y2971602D1*
Y2970602D1*
Y2969602D1*
Y2968602D1*
X765728Y2967602D1*
Y2966602D1*
Y2965602D1*
Y2964602D1*
X765724Y2963602D1*
X765688Y2962602D1*
X765557Y2961602D1*
X765282Y2960602D1*
X764891Y2959602D1*
X764387Y2958602D1*
X763770Y2957602D1*
X762106Y2956602D1*
X759431Y2955602D1*
X755795Y2954602D1*
X751728Y2953602D1*
X1002728Y2986602D2*
X1001728Y2985602D1*
X1018728Y2986602D2*
X1022292Y2985602D1*
X1025295Y2984602D1*
X1027558Y2983602D1*
X1029217Y2982602D1*
X1030485Y2981602D1*
X1031481Y2980602D1*
X1032255Y2979602D1*
X1032885Y2978602D1*
X1033439Y2977602D1*
X1033929Y2976602D1*
X1034342Y2975602D1*
X1034697Y2974602D1*
X1035051Y2973602D1*
X1035357Y2972602D1*
X1035556Y2971602D1*
X1035692Y2970602D1*
X1035865Y2969602D1*
X1036123Y2968602D1*
X1036386Y2967602D1*
X1036563Y2966602D1*
X1036657Y2965602D1*
X1036699Y2964602D1*
X1036717Y2963602D1*
X1036724Y2962602D1*
X1036726Y2961602D1*
X1036727Y2960602D1*
Y2959602D1*
Y2958602D1*
Y2957602D1*
Y2956602D1*
X1036728Y2955602D1*
Y2954602D1*
Y2953602D1*
Y2952602D1*
Y2951602D1*
Y2950602D1*
Y2949602D1*
Y2948602D1*
Y2947602D1*
Y2946602D1*
Y2945602D1*
Y2944602D1*
Y2943602D1*
Y2942602D1*
Y2941602D1*
X1036724Y2940602D1*
X1036688Y2939602D1*
X1036561Y2938602D1*
X1036321Y2937602D1*
X1036065Y2936602D1*
X1035887Y2935602D1*
X1035759Y2934602D1*
X1035589Y2933602D1*
X1035328Y2932602D1*
X1035030Y2931602D1*
X1034722Y2930602D1*
X1034353Y2929602D1*
X1033923Y2928602D1*
X1033456Y2927602D1*
X1032969Y2926602D1*
X1032471Y2925602D1*
X1031937Y2924602D1*
X1031307Y2923602D1*
X1030532Y2922602D1*
X1029641Y2921602D1*
X1028648Y2920602D1*
X1027463Y2919602D1*
X1025899Y2918602D1*
X1023838Y2917602D1*
X1021370Y2916602D1*
X1018728Y2915602D1*
X1070728Y2986602D2*
X1069728Y2985602D1*
X1086728Y2986602D2*
X1090292Y2985602D1*
X1093295Y2984602D1*
X1095558Y2983602D1*
X1097217Y2982602D1*
X1098485Y2981602D1*
X1099481Y2980602D1*
X1100255Y2979602D1*
X1100885Y2978602D1*
X1101439Y2977602D1*
X1101929Y2976602D1*
X1102342Y2975602D1*
X1102697Y2974602D1*
X1103051Y2973602D1*
X1103357Y2972602D1*
X1103556Y2971602D1*
X1103692Y2970602D1*
X1103865Y2969602D1*
X1104123Y2968602D1*
X1104386Y2967602D1*
X1104563Y2966602D1*
X1104657Y2965602D1*
X1104699Y2964602D1*
X1104717Y2963602D1*
X1104724Y2962602D1*
X1104726Y2961602D1*
X1104727Y2960602D1*
Y2959602D1*
Y2958602D1*
Y2957602D1*
Y2956602D1*
X1104728Y2955602D1*
Y2954602D1*
Y2953602D1*
Y2952602D1*
Y2951602D1*
Y2950602D1*
Y2949602D1*
Y2948602D1*
Y2947602D1*
Y2946602D1*
Y2945602D1*
Y2944602D1*
Y2943602D1*
Y2942602D1*
Y2941602D1*
X1104724Y2940602D1*
X1104688Y2939602D1*
X1104561Y2938602D1*
X1104321Y2937602D1*
X1104065Y2936602D1*
X1103887Y2935602D1*
X1103759Y2934602D1*
X1103589Y2933602D1*
X1103328Y2932602D1*
X1103030Y2931602D1*
X1102722Y2930602D1*
X1102353Y2929602D1*
X1101923Y2928602D1*
X1101456Y2927602D1*
X1100969Y2926602D1*
X1100471Y2925602D1*
X1099937Y2924602D1*
X1099307Y2923602D1*
X1098532Y2922602D1*
X1097641Y2921602D1*
X1096648Y2920602D1*
X1095463Y2919602D1*
X1093899Y2918602D1*
X1091838Y2917602D1*
X1089370Y2916602D1*
X1086728Y2915602D1*
X454728Y2985602D2*
X452773Y2984602D1*
X450976Y2983602D1*
X449513Y2982602D1*
X448454Y2981602D1*
X447710Y2980602D1*
X447185Y2979602D1*
X446785Y2978602D1*
X446414Y2977602D1*
X446101Y2976602D1*
X445904Y2975602D1*
X445803Y2974602D1*
X445757Y2973602D1*
X445739Y2972602D1*
X445731Y2971602D1*
X445729Y2970602D1*
X445728Y2969602D1*
Y2968602D1*
Y2967602D1*
Y2966602D1*
Y2965602D1*
Y2964602D1*
Y2963602D1*
Y2962602D1*
Y2961602D1*
Y2960602D1*
Y2959602D1*
Y2958602D1*
Y2957602D1*
Y2956602D1*
Y2955602D1*
Y2954602D1*
Y2953602D1*
Y2952602D1*
Y2951602D1*
Y2950602D1*
Y2949602D1*
Y2948602D1*
Y2947602D1*
Y2946602D1*
Y2945602D1*
Y2944602D1*
Y2943602D1*
Y2942602D1*
Y2941602D1*
Y2940602D1*
Y2939602D1*
Y2938602D1*
Y2937602D1*
Y2936602D1*
Y2935602D1*
Y2934602D1*
Y2933602D1*
Y2932602D1*
Y2931602D1*
Y2930602D1*
Y2929602D1*
X445731Y2928602D1*
X445767Y2927602D1*
X445894Y2926602D1*
X446134Y2925602D1*
X446394Y2924602D1*
X446607Y2923602D1*
X446867Y2922602D1*
X447319Y2921602D1*
X448038Y2920602D1*
X449048Y2919602D1*
X450382Y2918602D1*
X451994Y2917602D1*
X453728Y2916602D1*
X477728Y2985602D2*
X480451Y2984602D1*
X482740Y2983602D1*
X484425Y2982602D1*
X485630Y2981602D1*
X486526Y2980602D1*
X487161Y2979602D1*
X487622Y2978602D1*
X488022Y2977602D1*
X488347Y2976602D1*
X488549Y2975602D1*
X488652Y2974602D1*
X488698Y2973602D1*
X488716Y2972602D1*
X488724Y2971602D1*
X488726Y2970602D1*
X488727Y2969602D1*
Y2968602D1*
Y2967602D1*
Y2966602D1*
Y2965602D1*
X488728Y2964602D1*
Y2963602D1*
Y2962602D1*
Y2961602D1*
Y2960602D1*
Y2959602D1*
Y2958602D1*
Y2957602D1*
Y2956602D1*
Y2955602D1*
Y2954602D1*
Y2953602D1*
Y2952602D1*
Y2951602D1*
Y2950602D1*
Y2949602D1*
Y2948602D1*
Y2947602D1*
Y2946602D1*
Y2945602D1*
Y2944602D1*
Y2943602D1*
Y2942602D1*
Y2941602D1*
Y2940602D1*
Y2939602D1*
Y2938602D1*
Y2937602D1*
Y2936602D1*
Y2935602D1*
Y2934602D1*
Y2933602D1*
Y2932602D1*
Y2931602D1*
Y2930602D1*
Y2929602D1*
Y2928602D1*
X488724Y2927602D1*
X488688Y2926602D1*
X488561Y2925602D1*
X488318Y2924602D1*
X488022Y2923602D1*
X487677Y2922602D1*
X487140Y2921602D1*
X486268Y2920602D1*
X485008Y2919602D1*
X483410Y2918602D1*
X481608Y2917602D1*
X479728Y2916602D1*
X563728Y2985602D2*
X561769Y2984602D1*
X559941Y2983602D1*
X558382Y2982602D1*
X557176Y2981602D1*
X556291Y2980602D1*
X555644Y2979602D1*
X555196Y2978602D1*
X554941Y2977602D1*
X554816Y2976602D1*
X554762Y2975602D1*
X554740Y2974602D1*
X554732Y2973602D1*
X554729Y2972602D1*
X554728Y2971602D1*
Y2970602D1*
Y2969602D1*
Y2968602D1*
Y2967602D1*
Y2966602D1*
X554731Y2965602D1*
X554767Y2964602D1*
X554898Y2963602D1*
X555173Y2962602D1*
X555560Y2961602D1*
X556017Y2960602D1*
X556576Y2959602D1*
X557404Y2958602D1*
X558749Y2957602D1*
X560699Y2956602D1*
X563115Y2955602D1*
X565728Y2954602D1*
X910728Y2985602D2*
X907966Y2984602D1*
X905552Y2983602D1*
X903659Y2982602D1*
X902290Y2981602D1*
X901331Y2980602D1*
X900621Y2979602D1*
X900035Y2978602D1*
X899537Y2977602D1*
X899154Y2976602D1*
X898925Y2975602D1*
X898811Y2974602D1*
X898760Y2973602D1*
X898740Y2972602D1*
X898732Y2971602D1*
X898729Y2970602D1*
X898732Y2969602D1*
X898767Y2968602D1*
X898894Y2967602D1*
X899137Y2966602D1*
X899433Y2965602D1*
X899770Y2964602D1*
X900237Y2963602D1*
X900850Y2962602D1*
X901604Y2961602D1*
X902640Y2960602D1*
X904196Y2959602D1*
X906476Y2958602D1*
X909444Y2957602D1*
X912728Y2956602D1*
X936728Y2985602D2*
Y2984602D1*
Y2983602D1*
Y2982602D1*
Y2981602D1*
Y2980602D1*
Y2979602D1*
Y2978602D1*
Y2977602D1*
Y2976602D1*
Y2975602D1*
Y2974602D1*
Y2973602D1*
Y2972602D1*
Y2971602D1*
Y2970602D1*
Y2969602D1*
Y2968602D1*
Y2967602D1*
Y2966602D1*
Y2965602D1*
Y2964602D1*
Y2963602D1*
Y2962602D1*
Y2961602D1*
Y2960602D1*
Y2959602D1*
Y2958602D1*
Y2957602D1*
Y2956602D1*
X671728Y2980602D2*
X671689Y2979602D1*
X671561Y2978602D1*
X671318Y2977602D1*
X671026Y2976602D1*
X670724Y2975602D1*
X670388Y2974602D1*
X670054Y2973602D1*
X669735Y2972602D1*
X669392Y2971602D1*
X669055Y2970602D1*
X668735Y2969602D1*
X668392Y2968602D1*
X668055Y2967602D1*
X667735Y2966602D1*
X667392Y2965602D1*
X667055Y2964602D1*
X666735Y2963602D1*
X666392Y2962602D1*
X666055Y2961602D1*
X665735Y2960602D1*
X665392Y2959602D1*
X665055Y2958602D1*
X664731Y2957602D1*
X664357Y2956602D1*
X663928Y2955602D1*
X663492Y2954602D1*
X663100Y2953602D1*
X662754Y2952602D1*
X662399Y2951602D1*
X662058Y2950602D1*
X661736Y2949602D1*
X661392Y2948602D1*
X661056Y2947602D1*
X660735Y2946602D1*
X660392Y2945602D1*
X660052Y2944602D1*
X659692Y2943602D1*
X659190Y2942602D1*
X658504Y2941602D1*
X657728Y2940602D1*
X673728Y2980602D2*
X673882Y2979602D1*
X674134Y2978602D1*
X674428Y2977602D1*
X674731Y2976602D1*
X675067Y2975602D1*
X675401Y2974602D1*
X675724Y2973602D1*
X676098Y2972602D1*
X676527Y2971602D1*
X676963Y2970602D1*
X677355Y2969602D1*
X677701Y2968602D1*
X678056Y2967602D1*
X678397Y2966602D1*
X678719Y2965602D1*
X679063Y2964602D1*
X679399Y2963602D1*
X679720Y2962602D1*
X680063Y2961602D1*
X680400Y2960602D1*
X680720Y2959602D1*
X681063Y2958602D1*
X681400Y2957602D1*
X681724Y2956602D1*
X682098Y2955602D1*
X682527Y2954602D1*
X682963Y2953602D1*
X683355Y2952602D1*
X683701Y2951602D1*
X684056Y2950602D1*
X684397Y2949602D1*
X684719Y2948602D1*
X685063Y2947602D1*
X685399Y2946602D1*
X685720Y2945602D1*
X686059Y2944602D1*
X686361Y2943602D1*
X686554Y2942602D1*
X686659Y2941602D1*
X686728Y2940602D1*
X576728Y2954602D2*
Y2953602D1*
X594728D2*
Y2952602D1*
Y2951602D1*
Y2950602D1*
Y2949602D1*
Y2948602D1*
Y2947602D1*
X730728Y2953602D2*
X728650Y2952602D1*
X726831Y2951602D1*
X725317Y2950602D1*
X724144Y2949602D1*
X723274Y2948602D1*
X722599Y2947602D1*
X722027Y2946602D1*
X721530Y2945602D1*
X721114Y2944602D1*
X720758Y2943602D1*
X720405Y2942602D1*
X720098Y2941602D1*
X719903Y2940602D1*
X719802Y2939602D1*
X719757Y2938602D1*
X719738Y2937602D1*
X719731Y2936602D1*
X719729Y2935602D1*
X719728Y2934602D1*
Y2933602D1*
Y2932602D1*
Y2931602D1*
Y2930602D1*
Y2929602D1*
Y2928602D1*
Y2927602D1*
Y2926602D1*
Y2925602D1*
Y2924602D1*
Y2923602D1*
X719731Y2922602D1*
X719767Y2921602D1*
X719894Y2920602D1*
X720137Y2919602D1*
X720433Y2918602D1*
X720770Y2917602D1*
X721233Y2916602D1*
X721811Y2915602D1*
X722430Y2914602D1*
X723149Y2913602D1*
X724115Y2912602D1*
X725430Y2911602D1*
X727161Y2910602D1*
X729443Y2909602D1*
X732388Y2908602D1*
X735728Y2907602D1*
X908728Y2948602D2*
X906773Y2947602D1*
X904976Y2946602D1*
X903509Y2945602D1*
X902415Y2944602D1*
X901548Y2943602D1*
X900814Y2942602D1*
X900250Y2941602D1*
X899817Y2940602D1*
X899428Y2939602D1*
X899102Y2938602D1*
X898867Y2937602D1*
X898637Y2936602D1*
X898351Y2935602D1*
X898076Y2934602D1*
X897895Y2933602D1*
X897803Y2932602D1*
X897795Y2931602D1*
X897905Y2930602D1*
X898137Y2929602D1*
X898395Y2928602D1*
X898604Y2927602D1*
X898824Y2926602D1*
X899109Y2925602D1*
X899422Y2924602D1*
X899770Y2923602D1*
X900271Y2922602D1*
X900985Y2921602D1*
X901917Y2920602D1*
X903186Y2919602D1*
X904966Y2918602D1*
X907235Y2917602D1*
X909728Y2916602D1*
X936728Y2948602D2*
Y2947602D1*
Y2946602D1*
Y2945602D1*
Y2944602D1*
Y2943602D1*
Y2942602D1*
Y2941602D1*
Y2940602D1*
Y2939602D1*
Y2938602D1*
Y2937602D1*
Y2936602D1*
Y2935602D1*
Y2934602D1*
Y2933602D1*
Y2932602D1*
Y2931602D1*
Y2930602D1*
Y2929602D1*
Y2928602D1*
Y2927602D1*
Y2926602D1*
Y2925602D1*
Y2924602D1*
Y2923602D1*
Y2922602D1*
Y2921602D1*
Y2920602D1*
Y2919602D1*
Y2918602D1*
Y2917602D1*
Y2916602D1*
X579728Y2947602D2*
X578728Y2946602D1*
X565728D2*
X563121Y2945602D1*
X560951Y2944602D1*
X559285Y2943602D1*
X557999Y2942602D1*
X557021Y2941602D1*
X556336Y2940602D1*
X555850Y2939602D1*
X555440Y2938602D1*
X555111Y2937602D1*
X554907Y2936602D1*
X554804Y2935602D1*
X554758Y2934602D1*
X554739Y2933602D1*
X554731Y2932602D1*
X554729Y2931602D1*
X554728Y2930602D1*
Y2929602D1*
Y2928602D1*
Y2927602D1*
Y2926602D1*
X554731Y2925602D1*
X554767Y2924602D1*
X554898Y2923602D1*
X555176Y2922602D1*
X555599Y2921602D1*
X556188Y2920602D1*
X557021Y2919602D1*
X558233Y2918602D1*
X559985Y2917602D1*
X562242Y2916602D1*
X564728Y2915602D1*
X738728Y2946602D2*
X735321Y2945602D1*
X732602Y2944602D1*
X730728Y2943602D1*
X729520Y2942602D1*
X728732Y2941602D1*
X728224Y2940602D1*
X727913Y2939602D1*
X727653Y2938602D1*
X727357Y2937602D1*
X727078Y2936602D1*
X726895Y2935602D1*
X726800Y2934602D1*
X726756Y2933602D1*
X726738Y2932602D1*
X726731Y2931602D1*
X726729Y2930602D1*
X726728Y2929602D1*
Y2928602D1*
X726731Y2927602D1*
X726767Y2926602D1*
X726894Y2925602D1*
X727137Y2924602D1*
X727433Y2923602D1*
X727774Y2922602D1*
X728276Y2921602D1*
X729020Y2920602D1*
X730041Y2919602D1*
X731383Y2918602D1*
X733019Y2917602D1*
X734838Y2916602D1*
X736728Y2915602D1*
X655728Y2932602D2*
X655573Y2931602D1*
X655321Y2930602D1*
X655027Y2929602D1*
X654724Y2928602D1*
X654388Y2927602D1*
X654054Y2926602D1*
X653735Y2925602D1*
X653392Y2924602D1*
X653055Y2923602D1*
X652735Y2922602D1*
X652396Y2921602D1*
X652091Y2920602D1*
X651863Y2919602D1*
X651635Y2918602D1*
X651347Y2917602D1*
X651037Y2916602D1*
X650728Y2915602D1*
X650389Y2914602D1*
X650055Y2913602D1*
X649735Y2912602D1*
X649396Y2911602D1*
X649092Y2910602D1*
X648883Y2909602D1*
X648728Y2908602D1*
X690728Y2932602D2*
X690882Y2931602D1*
X691134Y2930602D1*
X691428Y2929602D1*
X691731Y2928602D1*
X692067Y2927602D1*
X692401Y2926602D1*
X692720Y2925602D1*
X693063Y2924602D1*
X693400Y2923602D1*
X693720Y2922602D1*
X694063Y2921602D1*
X694400Y2920602D1*
X694720Y2919602D1*
X695063Y2918602D1*
X695400Y2917602D1*
X695720Y2916602D1*
X696063Y2915602D1*
X696400Y2914602D1*
X696720Y2913602D1*
X697063Y2912602D1*
X697403Y2911602D1*
X697751Y2910602D1*
X698198Y2909602D1*
X698728Y2908602D1*
X515728Y2919602D2*
Y2918602D1*
Y2917602D1*
Y2916602D1*
Y2915602D1*
Y2914602D1*
Y2913602D1*
X515731Y2912602D1*
X515769Y2911602D1*
X515924Y2910602D1*
X516266Y2909602D1*
X516728Y2908602D1*
X525728Y2919602D2*
X526189Y2918602D1*
X526476Y2917602D1*
X526622Y2916602D1*
X526686Y2915602D1*
X526712Y2914602D1*
X526722Y2913602D1*
Y2912602D1*
X526685Y2911602D1*
X526531Y2910602D1*
X526189Y2909602D1*
X525728Y2908602D1*
X765728Y2916602D2*
Y2915602D1*
X771728Y2916602D2*
Y2915602D1*
Y2914602D1*
X771716Y2913602D1*
X771681Y2912602D1*
X771239Y2911602D1*
X768801Y2910602D1*
X764272Y2909602D1*
X757545Y2908602D1*
X749728Y2907602D1*
X988728Y2916602D2*
Y2915602D1*
Y2914602D1*
X988735Y2913602D1*
X988833Y2912602D1*
X989079Y2911602D1*
X990517Y2910602D1*
X994962Y2909602D1*
X1001308Y2908602D1*
X1008728Y2907602D1*
X997728Y2916602D2*
Y2915602D1*
X1056728Y2916602D2*
Y2915602D1*
Y2914602D1*
X1056735Y2913602D1*
X1056833Y2912602D1*
X1057079Y2911602D1*
X1058517Y2910602D1*
X1062962Y2909602D1*
X1069308Y2908602D1*
X1076728Y2907602D1*
X1065728Y2916602D2*
Y2915602D1*
X601728D2*
X601769Y2914602D1*
X601924Y2913602D1*
X602266Y2912602D1*
X602728Y2911602D1*
X600477Y2910602D1*
X597065Y2909602D1*
X592265Y2908602D1*
X586728Y2907602D1*
X1043743Y3890332D2*
D76*
Y3860188D1*
X1033695D1*
X1029384Y3861648D1*
X1026499Y3864500D1*
X1025073Y3867385D1*
X1023647Y3871662D1*
Y3878859D1*
X1025073Y3883170D1*
X1026499Y3886021D1*
X1029384Y3888907D1*
X1033695Y3890332D1*
X1043743D1*
X1014384D2*
Y3860188D1*
X985024Y3886021D2*
X987876Y3888907D1*
X992187Y3890332D1*
X997924D1*
X1002235Y3888907D1*
X1005120Y3886021D1*
Y3883170D1*
X1003661Y3880284D1*
X1002235Y3878859D1*
X999383Y3877433D1*
X990761Y3874548D1*
X987876Y3873122D1*
X986450Y3871662D1*
X985024Y3868811D1*
Y3864500D1*
X987876Y3861648D1*
X992187Y3860188D1*
X997924D1*
X1002235Y3861648D1*
X1005120Y3864500D1*
X975761Y3874548D2*
X962828D1*
X958550Y3875973D1*
X957091Y3877433D1*
X955665Y3880284D1*
Y3884596D1*
X957091Y3887447D1*
X958550Y3888907D1*
X962828Y3890332D1*
X975761D1*
Y3860188D1*
X946401Y3884562D2*
X943516Y3886021D1*
X939205Y3890299D1*
Y3860188D1*
X667009Y2712935D2*
Y2689987D1*
X668435Y2685676D1*
X669894Y2684250D1*
X672746Y2682791D1*
X675631D1*
X678483Y2684250D1*
X679909Y2685676D1*
X681368Y2689987D1*
Y2692839D1*
X657745Y2707165D2*
X654860Y2708624D1*
X650549Y2712902D1*
Y2682791D1*
X1382174Y948035D2*
Y925087D1*
X1383600Y920776D1*
X1385059Y919350D1*
X1387911Y917891D1*
X1390796D1*
X1393648Y919350D1*
X1395074Y920776D1*
X1396533Y925087D1*
Y927939D1*
X1371451Y940838D2*
Y942264D1*
X1370025Y945150D1*
X1368599Y946575D1*
X1365714Y948001D1*
X1359977D1*
X1357125Y946575D1*
X1355699Y945150D1*
X1354240Y942264D1*
Y939413D1*
X1355699Y936527D1*
X1358551Y932250D1*
X1372910Y917891D1*
X1352814D1*
X673459Y2237935D2*
Y2214987D1*
X674885Y2210676D1*
X676344Y2209250D1*
X679196Y2207791D1*
X682081D1*
X684933Y2209250D1*
X686359Y2210676D1*
X687818Y2214987D1*
Y2217839D1*
X661310Y2237902D2*
X645558D1*
X654147Y2226428D1*
X649836D1*
X646984Y2225002D1*
X645558Y2223576D1*
X644099Y2219265D1*
Y2216413D1*
X645558Y2212102D1*
X648410Y2209217D1*
X652721Y2207791D1*
X657032D1*
X661310Y2209217D1*
X662736Y2210676D1*
X664195Y2213528D1*
X1105157Y1762814D2*
Y1739866D1*
X1106583Y1735555D1*
X1108042Y1734129D1*
X1110894Y1732670D1*
X1113779D1*
X1116631Y1734129D1*
X1118057Y1735555D1*
X1119516Y1739866D1*
Y1742718D1*
X1081535Y1732670D2*
Y1762781D1*
X1095894Y1742718D1*
X1074372D1*
X673459Y1762935D2*
Y1739987D1*
X674885Y1735676D1*
X676344Y1734250D1*
X679196Y1732791D1*
X682081D1*
X684933Y1734250D1*
X686359Y1735676D1*
X687818Y1739987D1*
Y1742839D1*
X646984Y1762902D2*
X661310D1*
X662736Y1750002D1*
X661310Y1751428D1*
X656999Y1752887D1*
X652721D1*
X648410Y1751428D1*
X645525Y1748576D1*
X644099Y1744265D1*
Y1741413D1*
X645525Y1737102D1*
X648410Y1734217D1*
X652721Y1732791D1*
X656999D1*
X661310Y1734217D1*
X662736Y1735676D1*
X664195Y1738528D1*
X1103715Y2237764D2*
Y2214816D1*
X1105141Y2210505D1*
X1106600Y2209079D1*
X1109452Y2207620D1*
X1112337D1*
X1115189Y2209079D1*
X1116615Y2210505D1*
X1118074Y2214816D1*
Y2217668D1*
X1077240Y2233453D2*
X1078666Y2236305D1*
X1082977Y2237731D1*
X1085829D1*
X1090140Y2236305D1*
X1093025Y2231994D1*
X1094451Y2224831D1*
Y2217668D1*
X1093025Y2211931D1*
X1090140Y2209046D1*
X1085829Y2207620D1*
X1084403D1*
X1080125Y2209046D1*
X1077240Y2211931D1*
X1075814Y2216242D1*
Y2217668D1*
X1077240Y2221979D1*
X1080125Y2224831D1*
X1084403Y2226257D1*
X1085829D1*
X1090140Y2224831D1*
X1093025Y2221979D1*
X1094451Y2217668D1*
X673459Y1287935D2*
Y1264987D1*
X674885Y1260676D1*
X676344Y1259250D1*
X679196Y1257791D1*
X682081D1*
X684933Y1259250D1*
X686359Y1260676D1*
X687818Y1264987D1*
Y1267839D1*
X658458Y1257791D2*
X644099Y1287902D1*
X664195D1*
X1104428Y2712714D2*
Y2689766D1*
X1105854Y2685455D1*
X1107313Y2684029D1*
X1110165Y2682570D1*
X1113050D1*
X1115902Y2684029D1*
X1117328Y2685455D1*
X1118787Y2689766D1*
Y2692618D1*
X1088001Y2712681D2*
X1092279Y2711255D1*
X1093738Y2708403D1*
Y2705518D1*
X1092279Y2702666D1*
X1089427Y2701207D1*
X1083690Y2699781D1*
X1079379Y2698355D1*
X1076527Y2695470D1*
X1075101Y2692618D1*
Y2688307D1*
X1076527Y2685455D1*
X1077953Y2683996D1*
X1082264Y2682570D1*
X1088001D1*
X1092279Y2683996D1*
X1093738Y2685455D1*
X1095164Y2688307D1*
Y2692618D1*
X1093738Y2695470D1*
X1090853Y2698355D1*
X1086575Y2699781D1*
X1080838Y2701207D1*
X1077953Y2702666D1*
X1076527Y2705518D1*
Y2708403D1*
X1077953Y2711255D1*
X1082264Y2712681D1*
X1088001D1*
X1178995Y812935D2*
Y789987D1*
X1180421Y785676D1*
X1181880Y784250D1*
X1184732Y782791D1*
X1187617D1*
X1190469Y784250D1*
X1191895Y785676D1*
X1193354Y789987D1*
Y792839D1*
X1151062Y802887D2*
X1152521Y798576D1*
X1155373Y795691D1*
X1159684Y794265D1*
X1161110D1*
X1165421Y795691D1*
X1168272Y798576D1*
X1169732Y802887D1*
Y804313D1*
X1168272Y808624D1*
X1165421Y811476D1*
X1161110Y812902D1*
X1159684D1*
X1155373Y811476D1*
X1152521Y808624D1*
X1151062Y802887D1*
Y795691D1*
X1152521Y788528D1*
X1155373Y784217D1*
X1159684Y782791D1*
X1162535D1*
X1166846Y784217D1*
X1168272Y787102D1*
X681689Y812935D2*
Y789987D1*
X683115Y785676D1*
X684574Y784250D1*
X687426Y782791D1*
X690311D1*
X693163Y784250D1*
X694588Y785676D1*
X696048Y789987D1*
Y792839D1*
X672425Y807165D2*
X669540Y808624D1*
X665229Y812902D1*
Y782791D1*
X647343Y812902D2*
X651654Y811476D1*
X654539Y807165D1*
X655965Y800002D1*
Y795691D1*
X654539Y788528D1*
X651654Y784217D1*
X647343Y782791D1*
X644491D1*
X640180Y784217D1*
X637328Y788528D1*
X635869Y795691D1*
Y800002D1*
X637328Y807165D1*
X640180Y811476D1*
X644491Y812902D1*
X647343D1*
X637328Y807165D2*
X654539Y788528D1*
X1489424Y2617935D2*
Y2587791D1*
X1472213D1*
X1444312Y2617935D2*
X1462949D1*
Y2587791D1*
X1444312D1*
X1462949Y2603576D2*
X1451475D1*
X1435049Y2617935D2*
Y2587791D1*
X1425001D1*
X1420690Y2589250D1*
X1417805Y2592102D1*
X1416379Y2594987D1*
X1414953Y2599265D1*
Y2606461D1*
X1416379Y2610772D1*
X1417805Y2613624D1*
X1420690Y2616509D1*
X1425001Y2617935D1*
X1435049D1*
X1405689Y2612165D2*
X1402804Y2613624D1*
X1398493Y2617902D1*
Y2587791D1*
X1495874Y2142935D2*
Y2112791D1*
X1478663D1*
X1450762Y2142935D2*
X1469399D1*
Y2112791D1*
X1450762D1*
X1469399Y2128576D2*
X1457925D1*
X1441499Y2142935D2*
Y2112791D1*
X1431451D1*
X1427140Y2114250D1*
X1424255Y2117102D1*
X1422829Y2119987D1*
X1421403Y2124265D1*
Y2131461D1*
X1422829Y2135772D1*
X1424255Y2138624D1*
X1427140Y2141509D1*
X1431451Y2142935D1*
X1441499D1*
X1410680Y2135739D2*
Y2137165D1*
X1409254Y2140050D1*
X1407828Y2141476D1*
X1404943Y2142902D1*
X1399206D1*
X1396354Y2141476D1*
X1394928Y2140050D1*
X1393469Y2137165D1*
Y2134313D1*
X1394928Y2131428D1*
X1397780Y2127150D1*
X1412139Y2112791D1*
X1392043D1*
X1495874Y1667935D2*
Y1637791D1*
X1478663D1*
X1450762Y1667935D2*
X1469399D1*
Y1637791D1*
X1450762D1*
X1469399Y1653576D2*
X1457925D1*
X1441499Y1667935D2*
Y1637791D1*
X1431451D1*
X1427140Y1639250D1*
X1424255Y1642102D1*
X1422829Y1644987D1*
X1421403Y1649265D1*
Y1656461D1*
X1422829Y1660772D1*
X1424255Y1663624D1*
X1427140Y1666509D1*
X1431451Y1667935D1*
X1441499D1*
X1409254Y1667902D2*
X1393502D1*
X1402091Y1656428D1*
X1397780D1*
X1394928Y1655002D1*
X1393502Y1653576D1*
X1392043Y1649265D1*
Y1646413D1*
X1393502Y1642102D1*
X1396354Y1639217D1*
X1400665Y1637791D1*
X1404976D1*
X1409254Y1639217D1*
X1410680Y1640676D1*
X1412139Y1643528D1*
X1496587Y1192935D2*
Y1162791D1*
X1479376D1*
X1451475Y1192935D2*
X1470112D1*
Y1162791D1*
X1451475D1*
X1470112Y1178576D2*
X1458638D1*
X1442212Y1192935D2*
Y1162791D1*
X1432164D1*
X1427853Y1164250D1*
X1424968Y1167102D1*
X1423542Y1169987D1*
X1422116Y1174265D1*
Y1181461D1*
X1423542Y1185772D1*
X1424968Y1188624D1*
X1427853Y1191509D1*
X1432164Y1192935D1*
X1442212D1*
X1398493Y1162791D2*
Y1192902D1*
X1412852Y1172839D1*
X1391330D1*
X769447Y3797512D2*
X772299Y3800397D1*
X776610Y3801823D1*
X782347D1*
X786658Y3800397D1*
X789543Y3797512D1*
Y3794660D1*
X788084Y3791775D1*
X786658Y3790349D1*
X783806Y3788923D1*
X775184Y3786038D1*
X772299Y3784612D1*
X770873Y3783153D1*
X769447Y3780301D1*
Y3775990D1*
X772299Y3773138D1*
X776610Y3771679D1*
X782347D1*
X786658Y3773138D1*
X789543Y3775990D1*
X760184Y3801823D2*
X752988Y3771679D1*
X745825Y3801823D1*
X738662Y3771679D1*
X731466Y3801823D1*
X722202Y3796053D2*
X719317Y3797512D1*
X715006Y3801790D1*
Y3771679D1*
X1364605Y3174790D2*
X1367457Y3177676D1*
X1371768Y3179102D1*
X1377505D1*
X1381816Y3177676D1*
X1384701Y3174790D1*
Y3171939D1*
X1383242Y3169054D1*
X1381816Y3167628D1*
X1378964Y3166202D1*
X1370342Y3163317D1*
X1367457Y3161891D1*
X1366031Y3160431D1*
X1364605Y3157580D1*
Y3153269D1*
X1367457Y3150417D1*
X1371768Y3148958D1*
X1377505D1*
X1381816Y3150417D1*
X1384701Y3153269D1*
X1355341Y3179102D2*
X1348145Y3148958D1*
X1340982Y3179102D1*
X1333819Y3148958D1*
X1326623Y3179102D1*
X1315900Y3171905D2*
Y3173331D1*
X1314474Y3176216D1*
X1313048Y3177642D1*
X1310163Y3179068D1*
X1304426D1*
X1301575Y3177642D1*
X1300149Y3176216D1*
X1298689Y3173331D1*
Y3170479D1*
X1300149Y3167594D1*
X1303000Y3163317D1*
X1317360Y3148958D1*
X1297264D1*
X1366475Y3535077D2*
X1369327Y3537962D1*
X1373638Y3539388D1*
X1379375D1*
X1383686Y3537962D1*
X1386571Y3535077D1*
Y3532225D1*
X1385112Y3529340D1*
X1383686Y3527914D1*
X1380834Y3526488D1*
X1372212Y3523603D1*
X1369327Y3522177D1*
X1367901Y3520718D1*
X1366475Y3517866D1*
Y3513555D1*
X1369327Y3510703D1*
X1373638Y3509244D1*
X1379375D1*
X1383686Y3510703D1*
X1386571Y3513555D1*
X1357211Y3539388D2*
X1350015Y3509244D1*
X1342852Y3539388D1*
X1335689Y3509244D1*
X1328493Y3539388D1*
X1316345Y3539354D2*
X1300593D1*
X1309182Y3527880D1*
X1304871D1*
X1302019Y3526455D1*
X1300593Y3525029D1*
X1299134Y3520718D1*
Y3517866D1*
X1300593Y3513555D1*
X1303445Y3510670D1*
X1307756Y3509244D1*
X1312067D1*
X1316345Y3510670D1*
X1317770Y3512129D1*
X1319230Y3514981D1*
X1367235Y3897159D2*
X1370087Y3900044D1*
X1374398Y3901470D1*
X1380135D1*
X1384446Y3900044D1*
X1387331Y3897159D1*
Y3894307D1*
X1385872Y3891422D1*
X1384446Y3889996D1*
X1381594Y3888570D1*
X1372972Y3885685D1*
X1370087Y3884259D1*
X1368661Y3882800D1*
X1367235Y3879948D1*
Y3875637D1*
X1370087Y3872785D1*
X1374398Y3871326D1*
X1380135D1*
X1384446Y3872785D1*
X1387331Y3875637D1*
X1357971Y3901470D2*
X1350775Y3871326D1*
X1343612Y3901470D1*
X1336449Y3871326D1*
X1329253Y3901470D1*
X1305631Y3871326D2*
Y3901437D1*
X1319990Y3881374D1*
X1298468D1*
M02*
