G04 DipTrace 3.2.0.1*
G04 mBrane.GBS*
%MOIN*%
G04 #@! TF.FileFunction,Soldermask,Bot*
G04 #@! TF.Part,Single*
%AMOUTLINE43*
4,1,16,
0.0415,0.005451,
0.037483,0.023051,
0.025939,0.037527,
0.009258,0.04556,
-0.009258,0.04556,
-0.025939,0.037527,
-0.037483,0.023051,
-0.0415,0.005451,
-0.0415,-0.005451,
-0.037483,-0.023051,
-0.025939,-0.037527,
-0.009258,-0.04556,
0.009258,-0.04556,
0.025939,-0.037527,
0.037483,-0.023051,
0.0415,-0.005451,
0.0415,0.005451,
0*%
%AMOUTLINE46*
4,1,8,
-0.038184,0.015816,
-0.015816,0.038184,
0.015816,0.038184,
0.038184,0.015816,
0.038184,-0.015816,
0.015816,-0.038184,
-0.015816,-0.038184,
-0.038184,-0.015816,
-0.038184,0.015816,
0*%
%AMOUTLINE49*
4,1,8,
0.010075,0.024325,
0.024325,0.010075,
0.024325,-0.010075,
0.010075,-0.024325,
-0.010075,-0.024325,
-0.024325,-0.010075,
-0.024325,0.010075,
-0.010075,0.024325,
0.010075,0.024325,
0*%
%AMOUTLINE52*
4,1,8,
0.011607,-0.028021,
0.028021,-0.011607,
0.028021,0.011607,
0.011607,0.028021,
-0.011607,0.028021,
-0.028021,0.011607,
-0.028021,-0.011607,
-0.011607,-0.028021,
0.011607,-0.028021,
0*%
%AMOUTLINE64*
4,1,8,
0.030404,-0.0734,
0.0734,-0.030404,
0.0734,0.030404,
0.030404,0.0734,
-0.030404,0.0734,
-0.0734,0.030404,
-0.0734,-0.030404,
-0.030404,-0.0734,
0.030404,-0.0734,
0*%
%ADD55C,0.077*%
%ADD57R,0.06737X0.06737*%
%ADD61C,0.068*%
%ADD62R,0.068X0.068*%
%ADD64O,0.083X0.093*%
%ADD66C,0.073*%
%ADD70C,0.064*%
%ADD120OUTLINE43*%
%ADD123OUTLINE46*%
%ADD126OUTLINE49*%
%ADD129OUTLINE52*%
%ADD141OUTLINE64*%
%FSLAX26Y26*%
G04*
G70*
G90*
G75*
G01*
G04 BotMask*
%LPD*%
D70*
X1381458Y3994001D3*
X1281458D3*
X1181458D3*
X1081458D3*
X981458D3*
X881458D3*
X781458D3*
X681458D3*
X581458D3*
Y4594001D3*
X681458D3*
X781458D3*
X881458D3*
X981458D3*
X1081458D3*
X1181458D3*
X1281458D3*
X1381458D3*
D120*
X780958Y2494001D3*
X455958D3*
D66*
X880958D3*
D120*
X981944Y1068930D3*
X1306944D3*
D66*
X881944D3*
D120*
X780958Y2019001D3*
X455958D3*
D66*
X880958D3*
D120*
X981944Y1543880D3*
X1306944D3*
D66*
X881944D3*
D120*
X780958Y1544001D3*
X455958D3*
D66*
X880958D3*
D120*
X981944Y2018830D3*
X1306944D3*
D66*
X881944D3*
D120*
X780958Y1069001D3*
X455958D3*
D66*
X880958D3*
D120*
X981944Y2493781D3*
X1306944D3*
D66*
X881944D3*
D64*
X1287208Y594001D3*
X962208D3*
D66*
X1387208D3*
D64*
X780958D3*
X455958D3*
D66*
X880958D3*
D62*
X1500209Y475250D3*
D61*
X1400209D3*
D62*
X1500209Y706501D3*
D61*
X1400209D3*
D62*
X1500209Y900250D3*
D61*
X1400209D3*
D123*
X1425207Y2819001D3*
Y2719001D3*
X1325207Y2819001D3*
Y2719001D3*
X1225207Y2819001D3*
Y2719001D3*
X1125207Y2819001D3*
Y2719001D3*
X1025207Y2819001D3*
Y2719001D3*
D126*
X1131458Y3075250D3*
X1081460D3*
X1131458Y3125250D3*
X1081460D3*
X1131458Y3175250D3*
X1081460D3*
X1131458Y3225250D3*
X1081460D3*
X1131458Y3275250D3*
X1081460D3*
D129*
X1443958Y2544001D3*
Y2444001D3*
Y2069001D3*
Y1969001D3*
Y1594001D3*
Y1494001D3*
Y1119001D3*
Y1019001D3*
D57*
X1037708Y3594001D3*
Y3397151D3*
Y3495576D3*
X466842Y3594001D3*
Y3397151D3*
D141*
X742432Y3688489D3*
Y3302662D3*
D55*
X1468958Y3100250D3*
Y2923085D3*
X1213053D3*
X1213006Y3100668D3*
X1470829Y3460536D3*
Y3283371D3*
X1214923D3*
X1214876Y3460954D3*
X1214923Y3645871D3*
Y3823036D3*
X1470829D3*
X1470876Y3645454D3*
M02*
