M48
INCH
T01C0.0157
T02C0.024
T03C0.0315
T04C0.032
T05C0.038
T06C0.0394
T07C0.04
T08C0.052
T09C0.1102
%
T01
X+007790Y+030128
X+008102Y+030752
X+007727Y+030940
X+008602Y+031628
X+009478Y+030565
X+009852Y+030315
X+010415Y+030190
X+009603Y+029315
X+008102Y+029503
X+007665Y+029315
X+007165Y+029627
X+006727Y+029315
X+006165Y+029628
X+006165Y+030128
X+006165Y+030565
X+005540Y+031190
X+005915Y+031440
X+006540Y+032315
X+005540Y+033940
X+004352Y+035252
X+004665Y+037378
X+005290Y+038878
X+004290Y+039315
X+006352Y+040502
X+007290Y+040128
X+007603Y+041128
X+008602Y+041127
X+008977Y+040752
X+009790Y+040815
X+010790Y+040775
X+009790Y+042190
X+008665Y+042440
X+008103Y+042253
X+007915Y+043065
X+008477Y+043190
X+008978Y+043628
X+009540Y+044252
X+009852Y+045190
X+009040Y+045190
X+008228Y+045190
X+008103Y+044565
X+007103Y+043565
X+006602Y+043503
X+005978Y+043440
X+005103Y+043065
X+005102Y+042440
X+004603Y+041690
X+006915Y+042565
X+007103Y+042128
X+008290Y+039565
X+008228Y+039002
X+009103Y+038315
X+008352Y+037565
X+009040Y+037128
X+010290Y+038940
X+009290Y+039565
X+006415Y+037565
X+006665Y+035753
X+008978Y+033940
X+009228Y+033628
X+009415Y+032815
X+013290Y+031002
X+013477Y+030190
X+014102Y+030190
X+013477Y+029003
X+014727Y+027815
X+013602Y+025690
X+012102Y+025752
X+010415Y+024628
X+009602Y+025565
X+009290Y+025815
X+008790Y+025565
X+008353Y+025565
X+007102Y+025940
X+006852Y+026252
X+006665Y+026628
X+007102Y+027378
X+007540Y+027503
X+007915Y+027440
X+008103Y+028690
X+007290Y+028628
X+006415Y+028690
X+005852Y+027565
X+005102Y+028128
X+004978Y+026315
X+005602Y+024753
X+005790Y+024190
X+005540Y+022628
X+005102Y+022628
X+005602Y+021502
X+005728Y+020690
X+006477Y+020690
X+006352Y+021128
X+007415Y+021190
X+006852Y+022690
X+007415Y+022878
X+007603Y+024065
X+009665Y+023065
X+009665Y+021690
X+010852Y+020627
X+011977Y+022502
X+011165Y+022815
X+012978Y+023628
X+013602Y+023002
X+014852Y+022502
X+013602Y+021127
X+012978Y+018815
X+013602Y+018127
X+012978Y+017689
X+012352Y+018128
X+011228Y+016503
X+010228Y+016002
X+010477Y+014065
X+011728Y+014502
X+013415Y+013440
X+014415Y+014065
X+015290Y+012627
X+011727Y+011315
X+011540Y+009815
X+012602Y+008815
X+011103Y+008252
X+010540Y+008752
X+010040Y+007752
X+009790Y+006878
X+010290Y+005940
X+011165Y+005252
X+011227Y+006878
X+011665Y+006878
X+013102Y+006878
X+012852Y+004440
X+007450Y+008565
X+006977Y+009565
X+006228Y+008377
X+005187Y+008565
X+005478Y+009628
X+006415Y+011252
X+006665Y+012503
X+007352Y+012502
X+006728Y+013628
X+006040Y+013128
X+005665Y+013628
X+005852Y+012503
X+005165Y+012565
X+005477Y+014878
X+006290Y+014815
X+006665Y+016252
X+006853Y+016878
X+007915Y+017252
X+008165Y+018002
X+006790Y+018315
X+006790Y+018940
X+007540Y+019502
X+005602Y+018002
X+005790Y+017253
X+005665Y+016315
X+004852Y+016253
X+004477Y+016440
X+004977Y+018815
X+005102Y+019815
X+008290Y+016377
X+008102Y+014627
X+013602Y+016252
X+014790Y+017627
X+004290Y+029940
X+004290Y+044378
X+005103Y+044627
X+004603Y+045252
X+005790Y+045315
X+006290Y+046440
X+007290Y+046128
X+010290Y+046440
X+011040Y+044690
X+012540Y+044628
X+013040Y+043627
X+013102Y+042565
X+014040Y+042940
X+015228Y+042128
X+014478Y+041128
X+013728Y+040940
X+011040Y+042940
X+010602Y+043252
X+014040Y+044627
X+014790Y+045190
X+014540Y+046315
T02
X+011290Y+030752
X+010790Y+030752
X+010790Y+031252
X+011290Y+031252
X+011290Y+031752
X+010790Y+031752
X+010790Y+032252
X+011290Y+032252
X+011290Y+032752
X+010790Y+032752
T03
X+013790Y+039940
X+012790Y+039940
X+011790Y+039940
X+010790Y+039940
X+009790Y+039940
X+008790Y+039940
X+007790Y+039940
X+006790Y+039940
X+005790Y+039940
X+005790Y+045940
X+006790Y+045940
X+007790Y+045940
X+008790Y+045940
X+009790Y+045940
X+010790Y+045940
X+011790Y+045940
X+012790Y+045940
X+013790Y+045940
T04
X+014415Y+025440
X+014415Y+024440
X+014415Y+020690
X+014415Y+019690
X+014415Y+015940
X+014415Y+014940
X+014415Y+011190
X+014415Y+010190
T05
X+014978Y+004752
X+013978Y+004752
X+013978Y+007065
X+014978Y+007065
X+014978Y+009002
X+013978Y+009002
T06
X+010352Y+035940
X+010352Y+034956
X+010352Y+033971
X+012124Y+034610
X+012125Y+032834
X+012105Y+031007
X+012106Y+029231
X+014665Y+029231
X+014665Y+031002
X+014684Y+032834
X+014684Y+034605
X+014684Y+036455
X+014684Y+038230
X+012125Y+038230
X+012125Y+036459
X+004644Y+035940
X+004644Y+033971
T07
X+008785Y+024940
X+008795Y+024940
X+010227Y+027190
X+010227Y+028190
X+011227Y+028190
X+012227Y+028190
X+013227Y+028190
X+013227Y+027190
X+012227Y+027190
X+011227Y+027190
X+014227Y+027190
X+014227Y+028190
X+008795Y+020190
X+008785Y+020190
X+008785Y+015440
X+008795Y+015440
X+008795Y+010690
X+008785Y+010690
X+008785Y+005940
X+013847Y+005940
T08
X+007785Y+024940
X+009795Y+024940
X+013045Y+024940
X+013045Y+020190
X+009795Y+020190
X+007785Y+020190
X+004535Y+020190
X+004535Y+015440
X+007785Y+015440
X+009795Y+015440
X+013045Y+015440
X+013045Y+010690
X+009795Y+010690
X+007785Y+010690
X+004535Y+010690
X+004535Y+005940
X+007785Y+005940
X+009597Y+005940
X+012847Y+005940
X+004535Y+024940
T09
X+007400Y+036885
X+007400Y+033027
T00
M30
