G04 DipTrace 3.1.0.0*
G04 working.GBO*
%MOIN*%
G04 #@! TF.FileFunction,Legend,Bot*
G04 #@! TF.Part,Single*
%ADD10C,0.009843*%
%ADD11C,0.006*%
%ADD12C,0.001*%
%ADD14C,0.01*%
%ADD20C,0.000013*%
%ADD24C,0.008*%
%ADD30C,0.005984*%
%ADD35C,0.005*%
%ADD74C,0.004632*%
%FSLAX26Y26*%
G04*
G70*
G90*
G75*
G01*
G04 BotSilk*
%LPD*%
X999134Y4041125D2*
D20*
G02X999134Y4041125I33077J0D01*
G01*
X502050D2*
G02X502050Y4041125I33077J0D01*
G01*
X1468173Y4664079D2*
D24*
X491008D1*
Y3923921D1*
X1468173D1*
Y4664079D1*
X641621Y2458965D2*
D11*
Y2529000D1*
X606674Y2494000D2*
X676618D1*
X816504Y2544015D2*
Y2669000D1*
Y2443985D2*
Y2319000D1*
X416495Y2443985D2*
Y2319000D1*
Y2544015D2*
Y2669000D1*
X816504D1*
Y2319000D2*
X416495D1*
X816504Y2443985D2*
D30*
X828979D1*
Y2544015D1*
X816504D1*
X1116378Y2529035D2*
D11*
Y2459000D1*
X1151325Y2494000D2*
X1081381D1*
X941494Y2443985D2*
Y2319000D1*
Y2544015D2*
Y2669000D1*
X1341504Y2544015D2*
Y2669000D1*
Y2443985D2*
Y2319000D1*
X941494D1*
Y2669000D2*
X1341504D1*
X941494Y2544015D2*
D30*
X929020D1*
Y2443985D1*
X941494D1*
X641621Y1983965D2*
D11*
Y2054000D1*
X606674Y2019000D2*
X676618D1*
X816504Y2069015D2*
Y2194000D1*
Y1968985D2*
Y1844000D1*
X416495Y1968985D2*
Y1844000D1*
Y2069015D2*
Y2194000D1*
X816504D1*
Y1844000D2*
X416495D1*
X816504Y1968985D2*
D30*
X828979D1*
Y2069015D1*
X816504D1*
X1116378Y2054035D2*
D11*
Y1984000D1*
X1151325Y2019000D2*
X1081381D1*
X941494Y1968985D2*
Y1844000D1*
Y2069015D2*
Y2194000D1*
X1341504Y2069015D2*
Y2194000D1*
Y1968985D2*
Y1844000D1*
X941494D1*
Y2194000D2*
X1341504D1*
X941494Y2069015D2*
D30*
X929020D1*
Y1968985D1*
X941494D1*
X641621Y1508965D2*
D11*
Y1579000D1*
X606674Y1544000D2*
X676618D1*
X816504Y1594015D2*
Y1719000D1*
Y1493985D2*
Y1369000D1*
X416495Y1493985D2*
Y1369000D1*
Y1594015D2*
Y1719000D1*
X816504D1*
Y1369000D2*
X416495D1*
X816504Y1493985D2*
D30*
X828979D1*
Y1594015D1*
X816504D1*
X1116378Y1579035D2*
D11*
Y1509000D1*
X1151325Y1544000D2*
X1081381D1*
X941494Y1493985D2*
Y1369000D1*
Y1594015D2*
Y1719000D1*
X1341504Y1594015D2*
Y1719000D1*
Y1493985D2*
Y1369000D1*
X941494D1*
Y1719000D2*
X1341504D1*
X941494Y1594015D2*
D30*
X929020D1*
Y1493985D1*
X941494D1*
X641621Y1033965D2*
D11*
Y1104000D1*
X606674Y1069000D2*
X676618D1*
X816504Y1119015D2*
Y1244000D1*
Y1018985D2*
Y894000D1*
X416495Y1018985D2*
Y894000D1*
Y1119015D2*
Y1244000D1*
X816504D1*
Y894000D2*
X416495D1*
X816504Y1018985D2*
D30*
X828979D1*
Y1119015D1*
X816504D1*
X1116378Y1104035D2*
D11*
Y1034000D1*
X1151325Y1069000D2*
X1081381D1*
X941494Y1018985D2*
Y894000D1*
Y1119015D2*
Y1244000D1*
X1341504Y1119015D2*
Y1244000D1*
Y1018985D2*
Y894000D1*
X941494D1*
Y1244000D2*
X1341504D1*
X941494Y1119015D2*
D30*
X929020D1*
Y1018985D1*
X941494D1*
X1147870Y558965D2*
D11*
Y629000D1*
X1112923Y594000D2*
X1182867D1*
X1322754Y644015D2*
Y769000D1*
Y543985D2*
Y419000D1*
X922744Y543985D2*
Y419000D1*
Y644015D2*
Y769000D1*
X1322754D1*
Y419000D2*
X922744D1*
X1322754Y543985D2*
D30*
X1335228D1*
Y644015D1*
X1322754D1*
X641621Y558965D2*
D11*
Y629000D1*
X606674Y594000D2*
X676618D1*
X816504Y644015D2*
Y769000D1*
Y543985D2*
Y419000D1*
X416495Y543985D2*
Y419000D1*
Y644015D2*
Y769000D1*
X816504D1*
Y419000D2*
X416495D1*
X816504Y543985D2*
D30*
X828979D1*
Y644015D1*
X816504D1*
X1381500Y2494001D2*
D11*
G03X1406620Y2445177I60036J14D01*
G01*
X1405500Y2541994D2*
G03X1381500Y2494001I35985J-47993D01*
G01*
X1501500D2*
G02X1478332Y2446640I-60007J7D01*
G01*
Y2541363D2*
G02X1501500Y2494001I-36839J-47368D01*
G01*
X1361500D2*
D14*
G03X1390284Y2432547I79941J-25D01*
G01*
X1403852Y2564589D2*
G03X1361500Y2494001I37693J-70615D01*
G01*
X1521500D2*
G02X1493180Y2432932I-80067J29D01*
G01*
X1481196Y2563465D2*
G02X1521500Y2494001I-39716J-69468D01*
G01*
X1381500Y2019001D2*
D11*
G03X1406620Y1970177I60036J14D01*
G01*
X1405500Y2066994D2*
G03X1381500Y2019001I35985J-47993D01*
G01*
X1501500D2*
G02X1478332Y1971640I-60007J7D01*
G01*
Y2066363D2*
G02X1501500Y2019001I-36839J-47368D01*
G01*
X1361500D2*
D14*
G03X1390284Y1957547I79941J-25D01*
G01*
X1403852Y2089589D2*
G03X1361500Y2019001I37693J-70615D01*
G01*
X1521500D2*
G02X1493180Y1957932I-80067J29D01*
G01*
X1481196Y2088465D2*
G02X1521500Y2019001I-39716J-69468D01*
G01*
X1381500Y1544001D2*
D11*
G03X1406620Y1495177I60036J14D01*
G01*
X1405500Y1591994D2*
G03X1381500Y1544001I35985J-47993D01*
G01*
X1501500D2*
G02X1478332Y1496640I-60007J7D01*
G01*
Y1591363D2*
G02X1501500Y1544001I-36839J-47368D01*
G01*
X1361500D2*
D14*
G03X1390284Y1482547I79941J-25D01*
G01*
X1403852Y1614589D2*
G03X1361500Y1544001I37693J-70615D01*
G01*
X1521500D2*
G02X1493180Y1482932I-80067J29D01*
G01*
X1481196Y1613465D2*
G02X1521500Y1544001I-39716J-69468D01*
G01*
X1381500Y1069001D2*
D11*
G03X1406620Y1020177I60036J14D01*
G01*
X1405500Y1116994D2*
G03X1381500Y1069001I35985J-47993D01*
G01*
X1501500D2*
G02X1478332Y1021640I-60007J7D01*
G01*
Y1116363D2*
G02X1501500Y1069001I-36839J-47368D01*
G01*
X1361500D2*
D14*
G03X1390284Y1007547I79941J-25D01*
G01*
X1403852Y1139589D2*
G03X1361500Y1069001I37693J-70615D01*
G01*
X1521500D2*
G02X1493180Y1007932I-80067J29D01*
G01*
X1481196Y1138465D2*
G02X1521500Y1069001I-39716J-69468D01*
G01*
X621878Y3495575D2*
D20*
G02X621878Y3495575I118106J0D01*
G01*
X999831Y3689687D2*
D35*
Y3301463D1*
X480138D1*
Y3689687D1*
X999831D1*
X680931Y3597930D2*
Y3393220D1*
X1220436Y3129767D2*
D10*
X1456644D1*
Y2893565D1*
X1220436D1*
Y3129767D1*
X1222306Y3490053D2*
X1458514D1*
Y3253851D1*
X1222306D1*
Y3490053D1*
X1458529Y3616353D2*
X1222321D1*
Y3852554D1*
X1458529D1*
Y3616353D1*
X1010269Y2994601D2*
D12*
X1017269D1*
X1078269D2*
X1085269D1*
X452269Y2993601D2*
X476269D1*
X559269D2*
X586269D1*
X666269D2*
X674269D1*
X736269D2*
X757269D1*
X812269D2*
X820269D1*
X868269D2*
X876269D1*
X907269D2*
X942269D1*
X998269D2*
X1021457D1*
X1066269D2*
X1089457D1*
X448701Y2992601D2*
X479837D1*
X556624D2*
X591519D1*
X665923D2*
X674649D1*
X728207D2*
X759727D1*
X812653D2*
X821111D1*
X867649D2*
X875889D1*
X903584D2*
X942269D1*
X992207D2*
X1024900D1*
X1060207D2*
X1092900D1*
X445832Y2991601D2*
X482710D1*
X554326D2*
X595513D1*
X665590D2*
X675075D1*
X720269D2*
X761971D1*
X813114D2*
X821828D1*
X867079D2*
X875459D1*
X900592D2*
X942269D1*
X986269D2*
X1027632D1*
X1054269D2*
X1095632D1*
X443667Y2990601D2*
X484910D1*
X552421D2*
X598452D1*
X665273D2*
X675508D1*
X720269D2*
X763915D1*
X813674D2*
X822437D1*
X866543D2*
X874995D1*
X898373D2*
X942269D1*
X986269D2*
X1029821D1*
X1054269D2*
X1097821D1*
X442085Y2989601D2*
X486620D1*
X550874D2*
X599568D1*
X664932D2*
X675897D1*
X720269D2*
X765446D1*
X814303D2*
X822987D1*
X866029D2*
X874509D1*
X896744D2*
X942269D1*
X986269D2*
X1031560D1*
X1054269D2*
X1099560D1*
X440961Y2988601D2*
X487983D1*
X549687D2*
X599947D1*
X664596D2*
X676243D1*
X720269D2*
X766566D1*
X814910D2*
X823507D1*
X865522D2*
X874016D1*
X895462D2*
X942269D1*
X986269D2*
X1032920D1*
X1054269D2*
X1100920D1*
X440084Y2987601D2*
X489116D1*
X548782D2*
X600139D1*
X664276D2*
X676598D1*
X720269D2*
X767447D1*
X815470D2*
X824015D1*
X865021D2*
X873517D1*
X894379D2*
X942269D1*
X986269D2*
X1033977D1*
X1054269D2*
X1101977D1*
X439319Y2986601D2*
X490056D1*
X548010D2*
X600223D1*
X663933D2*
X676939D1*
X720269D2*
X768216D1*
X816000D2*
X824521D1*
X864519D2*
X873019D1*
X893465D2*
X942269D1*
X986269D2*
X1034811D1*
X1054269D2*
X1102811D1*
X438659Y2985601D2*
X490808D1*
X547291D2*
X600269D1*
X663597D2*
X677261D1*
X720269D2*
X743269D1*
X753834D2*
X768874D1*
X816511D2*
X825054D1*
X864020D2*
X872518D1*
X892723D2*
X942269D1*
X986269D2*
X999269D1*
X1019834D2*
X1035550D1*
X1054269D2*
X1067269D1*
X1087834D2*
X1103550D1*
X438079Y2984601D2*
X450315D1*
X477992D2*
X491431D1*
X546653D2*
X559311D1*
X663277D2*
X677604D1*
X756833D2*
X769419D1*
X817017D2*
X825650D1*
X863519D2*
X872019D1*
X892105D2*
X905508D1*
X934269D2*
X942269D1*
X1022836D2*
X1036256D1*
X1090836D2*
X1104256D1*
X437546Y2983601D2*
X448517D1*
X480282D2*
X491981D1*
X546111D2*
X557482D1*
X662933D2*
X677941D1*
X759061D2*
X769829D1*
X817518D2*
X826294D1*
X863019D2*
X871523D1*
X891552D2*
X903094D1*
X934269D2*
X942269D1*
X1025100D2*
X1036888D1*
X1093100D2*
X1104888D1*
X437067Y2982601D2*
X447055D1*
X481967D2*
X492467D1*
X545672D2*
X555924D1*
X662597D2*
X678265D1*
X760592D2*
X770104D1*
X818019D2*
X826906D1*
X862519D2*
X871055D1*
X891032D2*
X901200D1*
X934269D2*
X942269D1*
X1026759D2*
X1037428D1*
X1094759D2*
X1105428D1*
X436692Y2981601D2*
X445996D1*
X483171D2*
X492845D1*
X545306D2*
X554717D1*
X662277D2*
X678640D1*
X761617D2*
X770350D1*
X818519D2*
X827468D1*
X862019D2*
X870650D1*
X890527D2*
X899832D1*
X934269D2*
X942269D1*
X1028027D2*
X1037866D1*
X1096027D2*
X1105866D1*
X436466Y2980601D2*
X445252D1*
X484068D2*
X493076D1*
X544948D2*
X553833D1*
X661933D2*
X679069D1*
X762321D2*
X770642D1*
X819019D2*
X827999D1*
X861519D2*
X870294D1*
X890056D2*
X898873D1*
X934269D2*
X942269D1*
X1029022D2*
X1038232D1*
X1097022D2*
X1106232D1*
X436352Y2979601D2*
X444726D1*
X484703D2*
X493225D1*
X544640D2*
X553185D1*
X661597D2*
X669231D1*
X671424D2*
X679505D1*
X762789D2*
X770919D1*
X819523D2*
X828511D1*
X861019D2*
X869906D1*
X889650D2*
X898162D1*
X934269D2*
X942269D1*
X1029796D2*
X1038594D1*
X1097796D2*
X1106594D1*
X436301Y2978601D2*
X444326D1*
X485164D2*
X493403D1*
X544445D2*
X552737D1*
X661273D2*
X669103D1*
X671675D2*
X679896D1*
X763052D2*
X771101D1*
X820055D2*
X829017D1*
X860519D2*
X869468D1*
X889298D2*
X897577D1*
X934269D2*
X942269D1*
X1030427D2*
X1038937D1*
X1098427D2*
X1106937D1*
X436281Y2977601D2*
X443955D1*
X485563D2*
X493663D1*
X544344D2*
X552482D1*
X660898D2*
X668859D1*
X671969D2*
X680243D1*
X763179D2*
X771197D1*
X820650D2*
X829518D1*
X860019D2*
X868999D1*
X888945D2*
X897078D1*
X934269D2*
X942269D1*
X1030980D2*
X1039260D1*
X1098980D2*
X1107260D1*
X436273Y2976601D2*
X443642D1*
X485888D2*
X493927D1*
X544299D2*
X552358D1*
X660470D2*
X668568D1*
X672272D2*
X680598D1*
X763234D2*
X771240D1*
X821294D2*
X830019D1*
X859519D2*
X868511D1*
X888639D2*
X896696D1*
X934269D2*
X942269D1*
X1031470D2*
X1039600D1*
X1099470D2*
X1107600D1*
X436270Y2975601D2*
X443445D1*
X486090D2*
X494104D1*
X544280D2*
X552303D1*
X660033D2*
X668266D1*
X672608D2*
X680939D1*
X763256D2*
X771258D1*
X821906D2*
X830519D1*
X859019D2*
X868017D1*
X888444D2*
X896467D1*
X934269D2*
X942269D1*
X1031884D2*
X1039906D1*
X1099884D2*
X1107906D1*
X436270Y2974601D2*
X443344D1*
X486193D2*
X494198D1*
X544273D2*
X552282D1*
X659642D2*
X667930D1*
X672942D2*
X681264D1*
X763265D2*
X771265D1*
X822468D2*
X831019D1*
X858519D2*
X867518D1*
X888344D2*
X896352D1*
X934269D2*
X942269D1*
X1032239D2*
X1040134D1*
X1100239D2*
X1108134D1*
X436269Y2973601D2*
X443299D1*
X486239D2*
X494241D1*
X544270D2*
X552273D1*
X659295D2*
X667596D1*
X673266D2*
X681639D1*
X763268D2*
X771268D1*
X822999D2*
X831523D1*
X858019D2*
X867019D1*
X888299D2*
X896302D1*
X934269D2*
X942269D1*
X1032592D2*
X1040361D1*
X1100592D2*
X1108361D1*
X436269Y2972601D2*
X443280D1*
X486258D2*
X494258D1*
X544269D2*
X552271D1*
X658941D2*
X667276D1*
X673640D2*
X682068D1*
X763269D2*
X771269D1*
X823511D2*
X832055D1*
X857519D2*
X866519D1*
X888280D2*
X896281D1*
X934269D2*
X942269D1*
X1032899D2*
X1040646D1*
X1100899D2*
X1108646D1*
X436269Y2971601D2*
X443273D1*
X486265D2*
X494265D1*
X544269D2*
X552270D1*
X658600D2*
X666933D1*
X674069D2*
X682505D1*
X763269D2*
X771269D1*
X824017D2*
X832650D1*
X857019D2*
X866019D1*
X888273D2*
X896273D1*
X934269D2*
X942269D1*
X1033098D2*
X1040920D1*
X1101098D2*
X1108920D1*
X436269Y2970601D2*
X443270D1*
X486268D2*
X494268D1*
X544269D2*
X552269D1*
X658278D2*
X666597D1*
X674505D2*
X682896D1*
X763269D2*
X771269D1*
X824518D2*
X833294D1*
X856519D2*
X865519D1*
X888270D2*
X896270D1*
X934269D2*
X942269D1*
X1033233D2*
X1041102D1*
X1101233D2*
X1109102D1*
X436269Y2969601D2*
X443269D1*
X486269D2*
X494269D1*
X544269D2*
X552269D1*
X657934D2*
X666277D1*
X674896D2*
X683243D1*
X763269D2*
X771269D1*
X825019D2*
X833906D1*
X856019D2*
X865019D1*
X888269D2*
X896273D1*
X934269D2*
X942269D1*
X1033406D2*
X1041201D1*
X1101406D2*
X1109201D1*
X436269Y2968601D2*
X443269D1*
X486269D2*
X494269D1*
X544269D2*
X552269D1*
X657597D2*
X665933D1*
X675243D2*
X683598D1*
X763269D2*
X771269D1*
X825519D2*
X834468D1*
X855519D2*
X864519D1*
X888273D2*
X896308D1*
X934269D2*
X942269D1*
X1033664D2*
X1041280D1*
X1101664D2*
X1109280D1*
X436269Y2967601D2*
X443269D1*
X486269D2*
X494269D1*
X544269D2*
X552269D1*
X657277D2*
X665597D1*
X675598D2*
X683939D1*
X763269D2*
X771269D1*
X826019D2*
X834999D1*
X855019D2*
X864019D1*
X888308D2*
X896436D1*
X934269D2*
X942269D1*
X1033928D2*
X1041425D1*
X1101928D2*
X1109425D1*
X436269Y2966601D2*
X443269D1*
X486269D2*
X494269D1*
X544269D2*
X552269D1*
X656933D2*
X665277D1*
X675939D2*
X684261D1*
X763269D2*
X771269D1*
X826519D2*
X835511D1*
X854523D2*
X863519D1*
X888436D2*
X896679D1*
X934269D2*
X942269D1*
X1034104D2*
X1041671D1*
X1102104D2*
X1109671D1*
X436269Y2965601D2*
X443269D1*
X486269D2*
X494269D1*
X544269D2*
X552273D1*
X656597D2*
X664933D1*
X676261D2*
X684604D1*
X763269D2*
X771269D1*
X827019D2*
X836017D1*
X854055D2*
X863019D1*
X888679D2*
X896974D1*
X934269D2*
X942269D1*
X1034198D2*
X1041930D1*
X1102198D2*
X1109930D1*
X436269Y2964601D2*
X443269D1*
X486269D2*
X494269D1*
X544269D2*
X552308D1*
X656277D2*
X664597D1*
X676604D2*
X684941D1*
X763269D2*
X771269D1*
X827523D2*
X836518D1*
X853650D2*
X862519D1*
X888970D2*
X897311D1*
X934269D2*
X942269D1*
X1034241D2*
X1042105D1*
X1102241D2*
X1110105D1*
X436269Y2963601D2*
X443269D1*
X486269D2*
X494269D1*
X544273D2*
X552439D1*
X655933D2*
X664277D1*
X676941D2*
X685265D1*
X763265D2*
X771269D1*
X828055D2*
X837019D1*
X853294D2*
X862019D1*
X889272D2*
X897779D1*
X934269D2*
X942269D1*
X1034258D2*
X1042198D1*
X1102258D2*
X1110198D1*
X436269Y2962601D2*
X443269D1*
X486269D2*
X494269D1*
X544308D2*
X552714D1*
X655597D2*
X663933D1*
X677261D2*
X685640D1*
X763230D2*
X771265D1*
X828650D2*
X837522D1*
X852906D2*
X861519D1*
X889608D2*
X898391D1*
X934269D2*
X942269D1*
X1034265D2*
X1042241D1*
X1102265D2*
X1110241D1*
X436269Y2961601D2*
X443269D1*
X486269D2*
X494269D1*
X544436D2*
X553102D1*
X655273D2*
X663597D1*
X677605D2*
X686069D1*
X763099D2*
X771230D1*
X829294D2*
X838055D1*
X852468D2*
X861019D1*
X889946D2*
X899145D1*
X934269D2*
X942269D1*
X1034268D2*
X1042259D1*
X1102268D2*
X1110259D1*
X436269Y2960601D2*
X443269D1*
X486269D2*
X494269D1*
X544679D2*
X553559D1*
X654898D2*
X663277D1*
X677941D2*
X686505D1*
X762824D2*
X771103D1*
X829906D2*
X838650D1*
X851999D2*
X860519D1*
X890301D2*
X900182D1*
X934269D2*
X942269D1*
X1034269D2*
X1042265D1*
X1102269D2*
X1110265D1*
X436269Y2959601D2*
X443269D1*
X486269D2*
X494269D1*
X544970D2*
X554117D1*
X654470D2*
X662933D1*
X678261D2*
X686896D1*
X762432D2*
X770863D1*
X830468D2*
X839294D1*
X851511D2*
X860019D1*
X890771D2*
X901737D1*
X934269D2*
X942269D1*
X1034269D2*
X1042268D1*
X1102269D2*
X1110268D1*
X436269Y2958601D2*
X443269D1*
X486269D2*
X494269D1*
X545276D2*
X554946D1*
X654033D2*
X662597D1*
X678605D2*
X687243D1*
X761929D2*
X770603D1*
X830999D2*
X839906D1*
X851017D2*
X859519D1*
X891355D2*
X904017D1*
X934269D2*
X942269D1*
X1034269D2*
X1042269D1*
X1102269D2*
X1110269D1*
X436269Y2957601D2*
X443269D1*
X486269D2*
X494269D1*
X545644D2*
X556291D1*
X653642D2*
X662273D1*
X678941D2*
X687598D1*
X761311D2*
X770393D1*
X831511D2*
X840468D1*
X850518D2*
X859019D1*
X892006D2*
X906986D1*
X934269D2*
X942269D1*
X1034269D2*
X1042269D1*
X1102269D2*
X1110269D1*
X436269Y2956601D2*
X443269D1*
X486269D2*
X494269D1*
X546074D2*
X558240D1*
X653295D2*
X661898D1*
X679265D2*
X687939D1*
X759647D2*
X770169D1*
X832017D2*
X840999D1*
X850019D2*
X858519D1*
X892817D2*
X942269D1*
X1034269D2*
X1042269D1*
X1102269D2*
X1110269D1*
X436269Y2955601D2*
X443269D1*
X486269D2*
X494269D1*
X546548D2*
X560656D1*
X652941D2*
X661470D1*
X679640D2*
X688264D1*
X756972D2*
X769848D1*
X832518D2*
X841511D1*
X849519D2*
X858019D1*
X893895D2*
X942269D1*
X1034269D2*
X1042269D1*
X1102269D2*
X1110269D1*
X436269Y2954601D2*
X443269D1*
X486269D2*
X494269D1*
X547106D2*
X574269D1*
X652600D2*
X661033D1*
X680069D2*
X688639D1*
X753336D2*
X769408D1*
X833019D2*
X842017D1*
X849019D2*
X857519D1*
X895206D2*
X942269D1*
X1034269D2*
X1042269D1*
X1102269D2*
X1110269D1*
X436269Y2953601D2*
X443269D1*
X486269D2*
X494269D1*
X547859D2*
X592269D1*
X652278D2*
X660642D1*
X680505D2*
X689068D1*
X728269D2*
X768820D1*
X833519D2*
X842518D1*
X848519D2*
X857019D1*
X896690D2*
X942269D1*
X1034269D2*
X1042269D1*
X1102269D2*
X1110269D1*
X436269Y2952601D2*
X443269D1*
X486269D2*
X494269D1*
X548880D2*
X592269D1*
X651934D2*
X660295D1*
X680896D2*
X689505D1*
X726191D2*
X768063D1*
X834019D2*
X843019D1*
X848012D2*
X856519D1*
X898269D2*
X942269D1*
X1034269D2*
X1042269D1*
X1102269D2*
X1110269D1*
X436269Y2951601D2*
X443269D1*
X486269D2*
X494269D1*
X550058D2*
X592269D1*
X651597D2*
X659941D1*
X681243D2*
X689896D1*
X724373D2*
X767179D1*
X834523D2*
X843522D1*
X847438D2*
X856019D1*
X896807D2*
X942269D1*
X1034269D2*
X1042269D1*
X1102269D2*
X1110269D1*
X436269Y2950601D2*
X443269D1*
X486269D2*
X494269D1*
X551269D2*
X592269D1*
X651277D2*
X659600D1*
X681598D2*
X690243D1*
X722858D2*
X766189D1*
X835055D2*
X844048D1*
X846655D2*
X855519D1*
X895520D2*
X942269D1*
X1034269D2*
X1042269D1*
X1102269D2*
X1110269D1*
X436269Y2949601D2*
X443269D1*
X486269D2*
X494269D1*
X550273D2*
X592269D1*
X650933D2*
X659278D1*
X681939D2*
X690598D1*
X721686D2*
X765005D1*
X835650D2*
X844632D1*
X845555D2*
X855019D1*
X894375D2*
X942269D1*
X1034269D2*
X1042269D1*
X1102269D2*
X1110269D1*
X436269Y2948601D2*
X443269D1*
X486269D2*
X494269D1*
X549308D2*
X592269D1*
X650597D2*
X658934D1*
X682261D2*
X690939D1*
X720815D2*
X763456D1*
X836294D2*
X854519D1*
X893314D2*
X942269D1*
X1034269D2*
X1042269D1*
X1102269D2*
X1110269D1*
X436269Y2947601D2*
X443269D1*
X486269D2*
X494269D1*
X548439D2*
X592269D1*
X650277D2*
X658597D1*
X682604D2*
X691261D1*
X720141D2*
X761478D1*
X836906D2*
X854019D1*
X892327D2*
X904315D1*
X934269D2*
X942269D1*
X1034269D2*
X1042269D1*
X1102269D2*
X1110269D1*
X436269Y2946601D2*
X443269D1*
X486269D2*
X494269D1*
X547714D2*
X576269D1*
X649933D2*
X658277D1*
X682941D2*
X691604D1*
X719569D2*
X759269D1*
X837468D2*
X853519D1*
X891480D2*
X902517D1*
X934269D2*
X942269D1*
X1034269D2*
X1042269D1*
X1102269D2*
X1110269D1*
X436269Y2945601D2*
X443269D1*
X486269D2*
X494269D1*
X547102D2*
X560662D1*
X649597D2*
X657933D1*
X683261D2*
X691941D1*
X719072D2*
X732863D1*
X837999D2*
X853019D1*
X890847D2*
X901051D1*
X934269D2*
X942269D1*
X1034269D2*
X1042269D1*
X1102269D2*
X1110269D1*
X436269Y2944601D2*
X443269D1*
X486269D2*
X494269D1*
X546555D2*
X558492D1*
X649277D2*
X657593D1*
X683601D2*
X692265D1*
X718656D2*
X730143D1*
X838511D2*
X852519D1*
X890381D2*
X899957D1*
X934269D2*
X942269D1*
X1034269D2*
X1042269D1*
X1102269D2*
X1110269D1*
X436269Y2943601D2*
X443269D1*
X486269D2*
X494269D1*
X546067D2*
X556827D1*
X648933D2*
X657234D1*
X683902D2*
X692640D1*
X718300D2*
X728270D1*
X839017D2*
X852019D1*
X889974D2*
X899089D1*
X934269D2*
X942269D1*
X1034269D2*
X1042269D1*
X1102269D2*
X1110269D1*
X436269Y2942601D2*
X443269D1*
X486269D2*
X494269D1*
X545654D2*
X555541D1*
X648597D2*
X656731D1*
X684096D2*
X693069D1*
X717946D2*
X727061D1*
X839518D2*
X851519D1*
X889612D2*
X898356D1*
X934269D2*
X942269D1*
X1034269D2*
X1042269D1*
X1102269D2*
X1110269D1*
X436269Y2941601D2*
X443269D1*
X486269D2*
X494269D1*
X545299D2*
X554563D1*
X648273D2*
X656045D1*
X684201D2*
X693505D1*
X717639D2*
X726273D1*
X840015D2*
X851019D1*
X889282D2*
X897791D1*
X934269D2*
X942269D1*
X1034269D2*
X1042265D1*
X1102269D2*
X1110265D1*
X436269Y2940601D2*
X443269D1*
X486269D2*
X494269D1*
X544946D2*
X553878D1*
X647898D2*
X693896D1*
X717444D2*
X725766D1*
X840479D2*
X850523D1*
X888939D2*
X897358D1*
X934269D2*
X942269D1*
X1034265D2*
X1042230D1*
X1102265D2*
X1110230D1*
X436269Y2939601D2*
X443269D1*
X486269D2*
X494269D1*
X544639D2*
X553392D1*
X647470D2*
X694243D1*
X717344D2*
X725454D1*
X840849D2*
X850058D1*
X888637D2*
X896969D1*
X934269D2*
X942269D1*
X1034230D2*
X1042103D1*
X1102230D2*
X1110103D1*
X436269Y2938601D2*
X443269D1*
X486269D2*
X494269D1*
X544444D2*
X552982D1*
X647033D2*
X694598D1*
X717299D2*
X725195D1*
X841074D2*
X849689D1*
X888443D2*
X896644D1*
X934269D2*
X942269D1*
X1034103D2*
X1041863D1*
X1102103D2*
X1109863D1*
X436269Y2937601D2*
X443269D1*
X486269D2*
X494269D1*
X544344D2*
X552652D1*
X646642D2*
X694939D1*
X717280D2*
X724899D1*
X841187D2*
X849464D1*
X888343D2*
X896408D1*
X934269D2*
X942269D1*
X1033863D2*
X1041607D1*
X1101863D2*
X1109607D1*
X436269Y2936601D2*
X443269D1*
X486269D2*
X494269D1*
X544299D2*
X552449D1*
X646295D2*
X695261D1*
X717273D2*
X724620D1*
X841237D2*
X849351D1*
X888298D2*
X896178D1*
X934269D2*
X942269D1*
X1033607D2*
X1041432D1*
X1101607D2*
X1109432D1*
X436269Y2935601D2*
X443269D1*
X486269D2*
X494269D1*
X544280D2*
X552345D1*
X645941D2*
X695604D1*
X717270D2*
X724437D1*
X841257D2*
X849301D1*
X888280D2*
X895893D1*
X934269D2*
X942269D1*
X1033428D2*
X1041336D1*
X1101428D2*
X1109336D1*
X436269Y2934601D2*
X443269D1*
X486269D2*
X494269D1*
X544273D2*
X552299D1*
X645600D2*
X695941D1*
X717269D2*
X724341D1*
X841265D2*
X849281D1*
X888273D2*
X895618D1*
X934269D2*
X942269D1*
X1033300D2*
X1041258D1*
X1101300D2*
X1109258D1*
X436269Y2933601D2*
X443269D1*
X486269D2*
X494269D1*
X544270D2*
X552280D1*
X645278D2*
X696265D1*
X717269D2*
X724298D1*
X841268D2*
X849273D1*
X888270D2*
X895436D1*
X934269D2*
X942269D1*
X1033131D2*
X1041113D1*
X1101131D2*
X1109113D1*
X436269Y2932601D2*
X443269D1*
X486269D2*
X494269D1*
X544269D2*
X552273D1*
X644934D2*
X696640D1*
X717269D2*
X724280D1*
X841269D2*
X849270D1*
X888269D2*
X895345D1*
X934269D2*
X942269D1*
X1032870D2*
X1040867D1*
X1100870D2*
X1108867D1*
X436269Y2931601D2*
X443269D1*
X486269D2*
X494269D1*
X544269D2*
X552270D1*
X644597D2*
X653114D1*
X688424D2*
X697069D1*
X717269D2*
X724273D1*
X841269D2*
X849270D1*
X888269D2*
X895337D1*
X934269D2*
X942269D1*
X1032571D2*
X1040604D1*
X1100571D2*
X1108604D1*
X436269Y2930601D2*
X443269D1*
X486269D2*
X494269D1*
X544269D2*
X552269D1*
X644277D2*
X652863D1*
X688675D2*
X697505D1*
X717269D2*
X724270D1*
X841269D2*
X849269D1*
X888269D2*
X895446D1*
X934269D2*
X942269D1*
X1032263D2*
X1040394D1*
X1100263D2*
X1108394D1*
X436269Y2929601D2*
X443269D1*
X486269D2*
X494269D1*
X544269D2*
X552269D1*
X643933D2*
X652569D1*
X688969D2*
X697896D1*
X717269D2*
X724269D1*
X841269D2*
X849269D1*
X888269D2*
X895679D1*
X934269D2*
X942269D1*
X1031895D2*
X1040173D1*
X1099895D2*
X1108173D1*
X436269Y2928601D2*
X443273D1*
X486269D2*
X494265D1*
X544269D2*
X552269D1*
X643597D2*
X652266D1*
X689272D2*
X698243D1*
X717269D2*
X724269D1*
X841269D2*
X849269D1*
X888269D2*
X895937D1*
X934269D2*
X942269D1*
X1031464D2*
X1039887D1*
X1099464D2*
X1107887D1*
X436269Y2927601D2*
X443308D1*
X486265D2*
X494230D1*
X544269D2*
X552269D1*
X643277D2*
X651930D1*
X689608D2*
X698598D1*
X717269D2*
X724273D1*
X841269D2*
X849269D1*
X888269D2*
X896145D1*
X934269D2*
X942269D1*
X1030998D2*
X1039578D1*
X1098998D2*
X1107578D1*
X436269Y2926601D2*
X443436D1*
X486230D2*
X494103D1*
X544269D2*
X552269D1*
X642933D2*
X651596D1*
X689942D2*
X698939D1*
X717269D2*
X724308D1*
X841269D2*
X849269D1*
X888273D2*
X896365D1*
X934269D2*
X942269D1*
X1030510D2*
X1039269D1*
X1098510D2*
X1107269D1*
X436269Y2925601D2*
X443675D1*
X486103D2*
X493863D1*
X544269D2*
X552273D1*
X642597D2*
X651276D1*
X690262D2*
X699264D1*
X717269D2*
X724436D1*
X841269D2*
X849269D1*
X888308D2*
X896651D1*
X934269D2*
X942269D1*
X1030013D2*
X1038931D1*
X1098013D2*
X1106931D1*
X436269Y2924601D2*
X443935D1*
X485859D2*
X493607D1*
X544273D2*
X552308D1*
X642277D2*
X650933D1*
X690605D2*
X699639D1*
X717269D2*
X724679D1*
X841269D2*
X849269D1*
X888436D2*
X896964D1*
X934269D2*
X942269D1*
X1029479D2*
X1038596D1*
X1097479D2*
X1106596D1*
X436269Y2923601D2*
X444149D1*
X485564D2*
X493432D1*
X544308D2*
X552439D1*
X641933D2*
X650597D1*
X690941D2*
X700068D1*
X717269D2*
X724974D1*
X841269D2*
X849269D1*
X888679D2*
X897312D1*
X934269D2*
X942269D1*
X1028849D2*
X1038272D1*
X1096849D2*
X1106272D1*
X436273Y2922601D2*
X444408D1*
X485219D2*
X493336D1*
X544436D2*
X552718D1*
X641597D2*
X650277D1*
X691261D2*
X700505D1*
X717273D2*
X725315D1*
X841269D2*
X849269D1*
X888970D2*
X897813D1*
X934269D2*
X942269D1*
X1028073D2*
X1037894D1*
X1096073D2*
X1105894D1*
X436308Y2921601D2*
X444860D1*
X484681D2*
X493258D1*
X544675D2*
X553141D1*
X641273D2*
X649937D1*
X691605D2*
X700896D1*
X717308D2*
X725818D1*
X841269D2*
X849269D1*
X889276D2*
X898526D1*
X934269D2*
X942269D1*
X1027183D2*
X1037430D1*
X1095183D2*
X1105430D1*
X436439Y2920601D2*
X445579D1*
X483810D2*
X493109D1*
X544935D2*
X553729D1*
X640898D2*
X649632D1*
X691941D2*
X701243D1*
X717436D2*
X726562D1*
X841269D2*
X849269D1*
X889644D2*
X899459D1*
X934269D2*
X942269D1*
X1026190D2*
X1036867D1*
X1094190D2*
X1104867D1*
X436714Y2919601D2*
X446589D1*
X482549D2*
X492828D1*
X513269D2*
X523269D1*
X545145D2*
X554562D1*
X640470D2*
X649404D1*
X692261D2*
X701598D1*
X717679D2*
X727583D1*
X841269D2*
X849269D1*
X890074D2*
X900728D1*
X934269D2*
X942269D1*
X1025005D2*
X1036232D1*
X1093005D2*
X1104232D1*
X437102Y2918601D2*
X447924D1*
X480952D2*
X492438D1*
X513269D2*
X523731D1*
X545369D2*
X555774D1*
X640033D2*
X649177D1*
X692605D2*
X701939D1*
X717974D2*
X728925D1*
X841269D2*
X849269D1*
X890544D2*
X902507D1*
X934269D2*
X942269D1*
X1023440D2*
X1035590D1*
X1091440D2*
X1103590D1*
X437555Y2917601D2*
X449535D1*
X479149D2*
X491984D1*
X513269D2*
X524018D1*
X545690D2*
X557526D1*
X639642D2*
X648888D1*
X692941D2*
X702261D1*
X718311D2*
X730561D1*
X841269D2*
X849269D1*
X891067D2*
X904776D1*
X934269D2*
X942269D1*
X1021379D2*
X1034898D1*
X1089379D2*
X1102898D1*
X438070Y2916601D2*
X491468D1*
X513269D2*
X524163D1*
X546130D2*
X559783D1*
X639295D2*
X648579D1*
X693261D2*
X702604D1*
X718775D2*
X732380D1*
X763269D2*
X769269D1*
X841269D2*
X849269D1*
X891692D2*
X942269D1*
X986269D2*
X995269D1*
X1018912D2*
X1034094D1*
X1054269D2*
X1063269D1*
X1086912D2*
X1102094D1*
X438693Y2915601D2*
X490841D1*
X513269D2*
X524228D1*
X546718D2*
X599269D1*
X638941D2*
X648270D1*
X693605D2*
X702941D1*
X719352D2*
X769269D1*
X841269D2*
X849269D1*
X892466D2*
X942269D1*
X986269D2*
X1033194D1*
X1054269D2*
X1101194D1*
X439466Y2914601D2*
X490033D1*
X513269D2*
X524254D1*
X547475D2*
X599310D1*
X638600D2*
X647931D1*
X693941D2*
X703265D1*
X719971D2*
X769269D1*
X841269D2*
X849269D1*
X893356D2*
X942269D1*
X986269D2*
X1032236D1*
X1054269D2*
X1100236D1*
X440360Y2913601D2*
X489016D1*
X513269D2*
X524264D1*
X548359D2*
X599465D1*
X638278D2*
X647596D1*
X694261D2*
X703640D1*
X720690D2*
X769257D1*
X841269D2*
X849269D1*
X894344D2*
X942269D1*
X986277D2*
X1031215D1*
X1054277D2*
X1099215D1*
X441387Y2912601D2*
X487780D1*
X513273D2*
X524263D1*
X549346D2*
X599807D1*
X637934D2*
X647276D1*
X694605D2*
X704069D1*
X721657D2*
X769222D1*
X841269D2*
X849269D1*
X895498D2*
X942269D1*
X986374D2*
X1030056D1*
X1054374D2*
X1098056D1*
X442699Y2911601D2*
X486301D1*
X513311D2*
X524226D1*
X550503D2*
X600269D1*
X637594D2*
X646937D1*
X694944D2*
X704501D1*
X722972D2*
X768781D1*
X841269D2*
X849269D1*
X896973D2*
X942269D1*
X986621D2*
X1028640D1*
X1054621D2*
X1096640D1*
X444497Y2910601D2*
X484422D1*
X513466D2*
X524072D1*
X552015D2*
X598019D1*
X637246D2*
X646633D1*
X695292D2*
X704860D1*
X724703D2*
X766342D1*
X841269D2*
X849269D1*
X898940D2*
X942269D1*
X988058D2*
X1026865D1*
X1056058D2*
X1094865D1*
X446773Y2909601D2*
X482004D1*
X513807D2*
X523731D1*
X554137D2*
X594606D1*
X636799D2*
X646425D1*
X695739D2*
X705096D1*
X726984D2*
X761813D1*
X841269D2*
X849269D1*
X901452D2*
X942269D1*
X992503D2*
X1024565D1*
X1060503D2*
X1092565D1*
X449269Y2908601D2*
X479269D1*
X514269D2*
X523269D1*
X556991D2*
X589806D1*
X636269D2*
X646269D1*
X696269D2*
X705269D1*
X729929D2*
X755086D1*
X841269D2*
X849269D1*
X904269D2*
X942269D1*
X998849D2*
X1021612D1*
X1066849D2*
X1089612D1*
X560269Y2907601D2*
X584269D1*
X733269D2*
X747269D1*
X1006269D2*
X1018269D1*
X1074269D2*
X1086269D1*
X1010269Y2994601D2*
Y2993601D1*
X1017269Y2994601D2*
X1021457Y2993601D1*
X1024900Y2992601D1*
X1027632Y2991601D1*
X1029821Y2990601D1*
X1031560Y2989601D1*
X1032920Y2988601D1*
X1033977Y2987601D1*
X1034811Y2986601D1*
X1035550Y2985601D1*
X1036256Y2984601D1*
X1036888Y2983601D1*
X1037428Y2982601D1*
X1037866Y2981601D1*
X1038232Y2980601D1*
X1038594Y2979601D1*
X1038937Y2978601D1*
X1039260Y2977601D1*
X1039600Y2976601D1*
X1039906Y2975601D1*
X1040134Y2974601D1*
X1040361Y2973601D1*
X1040646Y2972601D1*
X1040920Y2971601D1*
X1041102Y2970601D1*
X1041201Y2969601D1*
X1041280Y2968601D1*
X1041425Y2967601D1*
X1041671Y2966601D1*
X1041930Y2965601D1*
X1042105Y2964601D1*
X1042198Y2963601D1*
X1042241Y2962601D1*
X1042259Y2961601D1*
X1042265Y2960601D1*
X1042268Y2959601D1*
X1042269Y2958601D1*
Y2957601D1*
Y2956601D1*
Y2955601D1*
Y2954601D1*
Y2953601D1*
Y2952601D1*
Y2951601D1*
Y2950601D1*
Y2949601D1*
Y2948601D1*
Y2947601D1*
Y2946601D1*
Y2945601D1*
Y2944601D1*
Y2943601D1*
Y2942601D1*
X1042265Y2941601D1*
X1042230Y2940601D1*
X1042103Y2939601D1*
X1041863Y2938601D1*
X1041607Y2937601D1*
X1041432Y2936601D1*
X1041336Y2935601D1*
X1041258Y2934601D1*
X1041113Y2933601D1*
X1040867Y2932601D1*
X1040604Y2931601D1*
X1040394Y2930601D1*
X1040173Y2929601D1*
X1039887Y2928601D1*
X1039578Y2927601D1*
X1039269Y2926601D1*
X1038931Y2925601D1*
X1038596Y2924601D1*
X1038272Y2923601D1*
X1037894Y2922601D1*
X1037430Y2921601D1*
X1036867Y2920601D1*
X1036232Y2919601D1*
X1035590Y2918601D1*
X1034898Y2917601D1*
X1034094Y2916601D1*
X1033194Y2915601D1*
X1032236Y2914601D1*
X1031215Y2913601D1*
X1030056Y2912601D1*
X1028640Y2911601D1*
X1026865Y2910601D1*
X1024565Y2909601D1*
X1021612Y2908601D1*
X1018269Y2907601D1*
X1078269Y2994601D2*
Y2993601D1*
X1085269Y2994601D2*
X1089457Y2993601D1*
X1092900Y2992601D1*
X1095632Y2991601D1*
X1097821Y2990601D1*
X1099560Y2989601D1*
X1100920Y2988601D1*
X1101977Y2987601D1*
X1102811Y2986601D1*
X1103550Y2985601D1*
X1104256Y2984601D1*
X1104888Y2983601D1*
X1105428Y2982601D1*
X1105866Y2981601D1*
X1106232Y2980601D1*
X1106594Y2979601D1*
X1106937Y2978601D1*
X1107260Y2977601D1*
X1107600Y2976601D1*
X1107906Y2975601D1*
X1108134Y2974601D1*
X1108361Y2973601D1*
X1108646Y2972601D1*
X1108920Y2971601D1*
X1109102Y2970601D1*
X1109201Y2969601D1*
X1109280Y2968601D1*
X1109425Y2967601D1*
X1109671Y2966601D1*
X1109930Y2965601D1*
X1110105Y2964601D1*
X1110198Y2963601D1*
X1110241Y2962601D1*
X1110259Y2961601D1*
X1110265Y2960601D1*
X1110268Y2959601D1*
X1110269Y2958601D1*
Y2957601D1*
Y2956601D1*
Y2955601D1*
Y2954601D1*
Y2953601D1*
Y2952601D1*
Y2951601D1*
Y2950601D1*
Y2949601D1*
Y2948601D1*
Y2947601D1*
Y2946601D1*
Y2945601D1*
Y2944601D1*
Y2943601D1*
Y2942601D1*
X1110265Y2941601D1*
X1110230Y2940601D1*
X1110103Y2939601D1*
X1109863Y2938601D1*
X1109607Y2937601D1*
X1109432Y2936601D1*
X1109336Y2935601D1*
X1109258Y2934601D1*
X1109113Y2933601D1*
X1108867Y2932601D1*
X1108604Y2931601D1*
X1108394Y2930601D1*
X1108173Y2929601D1*
X1107887Y2928601D1*
X1107578Y2927601D1*
X1107269Y2926601D1*
X1106931Y2925601D1*
X1106596Y2924601D1*
X1106272Y2923601D1*
X1105894Y2922601D1*
X1105430Y2921601D1*
X1104867Y2920601D1*
X1104232Y2919601D1*
X1103590Y2918601D1*
X1102898Y2917601D1*
X1102094Y2916601D1*
X1101194Y2915601D1*
X1100236Y2914601D1*
X1099215Y2913601D1*
X1098056Y2912601D1*
X1096640Y2911601D1*
X1094865Y2910601D1*
X1092565Y2909601D1*
X1089612Y2908601D1*
X1086269Y2907601D1*
X452269Y2993601D2*
X448701Y2992601D1*
X445832Y2991601D1*
X443667Y2990601D1*
X442085Y2989601D1*
X440961Y2988601D1*
X440084Y2987601D1*
X439319Y2986601D1*
X438659Y2985601D1*
X438079Y2984601D1*
X437546Y2983601D1*
X437067Y2982601D1*
X436692Y2981601D1*
X436466Y2980601D1*
X436352Y2979601D1*
X436301Y2978601D1*
X436281Y2977601D1*
X436273Y2976601D1*
X436270Y2975601D1*
Y2974601D1*
X436269Y2973601D1*
Y2972601D1*
Y2971601D1*
Y2970601D1*
Y2969601D1*
Y2968601D1*
Y2967601D1*
Y2966601D1*
Y2965601D1*
Y2964601D1*
Y2963601D1*
Y2962601D1*
Y2961601D1*
Y2960601D1*
Y2959601D1*
Y2958601D1*
Y2957601D1*
Y2956601D1*
Y2955601D1*
Y2954601D1*
Y2953601D1*
Y2952601D1*
Y2951601D1*
Y2950601D1*
Y2949601D1*
Y2948601D1*
Y2947601D1*
Y2946601D1*
Y2945601D1*
Y2944601D1*
Y2943601D1*
Y2942601D1*
Y2941601D1*
Y2940601D1*
Y2939601D1*
Y2938601D1*
Y2937601D1*
Y2936601D1*
Y2935601D1*
Y2934601D1*
Y2933601D1*
Y2932601D1*
Y2931601D1*
Y2930601D1*
Y2929601D1*
Y2928601D1*
Y2927601D1*
Y2926601D1*
Y2925601D1*
Y2924601D1*
Y2923601D1*
X436273Y2922601D1*
X436308Y2921601D1*
X436439Y2920601D1*
X436714Y2919601D1*
X437102Y2918601D1*
X437555Y2917601D1*
X438070Y2916601D1*
X438693Y2915601D1*
X439466Y2914601D1*
X440360Y2913601D1*
X441387Y2912601D1*
X442699Y2911601D1*
X444497Y2910601D1*
X446773Y2909601D1*
X449269Y2908601D1*
X476269Y2993601D2*
X479837Y2992601D1*
X482710Y2991601D1*
X484910Y2990601D1*
X486620Y2989601D1*
X487983Y2988601D1*
X489116Y2987601D1*
X490056Y2986601D1*
X490808Y2985601D1*
X491431Y2984601D1*
X491981Y2983601D1*
X492467Y2982601D1*
X492845Y2981601D1*
X493076Y2980601D1*
X493225Y2979601D1*
X493403Y2978601D1*
X493663Y2977601D1*
X493927Y2976601D1*
X494104Y2975601D1*
X494198Y2974601D1*
X494241Y2973601D1*
X494258Y2972601D1*
X494265Y2971601D1*
X494268Y2970601D1*
X494269Y2969601D1*
Y2968601D1*
Y2967601D1*
Y2966601D1*
Y2965601D1*
Y2964601D1*
Y2963601D1*
Y2962601D1*
Y2961601D1*
Y2960601D1*
Y2959601D1*
Y2958601D1*
Y2957601D1*
Y2956601D1*
Y2955601D1*
Y2954601D1*
Y2953601D1*
Y2952601D1*
Y2951601D1*
Y2950601D1*
Y2949601D1*
Y2948601D1*
Y2947601D1*
Y2946601D1*
Y2945601D1*
Y2944601D1*
Y2943601D1*
Y2942601D1*
Y2941601D1*
Y2940601D1*
Y2939601D1*
Y2938601D1*
Y2937601D1*
Y2936601D1*
Y2935601D1*
Y2934601D1*
Y2933601D1*
Y2932601D1*
Y2931601D1*
Y2930601D1*
Y2929601D1*
X494265Y2928601D1*
X494230Y2927601D1*
X494103Y2926601D1*
X493863Y2925601D1*
X493607Y2924601D1*
X493432Y2923601D1*
X493336Y2922601D1*
X493258Y2921601D1*
X493109Y2920601D1*
X492828Y2919601D1*
X492438Y2918601D1*
X491984Y2917601D1*
X491468Y2916601D1*
X490841Y2915601D1*
X490033Y2914601D1*
X489016Y2913601D1*
X487780Y2912601D1*
X486301Y2911601D1*
X484422Y2910601D1*
X482004Y2909601D1*
X479269Y2908601D1*
X559269Y2993601D2*
X556624Y2992601D1*
X554326Y2991601D1*
X552421Y2990601D1*
X550874Y2989601D1*
X549687Y2988601D1*
X548782Y2987601D1*
X548010Y2986601D1*
X547291Y2985601D1*
X546653Y2984601D1*
X546111Y2983601D1*
X545672Y2982601D1*
X545306Y2981601D1*
X544948Y2980601D1*
X544640Y2979601D1*
X544445Y2978601D1*
X544344Y2977601D1*
X544299Y2976601D1*
X544280Y2975601D1*
X544273Y2974601D1*
X544270Y2973601D1*
X544269Y2972601D1*
Y2971601D1*
Y2970601D1*
Y2969601D1*
Y2968601D1*
Y2967601D1*
Y2966601D1*
Y2965601D1*
Y2964601D1*
X544273Y2963601D1*
X544308Y2962601D1*
X544436Y2961601D1*
X544679Y2960601D1*
X544970Y2959601D1*
X545276Y2958601D1*
X545644Y2957601D1*
X546074Y2956601D1*
X546548Y2955601D1*
X547106Y2954601D1*
X547859Y2953601D1*
X548880Y2952601D1*
X550058Y2951601D1*
X551269Y2950601D1*
X550273Y2949601D1*
X549308Y2948601D1*
X548439Y2947601D1*
X547714Y2946601D1*
X547102Y2945601D1*
X546555Y2944601D1*
X546067Y2943601D1*
X545654Y2942601D1*
X545299Y2941601D1*
X544946Y2940601D1*
X544639Y2939601D1*
X544444Y2938601D1*
X544344Y2937601D1*
X544299Y2936601D1*
X544280Y2935601D1*
X544273Y2934601D1*
X544270Y2933601D1*
X544269Y2932601D1*
Y2931601D1*
Y2930601D1*
Y2929601D1*
Y2928601D1*
Y2927601D1*
Y2926601D1*
Y2925601D1*
X544273Y2924601D1*
X544308Y2923601D1*
X544436Y2922601D1*
X544675Y2921601D1*
X544935Y2920601D1*
X545145Y2919601D1*
X545369Y2918601D1*
X545690Y2917601D1*
X546130Y2916601D1*
X546718Y2915601D1*
X547475Y2914601D1*
X548359Y2913601D1*
X549346Y2912601D1*
X550503Y2911601D1*
X552015Y2910601D1*
X554137Y2909601D1*
X556991Y2908601D1*
X560269Y2907601D1*
X586269Y2993601D2*
X591519Y2992601D1*
X595513Y2991601D1*
X598452Y2990601D1*
X599568Y2989601D1*
X599947Y2988601D1*
X600139Y2987601D1*
X600223Y2986601D1*
X600269Y2985601D1*
X666269Y2993601D2*
X665923Y2992601D1*
X665590Y2991601D1*
X665273Y2990601D1*
X664932Y2989601D1*
X664596Y2988601D1*
X664276Y2987601D1*
X663933Y2986601D1*
X663597Y2985601D1*
X663277Y2984601D1*
X662933Y2983601D1*
X662597Y2982601D1*
X662277Y2981601D1*
X661933Y2980601D1*
X661597Y2979601D1*
X661273Y2978601D1*
X660898Y2977601D1*
X660470Y2976601D1*
X660033Y2975601D1*
X659642Y2974601D1*
X659295Y2973601D1*
X658941Y2972601D1*
X658600Y2971601D1*
X658278Y2970601D1*
X657934Y2969601D1*
X657597Y2968601D1*
X657277Y2967601D1*
X656933Y2966601D1*
X656597Y2965601D1*
X656277Y2964601D1*
X655933Y2963601D1*
X655597Y2962601D1*
X655273Y2961601D1*
X654898Y2960601D1*
X654470Y2959601D1*
X654033Y2958601D1*
X653642Y2957601D1*
X653295Y2956601D1*
X652941Y2955601D1*
X652600Y2954601D1*
X652278Y2953601D1*
X651934Y2952601D1*
X651597Y2951601D1*
X651277Y2950601D1*
X650933Y2949601D1*
X650597Y2948601D1*
X650277Y2947601D1*
X649933Y2946601D1*
X649597Y2945601D1*
X649277Y2944601D1*
X648933Y2943601D1*
X648597Y2942601D1*
X648273Y2941601D1*
X647898Y2940601D1*
X647470Y2939601D1*
X647033Y2938601D1*
X646642Y2937601D1*
X646295Y2936601D1*
X645941Y2935601D1*
X645600Y2934601D1*
X645278Y2933601D1*
X644934Y2932601D1*
X644597Y2931601D1*
X644277Y2930601D1*
X643933Y2929601D1*
X643597Y2928601D1*
X643277Y2927601D1*
X642933Y2926601D1*
X642597Y2925601D1*
X642277Y2924601D1*
X641933Y2923601D1*
X641597Y2922601D1*
X641273Y2921601D1*
X640898Y2920601D1*
X640470Y2919601D1*
X640033Y2918601D1*
X639642Y2917601D1*
X639295Y2916601D1*
X638941Y2915601D1*
X638600Y2914601D1*
X638278Y2913601D1*
X637934Y2912601D1*
X637594Y2911601D1*
X637246Y2910601D1*
X636799Y2909601D1*
X636269Y2908601D1*
X674269Y2993601D2*
X674649Y2992601D1*
X675075Y2991601D1*
X675508Y2990601D1*
X675897Y2989601D1*
X676243Y2988601D1*
X676598Y2987601D1*
X676939Y2986601D1*
X677261Y2985601D1*
X677604Y2984601D1*
X677941Y2983601D1*
X678265Y2982601D1*
X678640Y2981601D1*
X679069Y2980601D1*
X679505Y2979601D1*
X679896Y2978601D1*
X680243Y2977601D1*
X680598Y2976601D1*
X680939Y2975601D1*
X681264Y2974601D1*
X681639Y2973601D1*
X682068Y2972601D1*
X682505Y2971601D1*
X682896Y2970601D1*
X683243Y2969601D1*
X683598Y2968601D1*
X683939Y2967601D1*
X684261Y2966601D1*
X684604Y2965601D1*
X684941Y2964601D1*
X685265Y2963601D1*
X685640Y2962601D1*
X686069Y2961601D1*
X686505Y2960601D1*
X686896Y2959601D1*
X687243Y2958601D1*
X687598Y2957601D1*
X687939Y2956601D1*
X688264Y2955601D1*
X688639Y2954601D1*
X689068Y2953601D1*
X689505Y2952601D1*
X689896Y2951601D1*
X690243Y2950601D1*
X690598Y2949601D1*
X690939Y2948601D1*
X691261Y2947601D1*
X691604Y2946601D1*
X691941Y2945601D1*
X692265Y2944601D1*
X692640Y2943601D1*
X693069Y2942601D1*
X693505Y2941601D1*
X693896Y2940601D1*
X694243Y2939601D1*
X694598Y2938601D1*
X694939Y2937601D1*
X695261Y2936601D1*
X695604Y2935601D1*
X695941Y2934601D1*
X696265Y2933601D1*
X696640Y2932601D1*
X697069Y2931601D1*
X697505Y2930601D1*
X697896Y2929601D1*
X698243Y2928601D1*
X698598Y2927601D1*
X698939Y2926601D1*
X699264Y2925601D1*
X699639Y2924601D1*
X700068Y2923601D1*
X700505Y2922601D1*
X700896Y2921601D1*
X701243Y2920601D1*
X701598Y2919601D1*
X701939Y2918601D1*
X702261Y2917601D1*
X702604Y2916601D1*
X702941Y2915601D1*
X703265Y2914601D1*
X703640Y2913601D1*
X704069Y2912601D1*
X704501Y2911601D1*
X704860Y2910601D1*
X705096Y2909601D1*
X705269Y2908601D1*
X736269Y2993601D2*
X728207Y2992601D1*
X720269Y2991601D1*
Y2990601D1*
Y2989601D1*
Y2988601D1*
Y2987601D1*
Y2986601D1*
Y2985601D1*
X757269Y2993601D2*
X759727Y2992601D1*
X761971Y2991601D1*
X763915Y2990601D1*
X765446Y2989601D1*
X766566Y2988601D1*
X767447Y2987601D1*
X768216Y2986601D1*
X768874Y2985601D1*
X769419Y2984601D1*
X769829Y2983601D1*
X770104Y2982601D1*
X770350Y2981601D1*
X770642Y2980601D1*
X770919Y2979601D1*
X771101Y2978601D1*
X771197Y2977601D1*
X771240Y2976601D1*
X771258Y2975601D1*
X771265Y2974601D1*
X771268Y2973601D1*
X771269Y2972601D1*
Y2971601D1*
Y2970601D1*
Y2969601D1*
Y2968601D1*
Y2967601D1*
Y2966601D1*
Y2965601D1*
Y2964601D1*
Y2963601D1*
X771265Y2962601D1*
X771230Y2961601D1*
X771103Y2960601D1*
X770863Y2959601D1*
X770603Y2958601D1*
X770393Y2957601D1*
X770169Y2956601D1*
X769848Y2955601D1*
X769408Y2954601D1*
X768820Y2953601D1*
X768063Y2952601D1*
X767179Y2951601D1*
X766189Y2950601D1*
X765005Y2949601D1*
X763456Y2948601D1*
X761478Y2947601D1*
X759269Y2946601D1*
X812269Y2993601D2*
X812653Y2992601D1*
X813114Y2991601D1*
X813674Y2990601D1*
X814303Y2989601D1*
X814910Y2988601D1*
X815470Y2987601D1*
X816000Y2986601D1*
X816511Y2985601D1*
X817017Y2984601D1*
X817518Y2983601D1*
X818019Y2982601D1*
X818519Y2981601D1*
X819019Y2980601D1*
X819523Y2979601D1*
X820055Y2978601D1*
X820650Y2977601D1*
X821294Y2976601D1*
X821906Y2975601D1*
X822468Y2974601D1*
X822999Y2973601D1*
X823511Y2972601D1*
X824017Y2971601D1*
X824518Y2970601D1*
X825019Y2969601D1*
X825519Y2968601D1*
X826019Y2967601D1*
X826519Y2966601D1*
X827019Y2965601D1*
X827523Y2964601D1*
X828055Y2963601D1*
X828650Y2962601D1*
X829294Y2961601D1*
X829906Y2960601D1*
X830468Y2959601D1*
X830999Y2958601D1*
X831511Y2957601D1*
X832017Y2956601D1*
X832518Y2955601D1*
X833019Y2954601D1*
X833519Y2953601D1*
X834019Y2952601D1*
X834523Y2951601D1*
X835055Y2950601D1*
X835650Y2949601D1*
X836294Y2948601D1*
X836906Y2947601D1*
X837468Y2946601D1*
X837999Y2945601D1*
X838511Y2944601D1*
X839017Y2943601D1*
X839518Y2942601D1*
X840015Y2941601D1*
X840479Y2940601D1*
X840849Y2939601D1*
X841074Y2938601D1*
X841187Y2937601D1*
X841237Y2936601D1*
X841257Y2935601D1*
X841265Y2934601D1*
X841268Y2933601D1*
X841269Y2932601D1*
Y2931601D1*
Y2930601D1*
Y2929601D1*
Y2928601D1*
Y2927601D1*
Y2926601D1*
Y2925601D1*
Y2924601D1*
Y2923601D1*
Y2922601D1*
Y2921601D1*
Y2920601D1*
Y2919601D1*
Y2918601D1*
Y2917601D1*
Y2916601D1*
Y2915601D1*
Y2914601D1*
Y2913601D1*
Y2912601D1*
Y2911601D1*
Y2910601D1*
Y2909601D1*
Y2908601D1*
X820269Y2993601D2*
X821111Y2992601D1*
X821828Y2991601D1*
X822437Y2990601D1*
X822987Y2989601D1*
X823507Y2988601D1*
X824015Y2987601D1*
X824521Y2986601D1*
X825054Y2985601D1*
X825650Y2984601D1*
X826294Y2983601D1*
X826906Y2982601D1*
X827468Y2981601D1*
X827999Y2980601D1*
X828511Y2979601D1*
X829017Y2978601D1*
X829518Y2977601D1*
X830019Y2976601D1*
X830519Y2975601D1*
X831019Y2974601D1*
X831523Y2973601D1*
X832055Y2972601D1*
X832650Y2971601D1*
X833294Y2970601D1*
X833906Y2969601D1*
X834468Y2968601D1*
X834999Y2967601D1*
X835511Y2966601D1*
X836017Y2965601D1*
X836518Y2964601D1*
X837019Y2963601D1*
X837522Y2962601D1*
X838055Y2961601D1*
X838650Y2960601D1*
X839294Y2959601D1*
X839906Y2958601D1*
X840468Y2957601D1*
X840999Y2956601D1*
X841511Y2955601D1*
X842017Y2954601D1*
X842518Y2953601D1*
X843019Y2952601D1*
X843522Y2951601D1*
X844048Y2950601D1*
X844632Y2949601D1*
X845269Y2948601D1*
X868269Y2993601D2*
X867649Y2992601D1*
X867079Y2991601D1*
X866543Y2990601D1*
X866029Y2989601D1*
X865522Y2988601D1*
X865021Y2987601D1*
X864519Y2986601D1*
X864020Y2985601D1*
X863519Y2984601D1*
X863019Y2983601D1*
X862519Y2982601D1*
X862019Y2981601D1*
X861519Y2980601D1*
X861019Y2979601D1*
X860519Y2978601D1*
X860019Y2977601D1*
X859519Y2976601D1*
X859019Y2975601D1*
X858519Y2974601D1*
X858019Y2973601D1*
X857519Y2972601D1*
X857019Y2971601D1*
X856519Y2970601D1*
X856019Y2969601D1*
X855519Y2968601D1*
X855019Y2967601D1*
X854523Y2966601D1*
X854055Y2965601D1*
X853650Y2964601D1*
X853294Y2963601D1*
X852906Y2962601D1*
X852468Y2961601D1*
X851999Y2960601D1*
X851511Y2959601D1*
X851017Y2958601D1*
X850518Y2957601D1*
X850019Y2956601D1*
X849519Y2955601D1*
X849019Y2954601D1*
X848519Y2953601D1*
X848012Y2952601D1*
X847438Y2951601D1*
X846655Y2950601D1*
X845555Y2949601D1*
X844269Y2948601D1*
X876269Y2993601D2*
X875889Y2992601D1*
X875459Y2991601D1*
X874995Y2990601D1*
X874509Y2989601D1*
X874016Y2988601D1*
X873517Y2987601D1*
X873019Y2986601D1*
X872518Y2985601D1*
X872019Y2984601D1*
X871523Y2983601D1*
X871055Y2982601D1*
X870650Y2981601D1*
X870294Y2980601D1*
X869906Y2979601D1*
X869468Y2978601D1*
X868999Y2977601D1*
X868511Y2976601D1*
X868017Y2975601D1*
X867518Y2974601D1*
X867019Y2973601D1*
X866519Y2972601D1*
X866019Y2971601D1*
X865519Y2970601D1*
X865019Y2969601D1*
X864519Y2968601D1*
X864019Y2967601D1*
X863519Y2966601D1*
X863019Y2965601D1*
X862519Y2964601D1*
X862019Y2963601D1*
X861519Y2962601D1*
X861019Y2961601D1*
X860519Y2960601D1*
X860019Y2959601D1*
X859519Y2958601D1*
X859019Y2957601D1*
X858519Y2956601D1*
X858019Y2955601D1*
X857519Y2954601D1*
X857019Y2953601D1*
X856519Y2952601D1*
X856019Y2951601D1*
X855519Y2950601D1*
X855019Y2949601D1*
X854519Y2948601D1*
X854019Y2947601D1*
X853519Y2946601D1*
X853019Y2945601D1*
X852519Y2944601D1*
X852019Y2943601D1*
X851519Y2942601D1*
X851019Y2941601D1*
X850523Y2940601D1*
X850058Y2939601D1*
X849689Y2938601D1*
X849464Y2937601D1*
X849351Y2936601D1*
X849301Y2935601D1*
X849281Y2934601D1*
X849273Y2933601D1*
X849270Y2932601D1*
Y2931601D1*
X849269Y2930601D1*
Y2929601D1*
Y2928601D1*
Y2927601D1*
Y2926601D1*
Y2925601D1*
Y2924601D1*
Y2923601D1*
Y2922601D1*
Y2921601D1*
Y2920601D1*
Y2919601D1*
Y2918601D1*
Y2917601D1*
Y2916601D1*
Y2915601D1*
Y2914601D1*
Y2913601D1*
Y2912601D1*
Y2911601D1*
Y2910601D1*
Y2909601D1*
Y2908601D1*
X907269Y2993601D2*
X903584Y2992601D1*
X900592Y2991601D1*
X898373Y2990601D1*
X896744Y2989601D1*
X895462Y2988601D1*
X894379Y2987601D1*
X893465Y2986601D1*
X892723Y2985601D1*
X892105Y2984601D1*
X891552Y2983601D1*
X891032Y2982601D1*
X890527Y2981601D1*
X890056Y2980601D1*
X889650Y2979601D1*
X889298Y2978601D1*
X888945Y2977601D1*
X888639Y2976601D1*
X888444Y2975601D1*
X888344Y2974601D1*
X888299Y2973601D1*
X888280Y2972601D1*
X888273Y2971601D1*
X888270Y2970601D1*
X888269Y2969601D1*
X888273Y2968601D1*
X888308Y2967601D1*
X888436Y2966601D1*
X888679Y2965601D1*
X888970Y2964601D1*
X889272Y2963601D1*
X889608Y2962601D1*
X889946Y2961601D1*
X890301Y2960601D1*
X890771Y2959601D1*
X891355Y2958601D1*
X892006Y2957601D1*
X892817Y2956601D1*
X893895Y2955601D1*
X895206Y2954601D1*
X896690Y2953601D1*
X898269Y2952601D1*
X896807Y2951601D1*
X895520Y2950601D1*
X894375Y2949601D1*
X893314Y2948601D1*
X892327Y2947601D1*
X891480Y2946601D1*
X890847Y2945601D1*
X890381Y2944601D1*
X889974Y2943601D1*
X889612Y2942601D1*
X889282Y2941601D1*
X888939Y2940601D1*
X888637Y2939601D1*
X888443Y2938601D1*
X888343Y2937601D1*
X888298Y2936601D1*
X888280Y2935601D1*
X888273Y2934601D1*
X888270Y2933601D1*
X888269Y2932601D1*
Y2931601D1*
Y2930601D1*
Y2929601D1*
Y2928601D1*
Y2927601D1*
X888273Y2926601D1*
X888308Y2925601D1*
X888436Y2924601D1*
X888679Y2923601D1*
X888970Y2922601D1*
X889276Y2921601D1*
X889644Y2920601D1*
X890074Y2919601D1*
X890544Y2918601D1*
X891067Y2917601D1*
X891692Y2916601D1*
X892466Y2915601D1*
X893356Y2914601D1*
X894344Y2913601D1*
X895498Y2912601D1*
X896973Y2911601D1*
X898940Y2910601D1*
X901452Y2909601D1*
X904269Y2908601D1*
X942269Y2993601D2*
Y2992601D1*
Y2991601D1*
Y2990601D1*
Y2989601D1*
Y2988601D1*
Y2987601D1*
Y2986601D1*
Y2985601D1*
Y2984601D1*
Y2983601D1*
Y2982601D1*
Y2981601D1*
Y2980601D1*
Y2979601D1*
Y2978601D1*
Y2977601D1*
Y2976601D1*
Y2975601D1*
Y2974601D1*
Y2973601D1*
Y2972601D1*
Y2971601D1*
Y2970601D1*
Y2969601D1*
Y2968601D1*
Y2967601D1*
Y2966601D1*
Y2965601D1*
Y2964601D1*
Y2963601D1*
Y2962601D1*
Y2961601D1*
Y2960601D1*
Y2959601D1*
Y2958601D1*
Y2957601D1*
Y2956601D1*
Y2955601D1*
Y2954601D1*
Y2953601D1*
Y2952601D1*
Y2951601D1*
Y2950601D1*
Y2949601D1*
Y2948601D1*
Y2947601D1*
Y2946601D1*
Y2945601D1*
Y2944601D1*
Y2943601D1*
Y2942601D1*
Y2941601D1*
Y2940601D1*
Y2939601D1*
Y2938601D1*
Y2937601D1*
Y2936601D1*
Y2935601D1*
Y2934601D1*
Y2933601D1*
Y2932601D1*
Y2931601D1*
Y2930601D1*
Y2929601D1*
Y2928601D1*
Y2927601D1*
Y2926601D1*
Y2925601D1*
Y2924601D1*
Y2923601D1*
Y2922601D1*
Y2921601D1*
Y2920601D1*
Y2919601D1*
Y2918601D1*
Y2917601D1*
Y2916601D1*
Y2915601D1*
Y2914601D1*
Y2913601D1*
Y2912601D1*
Y2911601D1*
Y2910601D1*
Y2909601D1*
Y2908601D1*
X998269Y2993601D2*
X992207Y2992601D1*
X986269Y2991601D1*
Y2990601D1*
Y2989601D1*
Y2988601D1*
Y2987601D1*
Y2986601D1*
Y2985601D1*
X1066269Y2993601D2*
X1060207Y2992601D1*
X1054269Y2991601D1*
Y2990601D1*
Y2989601D1*
Y2988601D1*
Y2987601D1*
Y2986601D1*
Y2985601D1*
X744269Y2986601D2*
X743269Y2985601D1*
X750269Y2986601D2*
X753834Y2985601D1*
X756833Y2984601D1*
X759061Y2983601D1*
X760592Y2982601D1*
X761617Y2981601D1*
X762321Y2980601D1*
X762789Y2979601D1*
X763052Y2978601D1*
X763179Y2977601D1*
X763234Y2976601D1*
X763256Y2975601D1*
X763265Y2974601D1*
X763268Y2973601D1*
X763269Y2972601D1*
Y2971601D1*
Y2970601D1*
Y2969601D1*
Y2968601D1*
Y2967601D1*
Y2966601D1*
Y2965601D1*
Y2964601D1*
X763265Y2963601D1*
X763230Y2962601D1*
X763099Y2961601D1*
X762824Y2960601D1*
X762432Y2959601D1*
X761929Y2958601D1*
X761311Y2957601D1*
X759647Y2956601D1*
X756972Y2955601D1*
X753336Y2954601D1*
X749269Y2953601D1*
X1000269Y2986601D2*
X999269Y2985601D1*
X1016269Y2986601D2*
X1019834Y2985601D1*
X1022836Y2984601D1*
X1025100Y2983601D1*
X1026759Y2982601D1*
X1028027Y2981601D1*
X1029022Y2980601D1*
X1029796Y2979601D1*
X1030427Y2978601D1*
X1030980Y2977601D1*
X1031470Y2976601D1*
X1031884Y2975601D1*
X1032239Y2974601D1*
X1032592Y2973601D1*
X1032899Y2972601D1*
X1033098Y2971601D1*
X1033233Y2970601D1*
X1033406Y2969601D1*
X1033664Y2968601D1*
X1033928Y2967601D1*
X1034104Y2966601D1*
X1034198Y2965601D1*
X1034241Y2964601D1*
X1034258Y2963601D1*
X1034265Y2962601D1*
X1034268Y2961601D1*
X1034269Y2960601D1*
Y2959601D1*
Y2958601D1*
Y2957601D1*
Y2956601D1*
Y2955601D1*
Y2954601D1*
Y2953601D1*
Y2952601D1*
Y2951601D1*
Y2950601D1*
Y2949601D1*
Y2948601D1*
Y2947601D1*
Y2946601D1*
Y2945601D1*
Y2944601D1*
Y2943601D1*
Y2942601D1*
Y2941601D1*
X1034265Y2940601D1*
X1034230Y2939601D1*
X1034103Y2938601D1*
X1033863Y2937601D1*
X1033607Y2936601D1*
X1033428Y2935601D1*
X1033300Y2934601D1*
X1033131Y2933601D1*
X1032870Y2932601D1*
X1032571Y2931601D1*
X1032263Y2930601D1*
X1031895Y2929601D1*
X1031464Y2928601D1*
X1030998Y2927601D1*
X1030510Y2926601D1*
X1030013Y2925601D1*
X1029479Y2924601D1*
X1028849Y2923601D1*
X1028073Y2922601D1*
X1027183Y2921601D1*
X1026190Y2920601D1*
X1025005Y2919601D1*
X1023440Y2918601D1*
X1021379Y2917601D1*
X1018912Y2916601D1*
X1016269Y2915601D1*
X1068269Y2986601D2*
X1067269Y2985601D1*
X1084269Y2986601D2*
X1087834Y2985601D1*
X1090836Y2984601D1*
X1093100Y2983601D1*
X1094759Y2982601D1*
X1096027Y2981601D1*
X1097022Y2980601D1*
X1097796Y2979601D1*
X1098427Y2978601D1*
X1098980Y2977601D1*
X1099470Y2976601D1*
X1099884Y2975601D1*
X1100239Y2974601D1*
X1100592Y2973601D1*
X1100899Y2972601D1*
X1101098Y2971601D1*
X1101233Y2970601D1*
X1101406Y2969601D1*
X1101664Y2968601D1*
X1101928Y2967601D1*
X1102104Y2966601D1*
X1102198Y2965601D1*
X1102241Y2964601D1*
X1102258Y2963601D1*
X1102265Y2962601D1*
X1102268Y2961601D1*
X1102269Y2960601D1*
Y2959601D1*
Y2958601D1*
Y2957601D1*
Y2956601D1*
Y2955601D1*
Y2954601D1*
Y2953601D1*
Y2952601D1*
Y2951601D1*
Y2950601D1*
Y2949601D1*
Y2948601D1*
Y2947601D1*
Y2946601D1*
Y2945601D1*
Y2944601D1*
Y2943601D1*
Y2942601D1*
Y2941601D1*
X1102265Y2940601D1*
X1102230Y2939601D1*
X1102103Y2938601D1*
X1101863Y2937601D1*
X1101607Y2936601D1*
X1101428Y2935601D1*
X1101300Y2934601D1*
X1101131Y2933601D1*
X1100870Y2932601D1*
X1100571Y2931601D1*
X1100263Y2930601D1*
X1099895Y2929601D1*
X1099464Y2928601D1*
X1098998Y2927601D1*
X1098510Y2926601D1*
X1098013Y2925601D1*
X1097479Y2924601D1*
X1096849Y2923601D1*
X1096073Y2922601D1*
X1095183Y2921601D1*
X1094190Y2920601D1*
X1093005Y2919601D1*
X1091440Y2918601D1*
X1089379Y2917601D1*
X1086912Y2916601D1*
X1084269Y2915601D1*
X452269Y2985601D2*
X450315Y2984601D1*
X448517Y2983601D1*
X447055Y2982601D1*
X445996Y2981601D1*
X445252Y2980601D1*
X444726Y2979601D1*
X444326Y2978601D1*
X443955Y2977601D1*
X443642Y2976601D1*
X443445Y2975601D1*
X443344Y2974601D1*
X443299Y2973601D1*
X443280Y2972601D1*
X443273Y2971601D1*
X443270Y2970601D1*
X443269Y2969601D1*
Y2968601D1*
Y2967601D1*
Y2966601D1*
Y2965601D1*
Y2964601D1*
Y2963601D1*
Y2962601D1*
Y2961601D1*
Y2960601D1*
Y2959601D1*
Y2958601D1*
Y2957601D1*
Y2956601D1*
Y2955601D1*
Y2954601D1*
Y2953601D1*
Y2952601D1*
Y2951601D1*
Y2950601D1*
Y2949601D1*
Y2948601D1*
Y2947601D1*
Y2946601D1*
Y2945601D1*
Y2944601D1*
Y2943601D1*
Y2942601D1*
Y2941601D1*
Y2940601D1*
Y2939601D1*
Y2938601D1*
Y2937601D1*
Y2936601D1*
Y2935601D1*
Y2934601D1*
Y2933601D1*
Y2932601D1*
Y2931601D1*
Y2930601D1*
Y2929601D1*
X443273Y2928601D1*
X443308Y2927601D1*
X443436Y2926601D1*
X443675Y2925601D1*
X443935Y2924601D1*
X444149Y2923601D1*
X444408Y2922601D1*
X444860Y2921601D1*
X445579Y2920601D1*
X446589Y2919601D1*
X447924Y2918601D1*
X449535Y2917601D1*
X451269Y2916601D1*
X475269Y2985601D2*
X477992Y2984601D1*
X480282Y2983601D1*
X481967Y2982601D1*
X483171Y2981601D1*
X484068Y2980601D1*
X484703Y2979601D1*
X485164Y2978601D1*
X485563Y2977601D1*
X485888Y2976601D1*
X486090Y2975601D1*
X486193Y2974601D1*
X486239Y2973601D1*
X486258Y2972601D1*
X486265Y2971601D1*
X486268Y2970601D1*
X486269Y2969601D1*
Y2968601D1*
Y2967601D1*
Y2966601D1*
Y2965601D1*
Y2964601D1*
Y2963601D1*
Y2962601D1*
Y2961601D1*
Y2960601D1*
Y2959601D1*
Y2958601D1*
Y2957601D1*
Y2956601D1*
Y2955601D1*
Y2954601D1*
Y2953601D1*
Y2952601D1*
Y2951601D1*
Y2950601D1*
Y2949601D1*
Y2948601D1*
Y2947601D1*
Y2946601D1*
Y2945601D1*
Y2944601D1*
Y2943601D1*
Y2942601D1*
Y2941601D1*
Y2940601D1*
Y2939601D1*
Y2938601D1*
Y2937601D1*
Y2936601D1*
Y2935601D1*
Y2934601D1*
Y2933601D1*
Y2932601D1*
Y2931601D1*
Y2930601D1*
Y2929601D1*
Y2928601D1*
X486265Y2927601D1*
X486230Y2926601D1*
X486103Y2925601D1*
X485859Y2924601D1*
X485564Y2923601D1*
X485219Y2922601D1*
X484681Y2921601D1*
X483810Y2920601D1*
X482549Y2919601D1*
X480952Y2918601D1*
X479149Y2917601D1*
X477269Y2916601D1*
X561269Y2985601D2*
X559311Y2984601D1*
X557482Y2983601D1*
X555924Y2982601D1*
X554717Y2981601D1*
X553833Y2980601D1*
X553185Y2979601D1*
X552737Y2978601D1*
X552482Y2977601D1*
X552358Y2976601D1*
X552303Y2975601D1*
X552282Y2974601D1*
X552273Y2973601D1*
X552271Y2972601D1*
X552270Y2971601D1*
X552269Y2970601D1*
Y2969601D1*
Y2968601D1*
Y2967601D1*
Y2966601D1*
X552273Y2965601D1*
X552308Y2964601D1*
X552439Y2963601D1*
X552714Y2962601D1*
X553102Y2961601D1*
X553559Y2960601D1*
X554117Y2959601D1*
X554946Y2958601D1*
X556291Y2957601D1*
X558240Y2956601D1*
X560656Y2955601D1*
X563269Y2954601D1*
X908269Y2985601D2*
X905508Y2984601D1*
X903094Y2983601D1*
X901200Y2982601D1*
X899832Y2981601D1*
X898873Y2980601D1*
X898162Y2979601D1*
X897577Y2978601D1*
X897078Y2977601D1*
X896696Y2976601D1*
X896467Y2975601D1*
X896352Y2974601D1*
X896302Y2973601D1*
X896281Y2972601D1*
X896273Y2971601D1*
X896270Y2970601D1*
X896273Y2969601D1*
X896308Y2968601D1*
X896436Y2967601D1*
X896679Y2966601D1*
X896974Y2965601D1*
X897311Y2964601D1*
X897779Y2963601D1*
X898391Y2962601D1*
X899145Y2961601D1*
X900182Y2960601D1*
X901737Y2959601D1*
X904017Y2958601D1*
X906986Y2957601D1*
X910269Y2956601D1*
X934269Y2985601D2*
Y2984601D1*
Y2983601D1*
Y2982601D1*
Y2981601D1*
Y2980601D1*
Y2979601D1*
Y2978601D1*
Y2977601D1*
Y2976601D1*
Y2975601D1*
Y2974601D1*
Y2973601D1*
Y2972601D1*
Y2971601D1*
Y2970601D1*
Y2969601D1*
Y2968601D1*
Y2967601D1*
Y2966601D1*
Y2965601D1*
Y2964601D1*
Y2963601D1*
Y2962601D1*
Y2961601D1*
Y2960601D1*
Y2959601D1*
Y2958601D1*
Y2957601D1*
Y2956601D1*
X669269Y2980601D2*
X669231Y2979601D1*
X669103Y2978601D1*
X668859Y2977601D1*
X668568Y2976601D1*
X668266Y2975601D1*
X667930Y2974601D1*
X667596Y2973601D1*
X667276Y2972601D1*
X666933Y2971601D1*
X666597Y2970601D1*
X666277Y2969601D1*
X665933Y2968601D1*
X665597Y2967601D1*
X665277Y2966601D1*
X664933Y2965601D1*
X664597Y2964601D1*
X664277Y2963601D1*
X663933Y2962601D1*
X663597Y2961601D1*
X663277Y2960601D1*
X662933Y2959601D1*
X662597Y2958601D1*
X662273Y2957601D1*
X661898Y2956601D1*
X661470Y2955601D1*
X661033Y2954601D1*
X660642Y2953601D1*
X660295Y2952601D1*
X659941Y2951601D1*
X659600Y2950601D1*
X659278Y2949601D1*
X658934Y2948601D1*
X658597Y2947601D1*
X658277Y2946601D1*
X657933Y2945601D1*
X657593Y2944601D1*
X657234Y2943601D1*
X656731Y2942601D1*
X656045Y2941601D1*
X655269Y2940601D1*
X671269Y2980601D2*
X671424Y2979601D1*
X671675Y2978601D1*
X671969Y2977601D1*
X672272Y2976601D1*
X672608Y2975601D1*
X672942Y2974601D1*
X673266Y2973601D1*
X673640Y2972601D1*
X674069Y2971601D1*
X674505Y2970601D1*
X674896Y2969601D1*
X675243Y2968601D1*
X675598Y2967601D1*
X675939Y2966601D1*
X676261Y2965601D1*
X676604Y2964601D1*
X676941Y2963601D1*
X677261Y2962601D1*
X677605Y2961601D1*
X677941Y2960601D1*
X678261Y2959601D1*
X678605Y2958601D1*
X678941Y2957601D1*
X679265Y2956601D1*
X679640Y2955601D1*
X680069Y2954601D1*
X680505Y2953601D1*
X680896Y2952601D1*
X681243Y2951601D1*
X681598Y2950601D1*
X681939Y2949601D1*
X682261Y2948601D1*
X682604Y2947601D1*
X682941Y2946601D1*
X683261Y2945601D1*
X683601Y2944601D1*
X683902Y2943601D1*
X684096Y2942601D1*
X684201Y2941601D1*
X684269Y2940601D1*
X574269Y2954601D2*
Y2953601D1*
X592269D2*
Y2952601D1*
Y2951601D1*
Y2950601D1*
Y2949601D1*
Y2948601D1*
Y2947601D1*
X728269Y2953601D2*
X726191Y2952601D1*
X724373Y2951601D1*
X722858Y2950601D1*
X721686Y2949601D1*
X720815Y2948601D1*
X720141Y2947601D1*
X719569Y2946601D1*
X719072Y2945601D1*
X718656Y2944601D1*
X718300Y2943601D1*
X717946Y2942601D1*
X717639Y2941601D1*
X717444Y2940601D1*
X717344Y2939601D1*
X717299Y2938601D1*
X717280Y2937601D1*
X717273Y2936601D1*
X717270Y2935601D1*
X717269Y2934601D1*
Y2933601D1*
Y2932601D1*
Y2931601D1*
Y2930601D1*
Y2929601D1*
Y2928601D1*
Y2927601D1*
Y2926601D1*
Y2925601D1*
Y2924601D1*
Y2923601D1*
X717273Y2922601D1*
X717308Y2921601D1*
X717436Y2920601D1*
X717679Y2919601D1*
X717974Y2918601D1*
X718311Y2917601D1*
X718775Y2916601D1*
X719352Y2915601D1*
X719971Y2914601D1*
X720690Y2913601D1*
X721657Y2912601D1*
X722972Y2911601D1*
X724703Y2910601D1*
X726984Y2909601D1*
X729929Y2908601D1*
X733269Y2907601D1*
X906269Y2948601D2*
X904315Y2947601D1*
X902517Y2946601D1*
X901051Y2945601D1*
X899957Y2944601D1*
X899089Y2943601D1*
X898356Y2942601D1*
X897791Y2941601D1*
X897358Y2940601D1*
X896969Y2939601D1*
X896644Y2938601D1*
X896408Y2937601D1*
X896178Y2936601D1*
X895893Y2935601D1*
X895618Y2934601D1*
X895436Y2933601D1*
X895345Y2932601D1*
X895337Y2931601D1*
X895446Y2930601D1*
X895679Y2929601D1*
X895937Y2928601D1*
X896145Y2927601D1*
X896365Y2926601D1*
X896651Y2925601D1*
X896964Y2924601D1*
X897312Y2923601D1*
X897813Y2922601D1*
X898526Y2921601D1*
X899459Y2920601D1*
X900728Y2919601D1*
X902507Y2918601D1*
X904776Y2917601D1*
X907269Y2916601D1*
X934269Y2948601D2*
Y2947601D1*
Y2946601D1*
Y2945601D1*
Y2944601D1*
Y2943601D1*
Y2942601D1*
Y2941601D1*
Y2940601D1*
Y2939601D1*
Y2938601D1*
Y2937601D1*
Y2936601D1*
Y2935601D1*
Y2934601D1*
Y2933601D1*
Y2932601D1*
Y2931601D1*
Y2930601D1*
Y2929601D1*
Y2928601D1*
Y2927601D1*
Y2926601D1*
Y2925601D1*
Y2924601D1*
Y2923601D1*
Y2922601D1*
Y2921601D1*
Y2920601D1*
Y2919601D1*
Y2918601D1*
Y2917601D1*
Y2916601D1*
X577269Y2947601D2*
X576269Y2946601D1*
X563269D2*
X560662Y2945601D1*
X558492Y2944601D1*
X556827Y2943601D1*
X555541Y2942601D1*
X554563Y2941601D1*
X553878Y2940601D1*
X553392Y2939601D1*
X552982Y2938601D1*
X552652Y2937601D1*
X552449Y2936601D1*
X552345Y2935601D1*
X552299Y2934601D1*
X552280Y2933601D1*
X552273Y2932601D1*
X552270Y2931601D1*
X552269Y2930601D1*
Y2929601D1*
Y2928601D1*
Y2927601D1*
Y2926601D1*
X552273Y2925601D1*
X552308Y2924601D1*
X552439Y2923601D1*
X552718Y2922601D1*
X553141Y2921601D1*
X553729Y2920601D1*
X554562Y2919601D1*
X555774Y2918601D1*
X557526Y2917601D1*
X559783Y2916601D1*
X562269Y2915601D1*
X736269Y2946601D2*
X732863Y2945601D1*
X730143Y2944601D1*
X728270Y2943601D1*
X727061Y2942601D1*
X726273Y2941601D1*
X725766Y2940601D1*
X725454Y2939601D1*
X725195Y2938601D1*
X724899Y2937601D1*
X724620Y2936601D1*
X724437Y2935601D1*
X724341Y2934601D1*
X724298Y2933601D1*
X724280Y2932601D1*
X724273Y2931601D1*
X724270Y2930601D1*
X724269Y2929601D1*
Y2928601D1*
X724273Y2927601D1*
X724308Y2926601D1*
X724436Y2925601D1*
X724679Y2924601D1*
X724974Y2923601D1*
X725315Y2922601D1*
X725818Y2921601D1*
X726562Y2920601D1*
X727583Y2919601D1*
X728925Y2918601D1*
X730561Y2917601D1*
X732380Y2916601D1*
X734269Y2915601D1*
X653269Y2932601D2*
X653114Y2931601D1*
X652863Y2930601D1*
X652569Y2929601D1*
X652266Y2928601D1*
X651930Y2927601D1*
X651596Y2926601D1*
X651276Y2925601D1*
X650933Y2924601D1*
X650597Y2923601D1*
X650277Y2922601D1*
X649937Y2921601D1*
X649632Y2920601D1*
X649404Y2919601D1*
X649177Y2918601D1*
X648888Y2917601D1*
X648579Y2916601D1*
X648270Y2915601D1*
X647931Y2914601D1*
X647596Y2913601D1*
X647276Y2912601D1*
X646937Y2911601D1*
X646633Y2910601D1*
X646425Y2909601D1*
X646269Y2908601D1*
X688269Y2932601D2*
X688424Y2931601D1*
X688675Y2930601D1*
X688969Y2929601D1*
X689272Y2928601D1*
X689608Y2927601D1*
X689942Y2926601D1*
X690262Y2925601D1*
X690605Y2924601D1*
X690941Y2923601D1*
X691261Y2922601D1*
X691605Y2921601D1*
X691941Y2920601D1*
X692261Y2919601D1*
X692605Y2918601D1*
X692941Y2917601D1*
X693261Y2916601D1*
X693605Y2915601D1*
X693941Y2914601D1*
X694261Y2913601D1*
X694605Y2912601D1*
X694944Y2911601D1*
X695292Y2910601D1*
X695739Y2909601D1*
X696269Y2908601D1*
X513269Y2919601D2*
Y2918601D1*
Y2917601D1*
Y2916601D1*
Y2915601D1*
Y2914601D1*
Y2913601D1*
X513273Y2912601D1*
X513311Y2911601D1*
X513466Y2910601D1*
X513807Y2909601D1*
X514269Y2908601D1*
X523269Y2919601D2*
X523731Y2918601D1*
X524018Y2917601D1*
X524163Y2916601D1*
X524228Y2915601D1*
X524254Y2914601D1*
X524264Y2913601D1*
X524263Y2912601D1*
X524226Y2911601D1*
X524072Y2910601D1*
X523731Y2909601D1*
X523269Y2908601D1*
X763269Y2916601D2*
Y2915601D1*
X769269Y2916601D2*
Y2915601D1*
Y2914601D1*
X769257Y2913601D1*
X769222Y2912601D1*
X768781Y2911601D1*
X766342Y2910601D1*
X761813Y2909601D1*
X755086Y2908601D1*
X747269Y2907601D1*
X986269Y2916601D2*
Y2915601D1*
Y2914601D1*
X986277Y2913601D1*
X986374Y2912601D1*
X986621Y2911601D1*
X988058Y2910601D1*
X992503Y2909601D1*
X998849Y2908601D1*
X1006269Y2907601D1*
X995269Y2916601D2*
Y2915601D1*
X1054269Y2916601D2*
Y2915601D1*
Y2914601D1*
X1054277Y2913601D1*
X1054374Y2912601D1*
X1054621Y2911601D1*
X1056058Y2910601D1*
X1060503Y2909601D1*
X1066849Y2908601D1*
X1074269Y2907601D1*
X1063269Y2916601D2*
Y2915601D1*
X599269D2*
X599310Y2914601D1*
X599465Y2913601D1*
X599807Y2912601D1*
X600269Y2911601D1*
X598019Y2910601D1*
X594606Y2909601D1*
X589806Y2908601D1*
X584269Y2907601D1*
X1041285Y3890331D2*
D74*
Y3860187D1*
X1031237D1*
X1026926Y3861647D1*
X1024041Y3864499D1*
X1022615Y3867384D1*
X1021189Y3871661D1*
Y3878858D1*
X1022615Y3883169D1*
X1024041Y3886020D1*
X1026926Y3888906D1*
X1031237Y3890331D1*
X1041285D1*
X1011925D2*
Y3860187D1*
X982566Y3886020D2*
X985418Y3888906D1*
X989729Y3890331D1*
X995466D1*
X999777Y3888906D1*
X1002662Y3886020D1*
Y3883169D1*
X1001203Y3880283D1*
X999777Y3878858D1*
X996925Y3877432D1*
X988303Y3874547D1*
X985418Y3873121D1*
X983992Y3871661D1*
X982566Y3868810D1*
Y3864499D1*
X985418Y3861647D1*
X989729Y3860187D1*
X995466D1*
X999777Y3861647D1*
X1002662Y3864499D1*
X973302Y3874547D2*
X960369D1*
X956091Y3875972D1*
X954632Y3877432D1*
X953206Y3880283D1*
Y3884595D1*
X954632Y3887446D1*
X956091Y3888906D1*
X960369Y3890331D1*
X973302D1*
Y3860187D1*
X943943Y3884561D2*
X941058Y3886020D1*
X936747Y3890298D1*
Y3860187D1*
X664550Y2712934D2*
Y2689986D1*
X665976Y2685675D1*
X667435Y2684249D1*
X670287Y2682790D1*
X673172D1*
X676024Y2684249D1*
X677450Y2685675D1*
X678909Y2689986D1*
Y2692838D1*
X655287Y2707164D2*
X652402Y2708623D1*
X648091Y2712901D1*
Y2682790D1*
X1379729Y2373104D2*
Y2350157D1*
X1381155Y2345846D1*
X1382614Y2344420D1*
X1385466Y2342960D1*
X1388351D1*
X1391203Y2344420D1*
X1392629Y2345846D1*
X1394088Y2350157D1*
Y2353008D1*
X1369006Y2365908D2*
Y2367334D1*
X1367580Y2370219D1*
X1366154Y2371645D1*
X1363269Y2373071D1*
X1357532D1*
X1354680Y2371645D1*
X1353254Y2370219D1*
X1351795Y2367334D1*
Y2364482D1*
X1353254Y2361597D1*
X1356106Y2357319D1*
X1370465Y2342960D1*
X1350369D1*
X671000Y2237934D2*
Y2214986D1*
X672426Y2210675D1*
X673885Y2209249D1*
X676737Y2207790D1*
X679622D1*
X682474Y2209249D1*
X683900Y2210675D1*
X685359Y2214986D1*
Y2217838D1*
X658852Y2237901D2*
X643100D1*
X651689Y2226427D1*
X647378D1*
X644526Y2225001D1*
X643100Y2223575D1*
X641641Y2219264D1*
Y2216412D1*
X643100Y2212101D1*
X645952Y2209216D1*
X650263Y2207790D1*
X654574D1*
X658852Y2209216D1*
X660278Y2210675D1*
X661737Y2213527D1*
X1102712Y2237934D2*
Y2214986D1*
X1104138Y2210675D1*
X1105597Y2209249D1*
X1108449Y2207790D1*
X1111334D1*
X1114186Y2209249D1*
X1115612Y2210675D1*
X1117071Y2214986D1*
Y2217838D1*
X1079089Y2207790D2*
Y2237901D1*
X1093448Y2217838D1*
X1071926D1*
X671000Y1762934D2*
Y1739986D1*
X672426Y1735675D1*
X673885Y1734249D1*
X676737Y1732790D1*
X679622D1*
X682474Y1734249D1*
X683900Y1735675D1*
X685359Y1739986D1*
Y1742838D1*
X644526Y1762901D2*
X658852D1*
X660278Y1750001D1*
X658852Y1751427D1*
X654541Y1752886D1*
X650263D1*
X645952Y1751427D1*
X643067Y1748575D1*
X641641Y1744264D1*
Y1741412D1*
X643067Y1737101D1*
X645952Y1734216D1*
X650263Y1732790D1*
X654541D1*
X658852Y1734216D1*
X660278Y1735675D1*
X661737Y1738527D1*
X1101269Y1762934D2*
Y1739986D1*
X1102695Y1735675D1*
X1104154Y1734249D1*
X1107006Y1732790D1*
X1109891D1*
X1112743Y1734249D1*
X1114169Y1735675D1*
X1115628Y1739986D1*
Y1742838D1*
X1074795Y1758623D2*
X1076221Y1761475D1*
X1080532Y1762901D1*
X1083384D1*
X1087695Y1761475D1*
X1090580Y1757164D1*
X1092006Y1750001D1*
Y1742838D1*
X1090580Y1737101D1*
X1087695Y1734216D1*
X1083384Y1732790D1*
X1081958D1*
X1077680Y1734216D1*
X1074795Y1737101D1*
X1073369Y1741412D1*
Y1742838D1*
X1074795Y1747149D1*
X1077680Y1750001D1*
X1081958Y1751427D1*
X1083384D1*
X1087695Y1750001D1*
X1090580Y1747149D1*
X1092006Y1742838D1*
X671000Y1287934D2*
Y1264986D1*
X672426Y1260675D1*
X673885Y1259249D1*
X676737Y1257790D1*
X679622D1*
X682474Y1259249D1*
X683900Y1260675D1*
X685359Y1264986D1*
Y1267838D1*
X656000Y1257790D2*
X641641Y1287901D1*
X661737D1*
X1101982Y1287934D2*
Y1264986D1*
X1103408Y1260675D1*
X1104867Y1259249D1*
X1107719Y1257790D1*
X1110604D1*
X1113456Y1259249D1*
X1114882Y1260675D1*
X1116341Y1264986D1*
Y1267838D1*
X1085556Y1287901D2*
X1089834Y1286475D1*
X1091293Y1283623D1*
Y1280738D1*
X1089834Y1277886D1*
X1086982Y1276427D1*
X1081245Y1275001D1*
X1076934Y1273575D1*
X1074082Y1270690D1*
X1072656Y1267838D1*
Y1263527D1*
X1074082Y1260675D1*
X1075508Y1259216D1*
X1079819Y1257790D1*
X1085556D1*
X1089834Y1259216D1*
X1091293Y1260675D1*
X1092719Y1263527D1*
Y1267838D1*
X1091293Y1270690D1*
X1088408Y1273575D1*
X1084130Y1275001D1*
X1078393Y1276427D1*
X1075508Y1277886D1*
X1074082Y1280738D1*
Y1283623D1*
X1075508Y1286475D1*
X1079819Y1287901D1*
X1085556D1*
X1176537Y812934D2*
Y789986D1*
X1177963Y785675D1*
X1179422Y784249D1*
X1182274Y782790D1*
X1185159D1*
X1188011Y784249D1*
X1189437Y785675D1*
X1190896Y789986D1*
Y792838D1*
X1148603Y802886D2*
X1150062Y798575D1*
X1152914Y795690D1*
X1157225Y794264D1*
X1158651D1*
X1162962Y795690D1*
X1165814Y798575D1*
X1167273Y802886D1*
Y804312D1*
X1165814Y808623D1*
X1162962Y811475D1*
X1158651Y812901D1*
X1157225D1*
X1152914Y811475D1*
X1150062Y808623D1*
X1148603Y802886D1*
Y795690D1*
X1150062Y788527D1*
X1152914Y784216D1*
X1157225Y782790D1*
X1160077D1*
X1164388Y784216D1*
X1165814Y787101D1*
X679230Y812934D2*
Y789986D1*
X680656Y785675D1*
X682115Y784249D1*
X684967Y782790D1*
X687852D1*
X690704Y784249D1*
X692130Y785675D1*
X693589Y789986D1*
Y792838D1*
X669967Y807164D2*
X667081Y808623D1*
X662770Y812901D1*
Y782790D1*
X644885Y812901D2*
X649196Y811475D1*
X652081Y807164D1*
X653507Y800001D1*
Y795690D1*
X652081Y788527D1*
X649196Y784216D1*
X644885Y782790D1*
X642033D1*
X637722Y784216D1*
X634870Y788527D1*
X633411Y795690D1*
Y800001D1*
X634870Y807164D1*
X637722Y811475D1*
X642033Y812901D1*
X644885D1*
X634870Y807164D2*
X652081Y788527D1*
X1486965Y2617934D2*
Y2587790D1*
X1469754D1*
X1441854Y2617934D2*
X1460491D1*
Y2587790D1*
X1441854D1*
X1460491Y2603575D2*
X1449017D1*
X1432590Y2617934D2*
Y2587790D1*
X1422542D1*
X1418231Y2589249D1*
X1415346Y2592101D1*
X1413920Y2594986D1*
X1412494Y2599264D1*
Y2606460D1*
X1413920Y2610771D1*
X1415346Y2613623D1*
X1418231Y2616508D1*
X1422542Y2617934D1*
X1432590D1*
X1403231Y2612164D2*
X1400346Y2613623D1*
X1396035Y2617901D1*
Y2587790D1*
X1493415Y2142934D2*
Y2112790D1*
X1476204D1*
X1448304Y2142934D2*
X1466941D1*
Y2112790D1*
X1448304D1*
X1466941Y2128575D2*
X1455467D1*
X1439040Y2142934D2*
Y2112790D1*
X1428992D1*
X1424681Y2114249D1*
X1421796Y2117101D1*
X1420370Y2119986D1*
X1418944Y2124264D1*
Y2131460D1*
X1420370Y2135771D1*
X1421796Y2138623D1*
X1424681Y2141508D1*
X1428992Y2142934D1*
X1439040D1*
X1408222Y2135738D2*
Y2137164D1*
X1406796Y2140049D1*
X1405370Y2141475D1*
X1402485Y2142901D1*
X1396748D1*
X1393896Y2141475D1*
X1392470Y2140049D1*
X1391011Y2137164D1*
Y2134312D1*
X1392470Y2131427D1*
X1395322Y2127149D1*
X1409681Y2112790D1*
X1389585D1*
X1493415Y1667934D2*
Y1637790D1*
X1476204D1*
X1448304Y1667934D2*
X1466941D1*
Y1637790D1*
X1448304D1*
X1466941Y1653575D2*
X1455467D1*
X1439040Y1667934D2*
Y1637790D1*
X1428992D1*
X1424681Y1639249D1*
X1421796Y1642101D1*
X1420370Y1644986D1*
X1418944Y1649264D1*
Y1656460D1*
X1420370Y1660771D1*
X1421796Y1663623D1*
X1424681Y1666508D1*
X1428992Y1667934D1*
X1439040D1*
X1406796Y1667901D2*
X1391044D1*
X1399633Y1656427D1*
X1395322D1*
X1392470Y1655001D1*
X1391044Y1653575D1*
X1389585Y1649264D1*
Y1646412D1*
X1391044Y1642101D1*
X1393896Y1639216D1*
X1398207Y1637790D1*
X1402518D1*
X1406796Y1639216D1*
X1408222Y1640675D1*
X1409681Y1643527D1*
X1494128Y1192934D2*
Y1162790D1*
X1476917D1*
X1449017Y1192934D2*
X1467654D1*
Y1162790D1*
X1449017D1*
X1467654Y1178575D2*
X1456180D1*
X1439753Y1192934D2*
Y1162790D1*
X1429705D1*
X1425394Y1164249D1*
X1422509Y1167101D1*
X1421083Y1169986D1*
X1419657Y1174264D1*
Y1181460D1*
X1421083Y1185771D1*
X1422509Y1188623D1*
X1425394Y1191508D1*
X1429705Y1192934D1*
X1439753D1*
X1396035Y1162790D2*
Y1192901D1*
X1410394Y1172838D1*
X1388872D1*
X766989Y3797511D2*
X769841Y3800396D1*
X774152Y3801822D1*
X779889D1*
X784200Y3800396D1*
X787085Y3797511D1*
Y3794659D1*
X785626Y3791774D1*
X784200Y3790348D1*
X781348Y3788922D1*
X772726Y3786037D1*
X769841Y3784611D1*
X768415Y3783152D1*
X766989Y3780300D1*
Y3775989D1*
X769841Y3773137D1*
X774152Y3771678D1*
X779889D1*
X784200Y3773137D1*
X787085Y3775989D1*
X757725Y3801822D2*
X750529Y3771678D1*
X743366Y3801822D1*
X736203Y3771678D1*
X729007Y3801822D1*
X719744Y3796052D2*
X716859Y3797511D1*
X712548Y3801789D1*
Y3771678D1*
X1362146Y3174789D2*
X1364998Y3177675D1*
X1369309Y3179101D1*
X1375046D1*
X1379357Y3177675D1*
X1382242Y3174789D1*
Y3171938D1*
X1380783Y3169053D1*
X1379357Y3167627D1*
X1376505Y3166201D1*
X1367883Y3163316D1*
X1364998Y3161890D1*
X1363572Y3160430D1*
X1362146Y3157579D1*
Y3153268D1*
X1364998Y3150416D1*
X1369309Y3148957D1*
X1375046D1*
X1379357Y3150416D1*
X1382242Y3153268D1*
X1352883Y3179101D2*
X1345687Y3148957D1*
X1338524Y3179101D1*
X1331361Y3148957D1*
X1324165Y3179101D1*
X1313442Y3171904D2*
Y3173330D1*
X1312016Y3176215D1*
X1310590Y3177641D1*
X1307705Y3179067D1*
X1301968D1*
X1299116Y3177641D1*
X1297690Y3176215D1*
X1296231Y3173330D1*
Y3170478D1*
X1297690Y3167593D1*
X1300542Y3163316D1*
X1314901Y3148957D1*
X1294805D1*
X1364016Y3535076D2*
X1366868Y3537961D1*
X1371179Y3539387D1*
X1376916D1*
X1381227Y3537961D1*
X1384112Y3535076D1*
Y3532224D1*
X1382653Y3529339D1*
X1381227Y3527913D1*
X1378375Y3526487D1*
X1369753Y3523602D1*
X1366868Y3522176D1*
X1365442Y3520717D1*
X1364016Y3517865D1*
Y3513554D1*
X1366868Y3510702D1*
X1371179Y3509243D1*
X1376916D1*
X1381227Y3510702D1*
X1384112Y3513554D1*
X1354753Y3539387D2*
X1347557Y3509243D1*
X1340394Y3539387D1*
X1333231Y3509243D1*
X1326035Y3539387D1*
X1313886Y3539353D2*
X1298134D1*
X1306723Y3527879D1*
X1302412D1*
X1299560Y3526454D1*
X1298134Y3525028D1*
X1296675Y3520717D1*
Y3517865D1*
X1298134Y3513554D1*
X1300986Y3510669D1*
X1305297Y3509243D1*
X1309608D1*
X1313886Y3510669D1*
X1315312Y3512128D1*
X1316771Y3514980D1*
X1364776Y3897158D2*
X1367628Y3900043D1*
X1371939Y3901469D1*
X1377676D1*
X1381987Y3900043D1*
X1384872Y3897158D1*
Y3894306D1*
X1383413Y3891421D1*
X1381987Y3889995D1*
X1379136Y3888569D1*
X1370513Y3885684D1*
X1367628Y3884258D1*
X1366202Y3882799D1*
X1364776Y3879947D1*
Y3875636D1*
X1367628Y3872784D1*
X1371939Y3871325D1*
X1377676D1*
X1381987Y3872784D1*
X1384872Y3875636D1*
X1355513Y3901469D2*
X1348317Y3871325D1*
X1341154Y3901469D1*
X1333991Y3871325D1*
X1326795Y3901469D1*
X1303172Y3871325D2*
Y3901436D1*
X1317531Y3881373D1*
X1296009D1*
M02*
